<?xml version="1.0" standalone="no"?>
<!DOCTYPE svg PUBLIC "-//W3C//DTD SVG 1.1//EN" "http://www.w3.org/Graphics/SVG/1.1/DTD/svg11.dtd" >
<svg>
<metadata>
Created by FontForge 20110222 at Mon May 19 01:32:01 2014
 By Orthosie Webhosting
Copyright (c) 2010, Sebastian Kosch (sebastian@aldusleaf.org),
with Reserved Font Name "Crimson Text".
This Font Software is licensed under the SIL Open Font License, Version 1.1.
This license is available with a FAQ at: http://scripts.sil.org/OFL
</metadata>
<defs>
<font id="CrimsonTextItalic" horiz-adv-x="0" >
  <font-face 
    font-family="CrimsonTextItalic"
    font-weight="400"
    font-style="italic"
    font-stretch="normal"
    units-per-em="1024"
    panose-1="2 0 5 3 0 0 0 0 0 0"
    ascent="717"
    descent="-307"
    x-height="435"
    cap-height="658"
    bbox="-129 -269 1137 907"
    underline-thickness="51"
    underline-position="-102"
    slope="-11"
    unicode-range="U+0020-F89F"
  />
<missing-glyph horiz-adv-x="374" 
d="M34 0v682h272v-682h-272zM68 34h204v614h-204v-614z" />
    <glyph glyph-name=".notdef" horiz-adv-x="374" 
d="M34 0v682h272v-682h-272zM68 34h204v614h-204v-614z" />
    <glyph glyph-name=".null" 
 />
    <glyph glyph-name="nonmarkingreturn" horiz-adv-x="341" 
 />
    <glyph glyph-name="space" unicode=" " horiz-adv-x="228" 
 />
    <glyph glyph-name="exclam" unicode="!" horiz-adv-x="187" 
d="M70 36q0 28 19 47t47 19q18 0 30.5 -14t12.5 -32q0 -29 -18.5 -49.5t-46.5 -20.5q-19 0 -31.5 15t-12.5 35zM242 631q15 0 23 -13t8 -30q0 -12 -16.5 -73.5t-45.5 -167.5t-47 -177q-2 -9 -12.5 -15.5t-15.5 -6.5q-6 0 -6 18q0 2 8.5 72t21.5 171t23 168q3 17 20 35.5
t39 18.5z" />
    <glyph glyph-name="quotedbl" unicode="&#x22;" horiz-adv-x="297" 
d="M112 698q23 0 28.5 -10.5t-0.5 -54.5q-6 -31 -28.5 -94t-30.5 -90q-2 -7 -8.5 -11t-12.5 -4t-11 3.5t-4 9.5q4 40 4 75.5t-2 68t-2 45.5q3 17 23 39.5t44 22.5zM262 698q23 0 28.5 -10.5t-0.5 -54.5q-6 -31 -28.5 -94t-30.5 -90q-2 -7 -8.5 -11t-12.5 -4t-11 3.5t-4 9.5
q4 40 4 75.5t-2 68t-2 45.5q3 17 23 39.5t44 22.5z" />
    <glyph glyph-name="numbersign" unicode="#" horiz-adv-x="419" 
d="M341 373h76q7 0 7 -5q0 -13 -8.5 -32t-16.5 -19h-77l-29 -86h76q7 0 7 -6q0 -13 -8.5 -31.5t-16.5 -18.5h-77l-51 -151q-3 -8 -33 -8q-22 0 -22 5q1 2 1 3l52 151h-87l-51 -151q-3 -8 -33 -8q-22 0 -22 5q1 2 1 3l52 151h-76q-7 0 -7 6q0 13 8.5 31.5t16.5 18.5h77l29 86
h-76q-7 0 -7 6q0 13 8.5 31.5t16.5 18.5h77l51 151q3 8 33 8q22 0 22 -6q-1 -1 -1 -2l-52 -151h87l51 151q3 8 33 8q22 0 22 -6q-1 -1 -1 -2zM269 317h-87l-29 -86h87z" />
    <glyph glyph-name="dollar" unicode="$" horiz-adv-x="430" 
d="M156 -52q-32 0 -31 9l253 726q32 0 31 -7zM203 -8q-36 0 -151 23q-9 65 3 151q2 8 18 8q14 0 19 -8q7 -135 121 -135q46 0 84 29t48 81q2 11 2 21.5t-0.5 19t-4.5 17t-6.5 14t-9.5 12.5t-10 10.5t-12.5 10t-11.5 8t-12.5 8t-11.5 7.5q-42 26 -65.5 44t-47.5 43t-31 53.5
t0 63.5q14 73 76.5 122t133.5 49q21 0 47.5 -4.5t52 -11t30.5 -7.5q-6 -86 -16 -137q-2 -8 -8 -8q-22 2 -22 11q2 35 -22.5 75t-74.5 40q-101 0 -120 -97q-9 -46 12.5 -75t72.5 -64q75 -53 91 -67q65 -59 51 -129q-15 -77 -81.5 -127.5t-143.5 -50.5z" />
    <glyph glyph-name="percent" unicode="%" horiz-adv-x="618" 
d="M230 646q-45 0 -77 -53t-32 -115q0 -45 16 -78.5t49 -33.5q45 0 73.5 55t28.5 120q0 42 -13.5 73.5t-44.5 31.5zM240 673q55 0 84 -38.5t29 -93.5q0 -75 -54 -139t-125 -64q-54 0 -85 38.5t-31 92.5q0 76 54 140t128 64zM631 650l-596 -650q-12 -12 -34 -12q-12 0 -15 11
l596 653q11 11 22 11q22 0 27 -13zM442 300q-45 0 -77 -53t-32 -115q0 -45 16 -78.5t49 -33.5q45 0 73.5 55t28.5 120q0 42 -13.5 73.5t-44.5 31.5zM452 327q55 0 84 -38.5t29 -93.5q0 -75 -54 -139t-125 -64q-54 0 -85 38.5t-31 92.5q0 76 54 140t128 64z" />
    <glyph glyph-name="ampersand" unicode="&#x26;" horiz-adv-x="644" 
d="M396 280q0 -14 11 -21.5t23.5 -9.5t23.5 -10t11 -22q0 -17 -9.5 -30t-23.5 -17q-24 0 -50.5 25t-26.5 63q0 55 43 91.5t101 36.5q15 0 38 -1t38 -1q35 0 61.5 15.5t26.5 44.5q0 15 -9 25.5t-23 10.5q-11 0 -26.5 -9t-26.5 -9q-12 0 -20.5 10t-8.5 23q0 23 26 43
q56 0 90.5 -25t34.5 -69t-30.5 -71t-81.5 -27q-6 0 -26 2q55 -49 55 -124q0 -99 -88.5 -168.5t-202.5 -69.5q-99 0 -173.5 59t-74.5 151q0 61 39.5 114t86.5 71q-38 43 -38 98q0 66 58 111t124 45q46 0 80.5 -25t34.5 -67q0 -29 -21.5 -55t-38.5 -26q-9 0 -9 7q0 1 5 14.5
t5 30.5q0 32 -23 54t-55 22q-46 0 -78 -34.5t-32 -81.5q0 -50 33 -79q25 7 39 7q28 0 51.5 -11t23.5 -31q0 -19 -20 -29.5t-45 -10.5q-38 0 -62 21q-72 -61 -72 -137q0 -73 50 -124t124 -51q82 0 146.5 61.5t64.5 146.5q0 39 -23.5 68.5t-59.5 29.5q-28 0 -49 -15t-21 -40z
" />
    <glyph glyph-name="quotesingle" unicode="'" horiz-adv-x="147" 
d="M112 698q23 0 28.5 -10.5t-0.5 -54.5q-6 -31 -28.5 -94t-30.5 -90q-2 -7 -8.5 -11t-12.5 -4t-11 3.5t-4 9.5q4 40 4 75.5t-2 68t-2 45.5q3 17 23 39.5t44 22.5z" />
    <glyph glyph-name="parenleft" unicode="(" horiz-adv-x="292" 
d="M21 174q0 105 33 214t78 185.5t91.5 125.5t74.5 49q9 0 9 -20q0 -5 -2 -7q-40 -19 -91.5 -101t-92.5 -209.5t-41 -246.5q0 -97 22.5 -171.5t44.5 -87.5q1 0 1 -3q0 -6 -6.5 -14.5t-11.5 -8.5q-35 0 -72 87.5t-37 207.5z" />
    <glyph glyph-name="parenright" unicode=")" horiz-adv-x="276" 
d="M269 457q0 -95 -23.5 -188.5t-58.5 -161t-74 -121t-71.5 -80.5t-49.5 -27q-9 0 -9 18q0 7 3 8q14 7 39.5 36t57.5 82t60.5 118.5t47.5 155t19 180.5q0 93 -18.5 160.5t-46.5 83.5q-1 1 -1 2q0 5 6 15t11 10q39 0 73.5 -84t34.5 -207z" />
    <glyph glyph-name="asterisk" unicode="*" horiz-adv-x="343" 
d="M201 514q8 0 22.5 18.5t29 41t34.5 41t37 18.5q23 0 23 -24q0 -19 -21 -38t-45.5 -30.5t-45.5 -25.5t-21 -24q0 -9 19.5 -15.5t42.5 -10.5t42.5 -16t19.5 -30q0 -14 -11 -25t-26 -11q-18 0 -38 20.5t-36.5 41.5t-26.5 21t-13.5 -18t-6.5 -51.5t-10 -55.5
q-6 -21 -17.5 -32t-23.5 -11q-10 0 -16.5 7.5t-6.5 20.5q0 22 32.5 74.5t32.5 63.5q0 9 -9 9q-8 0 -55 -20.5t-68 -20.5q-30 0 -30 24q0 9 3.5 17.5t18 17.5t39.5 9q16 0 42.5 -3.5t35.5 -3.5q25 0 25 17q0 10 -25.5 49.5t-25.5 63.5q0 18 10.5 29.5t23.5 11.5q11 0 18 -7
t10 -20.5t4 -26t1 -30.5q0 -66 12 -66z" />
    <glyph glyph-name="plus" unicode="+" horiz-adv-x="457" 
d="M234 470q2 9 24 13.5t32 4.5q6 0 8.5 -2.5t1.5 -6.5q-23 -134 -35 -196q-2 -5 3 -5h181q4 0 4 -9q0 -24 -21 -47h-179q-4 0 -4 -4l-35 -188q-1 -8 -18 -13t-32 -5q-8 0 -12 3t-3 6q25 140 36 196q0 5 -4 5h-179q-5 0 -5 9q0 19 22 47h178q4 0 4 4q6 29 16 90.5t17 97.5z
" />
    <glyph glyph-name="comma" unicode="," horiz-adv-x="209" 
d="M-5 -143q0 3 23.5 23.5t47.5 52.5t24 62q0 16 -6.5 41t-6.5 30q0 25 25 44t54 19q8 0 22 -4q3 -7 3 -23q0 -20 -11 -67q-8 -33 -26.5 -65.5t-40.5 -55.5t-42.5 -41t-34.5 -27l-13 -9q-4 0 -11 6.5t-7 13.5z" />
    <glyph glyph-name="hyphen" unicode="-" horiz-adv-x="295" 
d="M40 261l227 12q6 0 6 -12q0 -11 -8 -30.5t-15 -20.5l-226 -11q-5 0 -5 15q0 10 7 28t14 19z" />
    <glyph glyph-name="period" unicode="." horiz-adv-x="169" 
d="M170 57q0 -27 -20.5 -49t-45.5 -22q-19 0 -31.5 13.5t-12.5 33.5q0 27 21 48t46 21q19 0 31 -12.5t12 -32.5z" />
    <glyph glyph-name="slash" unicode="/" horiz-adv-x="463" 
d="M478 755l-424 -767q-13 -21 -51 -21q-13 0 -18 5l425 767q13 22 44 22q12 0 24 -6z" />
    <glyph glyph-name="zero" unicode="0" horiz-adv-x="410" 
d="M147 320q-25 -118 -7.5 -201.5t68.5 -83.5q59 0 108 83t74 207q23 118 6 198t-68 80q-58 0 -108 -81t-73 -202zM65 319q17 88 54.5 160.5t93 117t117.5 44.5q47 0 81 -26t50 -70t19.5 -102.5t-10.5 -123.5q-18 -88 -55.5 -160.5t-93 -117t-116.5 -44.5q-62 0 -100.5 45
t-47 116.5t7.5 160.5z" />
    <glyph glyph-name="one" unicode="1" horiz-adv-x="410" 
d="M198 496q-5 3 -8.5 11.5t-3.5 13.5q0 3 3 6q180 115 183 115h2q8 0 8 -19q-16 -33 -28 -94l-76 -394q-11 -61 -10 -89q1 -7 25 -13.5t33 -6.5q3 0 0 -18q-1 -8 -3 -11q-92 5 -111 5q-14 0 -109 -5q-3 4 0 16.5t6 12.5q13 0 39.5 6.5t29.5 13.5q8 17 16 57l70 360
q6 29 7.5 44t-0.5 18.5t-7 3.5t-17 -6t-27.5 -15t-21.5 -12z" />
    <glyph glyph-name="two" unicode="2" horiz-adv-x="410" 
d="M415 156q-6 -15 -24.5 -62.5t-28.5 -77.5q-6 -16 -22 -16h-305q-6 15 -3 33q123 111 217.5 227.5t110.5 198.5q10 54 -9 83.5t-60 29.5q-78 0 -140 -83q-5 0 -10 6.5t-4 9.5q5 12 21.5 32.5t42 45t64 42t77.5 17.5q42 0 68.5 -25.5t34 -61.5t-0.5 -76q-6 -32 -23.5 -67.5
t-37 -65t-51.5 -66.5t-53.5 -60t-58 -57t-50 -46t-43.5 -38q-7 -7 0 -7h171q11 0 20 1.5t17 7t12.5 8t11 13t8 13.5t8.5 17.5t9 17.5q6 10 15 10q14 0 16 -4z" />
    <glyph glyph-name="three" unicode="3" horiz-adv-x="410" 
d="M337 642q40 0 69.5 -35.5t18.5 -92.5q-9 -44 -34.5 -74.5t-68.5 -60.5q20 -8 38 -21.5t34.5 -34.5t23.5 -51.5t0 -65.5q-18 -95 -91 -153t-166 -58q-79 0 -115 30q-3 3 -4 13t0 16q5 22 16.5 34.5t27.5 12.5q9 0 16 -7.5t15.5 -19.5t14.5 -18q23 -21 66 -21q18 0 37 7.5
t38.5 23t35.5 45t24 69.5q12 59 -15.5 100t-74.5 41q-34 0 -62 -7q-6 10 -2 26q2 6 4 10q67 12 112 48t57 98q7 34 -12.5 60.5t-51.5 26.5q-20 0 -39 -7.5t-29 -15.5t-20 -17.5t-12 -10.5q-4 0 -5.5 9.5t-0.5 16.5q33 40 69 62t86 22z" />
    <glyph glyph-name="four" unicode="4" horiz-adv-x="410" 
d="M50 174q-4 8 0 31l365 428q11 12 24 12t10 -10l-79 -403h67q9 0 6 -7q-6 -33 -16 -51h-68l-34 -175q-4 -5 -40 -5q-18 0 -25.5 1.5t-7.5 6.5l34 172h-236zM349 498q1 2 0 5.5t-3 3.5l-2 -2l-220 -261q-1 -1 -1 -3q-2 -9 5 -9h169z" />
    <glyph glyph-name="five" unicode="5" horiz-adv-x="410" 
d="M203 35q39 0 77 35.5t53 109.5q6 23 3 48.5t-12 46.5t-35 34.5t-64 13.5q-48 0 -83 -11q-6 4 -14 14l102 297q184 6 221 14q3 -7 1 -21q-5 -27 -16 -55q-26 -8 -107.5 -11.5l-81.5 -3.5q-5 -1 -8 -8q-8 -20 -58 -160q32 13 90 13q75 0 118 -55t29 -130
q-18 -92 -89.5 -151.5t-162.5 -59.5q-83 0 -119 30q-4 3 -5 13t1 16q4 22 15.5 34.5t28.5 12.5q8 0 15.5 -7.5t16 -19.5t14.5 -18q23 -21 70 -21z" />
    <glyph glyph-name="six" unicode="6" horiz-adv-x="410" 
d="M284 372q64 0 105 -42t41 -104q0 -56 -33 -110.5t-86 -88t-106 -33.5q-68 0 -107.5 43t-39.5 125q0 43 11.5 88.5t40 98.5t72 102t113.5 98t158 88q8 0 8 -25q-97 -41 -167 -102.5t-112 -159.5q-44 -104 -44 -198q0 -50 20 -84.5t61 -34.5q45 0 88 53t43 131
q0 50 -23.5 81t-72.5 31q-8 0 -17 -2t-14 -4t-13 -5.5t-9 -3.5q-6 4 -6 14q0 17 34 30.5t55 13.5z" />
    <glyph glyph-name="seven" unicode="7" horiz-adv-x="410" 
d="M113 -6q-10 0 -19 10.5t-8 17.5l350 531h-224q-15 0 -30 -14t-24 -28t-20 -37q-2 -4 -14 -5t-18 2q4 11 26.5 67.5t31.5 82.5q5 12 17 12h269q14 0 38 1.5t25 1.5q6 0 4 -9q-1 -5 -5 -13t-8.5 -14.5t-13 -19.5t-13.5 -20l-354 -563q-3 -3 -10 -3z" />
    <glyph glyph-name="eight" unicode="8" horiz-adv-x="410" 
d="M335 643q64 0 100 -41.5t23 -110.5q-15 -75 -133 -147q-6 -1 -1 -6q43 -30 70.5 -76t18.5 -95q-14 -74 -77.5 -125t-134.5 -51q-77 0 -116.5 45t-24.5 118q5 29 21 54.5t41 46.5t40.5 32t40.5 26q6 3 9 5q6 4 2 6q-32 23 -53.5 64.5t-11.5 91.5q13 64 69 113.5t117 49.5z
M323 608q-35 0 -64 -32t-39 -84q-13 -68 72 -128q4 -2 5 -2q3 0 6 2q71 45 87 122q9 47 -9 84.5t-58 37.5zM210 27q46 0 79 30t43 81q4 23 -3 47.5t-18 41t-28.5 34t-24 23t-15.5 11.5q-4 2 -5 2q-3 0 -4 -1q-44 -27 -67.5 -59t-32.5 -80q-12 -58 12 -94t64 -36z" />
    <glyph glyph-name="nine" unicode="9" horiz-adv-x="410" 
d="M245 260q-63 0 -102 40t-39 102q0 87 68.5 159t150.5 72q68 0 107.5 -43t39.5 -125q0 -44 -9.5 -89t-36.5 -99t-68.5 -102t-111.5 -96.5t-160 -84.5q-15 4 -17 21q98 41 169 102.5t112 159.5q40 94 40 198q0 51 -19 85t-60 34q-44 0 -84 -52.5t-40 -130.5q0 -106 95 -106
q10 0 17.5 0.5t12 1.5t6.5 1.5t6 2t5 2.5q6 -5 6 -14q0 -17 -32.5 -28t-55.5 -11z" />
    <glyph glyph-name="colon" unicode=":" horiz-adv-x="180" 
d="M124 367q0 28 21.5 49.5t47.5 21.5q20 0 32.5 -13.5t12.5 -33.5q0 -28 -21 -50.5t-47 -22.5q-20 0 -33 14t-13 35zM60 34q0 28 21 50t47 22q20 0 32.5 -13.5t12.5 -34.5q0 -28 -21 -50t-47 -22q-20 0 -32.5 13.5t-12.5 34.5z" />
    <glyph glyph-name="semicolon" unicode=";" horiz-adv-x="239" 
d="M125 367q0 28 21.5 49.5t47.5 21.5q20 0 32.5 -13.5t12.5 -33.5q0 -28 -21 -50.5t-47 -22.5q-20 0 -33 14t-13 35zM79 11q0 20 -5.5 34t-5.5 17q0 20 24.5 41t51.5 21q23 0 23 -34q0 -13 -8 -56q-12 -62 -44.5 -102t-108.5 -97q-4 -2 -7 -2q-14 0 -14 24q0 6 11.5 15
t26.5 19.5t31 35.5t23 59q2 12 2 25z" />
    <glyph glyph-name="less" unicode="&#x3c;" horiz-adv-x="406" 
d="M74 209l274 -168q2 -1 2 -5q0 -9 -10.5 -29.5t-14.5 -20.5q-2 0 -4 1l-312 190q-10 7 -10 26q0 26 23 38l381 187q2 1 4 1q7 0 7 -35q0 -18 -5 -20z" />
    <glyph glyph-name="equal" unicode="=" horiz-adv-x="503" 
d="M20 117q-5 0 -5 6q0 5 8.5 27.5t14.5 22.5h416q6 0 6 -5q0 -2 -18 -45l-7 -6h-415zM48 259q-4 0 -4 6q0 4 8 27t14 23h415q6 0 6 -5t-17 -45q-1 -3 -3 -4.5t-3 -1.5h-2h-414z" />
    <glyph glyph-name="greater" unicode="&#x3e;" horiz-adv-x="419" 
d="M337 209l-272 165q-2 1 -2 4q0 6 11 29t15 23l4 -2l307 -187q12 -7 12 -20q0 -32 -24 -44l-385 -190q-4 -2 -6 -2q-6 0 -6 48l5 8z" />
    <glyph glyph-name="question" unicode="?" horiz-adv-x="294" 
d="M64 32q0 28 20 49t45 21q19 0 32 -13t13 -33q0 -27 -21.5 -48.5t-46.5 -21.5q-19 0 -30.5 13t-11.5 33zM199 197q0 -10 -10 -16q-24 0 -61 30.5t-37 67.5q0 54 42 83l119 84q47 33 47 71q0 29 -14.5 44.5t-39.5 15.5q-23 0 -41.5 -23.5t-36.5 -23.5q-34 0 -34 52
q5 14 27 31.5t47 17.5q60 0 102.5 -40t42.5 -89q0 -24 -4.5 -41.5t-10 -29.5t-21.5 -26t-28.5 -22t-42.5 -27.5t-52 -34.5q-33 -22 -33 -60q0 -19 13 -37t26 -27z" />
    <glyph glyph-name="at" unicode="@" horiz-adv-x="723" 
d="M324 -168q-57 -2 -106.5 11t-85 38t-63 59.5t-41 74.5t-18.5 83.5t5 86.5q23 120 91.5 210.5t162 136t198.5 45.5q54 0 98.5 -20.5t72.5 -55t46.5 -79t21 -93t-5.5 -96.5q-13 -69 -39 -119.5t-57 -76.5t-61 -38t-60 -12q-45 0 -68 35t-16 70q0 1 -2 0t-3 -2
q-20 -27 -71 -62t-83 -35q-33 0 -52.5 23.5t-22 56t2.5 68.5q10 51 36 98.5t65 86t93 61.5t114 23l81 -9q-16 -47 -18 -53l-65 -223q-30 -98 25 -98q33 0 61.5 21t46.5 53t29 60.5t15 52.5q17 84 -1.5 155t-71.5 115t-130 44q-84 0 -163 -39t-135.5 -109.5t-73.5 -156.5
q-10 -60 -9 -112t19.5 -96t50.5 -75t84.5 -48.5t120.5 -17.5q32 0 67 13v-9q-2 -14 -25 -27.5t-60 -18.5zM419 170l43 152q0 1 2 6.5t2.5 8t0.5 6.5t-1.5 6t-4.5 3q-67 24 -132.5 -32.5t-88.5 -176.5q-9 -47 4 -68.5t34 -21.5q36 0 85 46.5t56 70.5z" />
    <glyph glyph-name="A" unicode="A" horiz-adv-x="606" 
d="M436 239v2.5t-1.5 2t-4 2t-7 1t-12 1t-18 1t-25 0.5h-33.5q-21 0 -93 -5q-3 0 -27 -40t-47 -87t-23 -62q0 -11 14 -19t25.5 -10t15.5 -2q2 0 2 -6q0 -11 -5 -21q-93 5 -95 5q-19 0 -33.5 -1t-31.5 -2t-33 -2q-2 2 -2 8q0 19 7 19q11 0 30.5 6t27.5 15q22 24 61 94
l276 496q15 27 39 27q4 0 8 -2l83 -528q10 -63 12 -72q3 -15 25.5 -25.5t32.5 -10.5q2 0 2 -5q0 -12 -5 -22q-93 5 -104 5q-19 0 -35.5 -1t-36.5 -2t-35 -2q-1 1 -1 6q0 21 7 21q10 0 28 6t23 14q7 15 7 47q0 17 -18 148zM348 298q46 0 75 2q4 0 4 4q0 5 -6.5 47t-15 98
t-11.5 77q-123 -223 -123 -225t1 -2q23 -1 76 -1z" />
    <glyph glyph-name="B" unicode="B" horiz-adv-x="528" 
d="M448 211q0 53 -33 86.5t-106 33.5q-71 0 -74 -15l-38 -200q-5 -30 -5 -48t14 -22.5t46 -4.5q70 0 97 13q41 19 70 61t29 96zM538 215q0 -82 -74.5 -148.5t-201.5 -66.5h-127l-110 -3q-1 1 -1 9q0 20 7 20q12 0 36.5 7t28.5 16q14 29 26 93l72 372q11 57 11 93
q0 7 -22.5 15.5t-33.5 8.5q-2 0 -2 4q0 16 7 23q46 -2 107 -2q47 0 77 0.5t54 0.5q28 0 55.5 -6.5t53 -20.5t41.5 -40.5t16 -61.5q0 -24 -7 -46.5t-18 -38.5t-25 -30t-27 -23.5t-24.5 -16t-18.5 -9.5l-6 -3q30 -5 68 -47t38 -99zM473 516q0 100 -103 100q-73 0 -75 -13
l-45 -217q-1 -4 3.5 -6.5t13.5 -4t19 -2t23 -0.5q32 0 55 4t51 17t43 44t15 78z" />
    <glyph glyph-name="C" unicode="C" horiz-adv-x="580" 
d="M437 667q68 0 213 -45q-18 -114 -20 -124q-3 -15 -24 -15q-8 0 -11 3q0 15 -1 27t-10 35t-24.5 38t-48.5 27t-79 12q-103 0 -192 -110t-89 -256q0 -96 52 -159t147 -63q74 0 126 33q25 15 43.5 36t27 34t9.5 13q3 0 12 -10.5t8 -14.5q-45 -86 -50 -91q-15 -17 -78 -30
t-127 -13q-119 0 -190 81.5t-71 191.5q0 66 29.5 137t78.5 129.5t120.5 96t148.5 37.5z" />
    <glyph glyph-name="D" unicode="D" horiz-adv-x="668" 
d="M424 658q130 0 197 -72t67 -181q0 -51 -15 -106t-47.5 -109t-77.5 -97t-111 -69.5t-143 -26.5q-18 0 -71 2.5t-87 2.5l-111 -5q-1 1 -1 8q0 19 5 19q11 0 37 8t30 17q14 29 26 93l72 372q13 71 11 93q-1 8 -23 16t-33 8q-2 0 -2 4q0 16 7 23q46 -2 107 -2q35 0 90 1t73 1
zM422 614q-107 0 -120 -16q-16 -20 -27 -79l-73 -380q-3 -14 -3 -42.5t2 -33.5q9 -20 116 -20q84 0 150 54.5t99.5 138.5t33.5 178q0 88 -44 144t-134 56z" />
    <glyph glyph-name="E" unicode="E" horiz-adv-x="519" 
d="M261 656q41 0 141 4t152 4q-1 -14 -1 -39q0 -17 1 -49t1 -48q-5 -5 -18 -5q-12 0 -12 7q-3 56 -26 71t-73 15h-54q-71 0 -76 -13q-11 -30 -18 -67l-32 -175q0 -3 2.5 -4.5t8.5 -2l12 -1t14 -0.5h45q66 0 82 9.5t39 61.5q3 7 14 7q12 0 15 -5l-37 -192q-6 -4 -14 -4
q-13 0 -14 8q-1 27 -4 40.5t-4.5 16t-6.5 6.5q-10 8 -97 8q-66 0 -68 -9l-29 -148q-11 -53 -11 -87q0 -15 8 -18t53 -3h45q87 0 121 17q16 8 37.5 35.5t40.5 65.5q3 6 15 6q17 0 21 -6q-70 -130 -82 -166q-53 0 -164.5 3t-151.5 3l-111 -5q-1 1 -1 8q0 19 5 19q11 0 37 8
t30 17q14 29 26 93l72 372q13 71 11 93q-1 8 -23 16t-33 8q-2 0 -2 4q0 16 7 23q46 -2 107 -2z" />
    <glyph glyph-name="F" unicode="F" horiz-adv-x="503" 
d="M136 2l-111 -5q-1 1 -1 8q0 19 5 19q11 0 37 8t30 17q14 29 26 93l72 372q13 71 11 93q-1 8 -23 16t-33 8q-2 0 -2 4q0 16 7 23q46 -2 107 -2q40 0 139 4t152 4q-1 -14 -1 -39q0 -17 1 -49t1 -48q-5 -5 -18 -5q-12 0 -12 7q-3 56 -26 71t-73 15h-54q-71 0 -76 -13
q-11 -30 -18 -67l-32 -175q0 -3 2.5 -4.5t8.5 -2l12 -1t14 -0.5h45q66 0 82 9.5t39 61.5q3 7 14 7q12 0 15 -5l-37 -192q-6 -4 -14 -4q-13 0 -14 8q-1 27 -4 40.5t-4.5 16t-6.5 6.5q-10 8 -97 8q-66 0 -68 -9l-34 -172q-8 -40 -8 -79q0 -8 17 -14.5t34 -8.5l17 -2q2 0 2 -8
q0 -13 -6 -19q-93 5 -117 5z" />
    <glyph glyph-name="G" unicode="G" horiz-adv-x="616" 
d="M439 667q68 0 213 -45q-15 -99 -21 -130q-1 -9 -23 -9q-9 0 -11 5q0 15 -1 26.5t-10 34t-24.5 37.5t-48.5 27t-79 12q-73 0 -138.5 -54.5t-103 -136t-37.5 -161.5q0 -96 50 -166t138 -70q82 0 125 22q8 4 11 17l28 142l1 4q1 5 2 12.5t1 13.5q0 9 -28 17.5t-41 8.5
q-2 0 -2 5q0 14 8 22q108 -5 109 -5q14 0 109 5q0 -27 -6 -27q-17 0 -44 -9.5t-30 -28.5l-24 -139q0 -1 -0.5 -3.5t-0.5 -3.5q0 -7 1 -15.5t1 -11.5q0 -5 -1 -7.5t-6.5 -6.5t-15.5 -8q-2 -1 -19.5 -7.5t-22.5 -8.5t-22.5 -7.5t-27.5 -7.5t-29 -6t-35 -5.5t-38.5 -3
t-46.5 -1.5q-106 0 -172.5 74.5t-66.5 185.5q0 97 51 192.5t140 158t188 62.5z" />
    <glyph glyph-name="H" unicode="H" horiz-adv-x="627" 
d="M397 365q130 0 131 8l27 139q11 55 11 92q0 11 -21.5 19t-34.5 8q-2 0 -2 5q0 14 8 22q12 -1 47.5 -3.5t60.5 -2.5q24 0 62.5 3t44.5 3v-3q0 -24 -7 -24q-8 0 -33 -8t-28 -15q-15 -33 -26 -93l-73 -376q-11 -55 -11 -90q0 -8 13.5 -14.5t27.5 -8.5l13 -2q2 0 2 -4
q0 -11 -6 -23q-93 5 -104 5q-3 0 -110 -5q-2 2 -2 8q0 19 7 19q12 0 36 6.5t28 15.5q15 34 26 96l32 165v1q0 5 -23.5 6.5t-113.5 1.5q-144 0 -146 -12l-32 -165q-11 -55 -11 -90q0 -8 13.5 -14.5t26.5 -8.5l14 -2q2 0 2 -4q0 -11 -6 -23q-92 5 -104 5q-2 0 -110 -5
q-2 2 -2 8q0 19 7 19q12 0 36 6.5t28 15.5q15 34 26 96l71 370q11 55 11 92q0 11 -21.5 19t-34.5 8q-2 0 -2 5q0 14 8 22q12 -1 47.5 -3.5t60.5 -2.5q24 0 61.5 3t44.5 3v-3q0 -24 -7 -24q-8 0 -33.5 -8t-28.5 -15q-16 -37 -26 -93l-25 -141v-1q0 -5 26.5 -6.5t123.5 -1.5z
" />
    <glyph glyph-name="I" unicode="I" horiz-adv-x="263" 
d="M272 515l-71 -376q-11 -55 -11 -90q0 -8 13.5 -14.5t26.5 -8.5l14 -2q2 0 2 -4q0 -11 -6 -23q-92 5 -104 5q-2 0 -110 -5q-2 2 -2 8q0 19 7 19q12 0 36 6.5t28 15.5q15 34 26 96l71 370q11 55 11 92q0 11 -21.5 19t-34.5 8q-2 0 -2 5q0 14 8 22q12 -1 47.5 -3.5
t60.5 -2.5q24 0 61.5 3t44.5 3v-3q0 -24 -7 -24q-8 0 -33.5 -8t-28.5 -15q-13 -28 -26 -93z" />
    <glyph glyph-name="J" unicode="J" horiz-adv-x="254" 
d="M115 109l75 403q11 64 11 92q0 11 -25 19t-38 8q-2 0 -2 5q0 14 8 22q12 -1 47.5 -3.5t60.5 -2.5q24 0 61.5 3t44.5 3v-3q0 -24 -7 -24q-8 0 -30 -8t-25 -15q-16 -37 -26 -93l-75 -399q-14 -76 -39.5 -137.5t-54 -100t-61 -64.5t-60.5 -36.5t-54 -10.5q-6 7 -6 18l1 6
q82 26 124 98t70 220z" />
    <glyph glyph-name="K" unicode="K" horiz-adv-x="642" 
d="M272 515l-71 -376q-11 -55 -11 -90q0 -8 13.5 -14.5t26.5 -8.5l14 -2q2 0 2 -4q0 -11 -6 -23q-92 5 -104 5q-2 0 -110 -5q-2 2 -2 8q0 19 7 19q12 0 36 6.5t28 15.5q15 34 26 96l71 370q11 55 11 92q0 11 -21.5 19t-34.5 8q-2 0 -2 5q0 14 8 22q12 -1 47.5 -3.5
t60.5 -2.5q24 0 61.5 3t44.5 3v-3q0 -24 -7 -24q-8 0 -33.5 -8t-28.5 -15q-13 -28 -26 -93zM237 326q46 28 123.5 101.5t147.5 150.5q1 1 7 7.5t10.5 11.5t8.5 11.5t4 9.5q0 9 -17.5 13t-30.5 4q-3 0 -3 6q0 9 5 17q12 -1 31.5 -2.5t35.5 -2.5t31 -1q24 0 62.5 3t44.5 3
q0 -23 -6 -23q-70 -8 -106 -44l-244 -244q-5 -5 -5 -12q0 -8 6 -16l204 -247q17 -21 54 -32.5t51 -11.5q2 0 2 -6q0 -11 -5 -21q-51 -3 -75 -3q-32 0 -59.5 10t-39 19t-17.5 17q-199 253 -220 282z" />
    <glyph glyph-name="L" unicode="L" horiz-adv-x="498" 
d="M202 139q-10 -58 -10 -74q0 -15 8.5 -18t53.5 -3h45q87 0 121 17q16 8 37.5 35.5t40.5 65.5q3 6 15 6q17 0 21 -6q-70 -130 -82 -166q-52 0 -164 3t-152 3l-111 -5q-1 1 -1 8q0 24 7 24q13 0 37 6t28 14q14 29 26 93l71 370q11 55 11 92q0 11 -21.5 19t-34.5 8q-2 0 -2 5
q0 14 8 22q12 -1 47.5 -3.5t60.5 -2.5q24 0 61.5 3t44.5 3v-3q0 -24 -7 -24q-8 0 -33.5 -8t-28.5 -15q-13 -28 -26 -93z" />
    <glyph glyph-name="M" unicode="M" horiz-adv-x="814" 
d="M634 523l63 135q27 -3 79 -3q35 0 87 4q2 -5 0 -17t-5 -12q-13 0 -27.5 -7t-21.5 -17q-9 -12 -13.5 -29t-9.5 -60l-39 -382q-6 -52 -6 -79q0 -10 4 -17t11.5 -9.5t14 -3.5t16 -1.5t12.5 -0.5q2 0 2 -9q0 -12 -6 -18q-93 5 -109 5q-3 0 -105 -5q-2 4 -2 5q0 6 2.5 14
t4.5 8q13 0 36 5t27 13q3 7 6 14.5t4.5 13t3.5 15t2.5 14t1.5 17t2 16.5l40 390q3 30 3 39q0 6 -6 6q-1 0 -3 -4l-261 -532q-5 -9 -19 -21t-26 -12q-4 0 -8 2l-85 567q-1 2 -2 2q-3 0 -3 -2l-117 -431q-19 -68 -19 -83q0 -7 17 -14.5t33 -11t18 -3.5t2 -6q0 -11 -5 -21
q-93 5 -104 5q-3 0 -110 -5q-2 2 -2 10q0 17 7 17q12 0 42.5 8t34.5 16q18 34 33 89l109 391q2 11 5.5 25.5t5.5 26t2 24.5q0 11 -28.5 19t-39.5 8q-2 0 -2 7q0 16 6 20q74 -2 94 -2q57 0 95 2q9 -82 76 -495q0 -1 1 -1q3 0 3 2z" />
    <glyph glyph-name="N" unicode="N" horiz-adv-x="663" 
d="M257 654q18 0 94 4q15 -59 73 -196.5t119 -258.5q7 20 11 41l51 269q13 65 13 92q0 12 -27.5 19t-42.5 7q-2 0 -2 7q0 15 7 20q103 -5 105 -5q14 0 109 5q0 -27 -6 -27q-10 0 -42.5 -7.5t-35.5 -14.5q-13 -32 -25 -93l-75 -380q-6 -31 -14 -80t-10 -60q-4 -4 -10 -4
q-14 0 -26 23q-1 2 -246 566l-89 -440q-10 -49 -10 -89q0 -8 16 -15t32 -10l17 -3q2 0 2 -5q0 -12 -5 -22q-92 5 -104 5q-2 0 -110 -5q-2 2 -2 8q0 19 7 19q12 0 42.5 8t34.5 16q11 22 27 96l77 372q9 44 9 90q0 12 -26 18.5t-42 6.5q-2 0 -2 7q0 15 7 20q78 -4 99 -4z" />
    <glyph glyph-name="O" unicode="O" horiz-adv-x="624" 
d="M409 625q-108 0 -183 -111.5t-75 -246.5q0 -102 44.5 -168t126.5 -66q104 0 180 113.5t76 248.5q0 100 -44 165t-125 65zM432 667q101 0 169.5 -75.5t68.5 -182.5q0 -108 -51.5 -205t-138.5 -155.5t-184 -58.5q-107 0 -171.5 76.5t-64.5 192.5q0 104 55 199.5t141 152
t176 56.5z" />
    <glyph glyph-name="P" unicode="P" horiz-adv-x="505" 
d="M395 658q58 0 114 -43.5t56 -110.5q0 -86 -70.5 -147.5t-155.5 -61.5q-46 0 -70 9q-2 7 -2 10q0 10 6 16q14 -2 24 -2q68 0 125.5 50t57.5 138q0 105 -108 105q-47 0 -62.5 -4.5t-17.5 -15.5l-93 -473q-9 -45 -9 -79q0 -8 16 -14.5t32 -8.5l17 -2q2 0 2 -8q0 -13 -6 -19
q-93 5 -102 5q-3 0 -123 -5q-2 2 -2 8q0 19 7 19q11 0 35.5 7t28.5 15q10 20 26 96l82 412q5 25 5 52q0 12 -19.5 18.5t-33.5 6.5q-2 0 -2 7q0 15 7 20q43 -3 104 -3q28 0 66 1.5t65 1.5z" />
    <glyph glyph-name="Q" unicode="Q" horiz-adv-x="624" 
d="M409 625q-108 0 -183 -111.5t-75 -246.5q0 -102 44.5 -168t126.5 -66q104 0 180 113.5t76 248.5q0 100 -44 165t-125 65zM432 667q101 0 169.5 -75.5t68.5 -182.5q0 -104 -49.5 -199t-130.5 -154q-93 -68 -214 -91q30 -4 140 -51t177 -47q37 0 80.5 21.5t65.5 40.5
q23 -11 23 -24q-18 -24 -79.5 -57.5t-126.5 -33.5t-125.5 20.5t-143.5 56.5t-164 57q0 4 6.5 13.5t11.5 11.5q15 1 106 22q-86 17 -136.5 90t-50.5 174q0 104 55 199.5t141 152t176 56.5z" />
    <glyph glyph-name="R" unicode="R" horiz-adv-x="593" 
d="M389 658q28 0 57 -6.5t57.5 -21t46.5 -42.5t18 -66q0 -31 -13.5 -61t-32 -50.5t-43 -39t-41.5 -28t-31 -16.5q-9 -3 -5 -12q19 -66 49 -136t53 -105q5 -8 10 -14.5t10.5 -11t10 -8t10.5 -5.5t9 -3.5t9.5 -2t8.5 -0.5h9h9q7 -19 1 -28q-25 -5 -58 -5q-66 0 -109 65
t-98 236q-5 14 -44 14q-32 0 -41 -2.5t-11 -14.5l-29 -155q-11 -55 -11 -90q0 -8 13.5 -14.5t26.5 -8.5l14 -2q2 0 2 -4q0 -11 -6 -23q-93 5 -104 5q-3 0 -110 -5q-2 2 -2 8q0 19 7 19q12 0 36 6.5t28 15.5q11 27 26 96l82 414q5 26 5 50q0 12 -20 18.5t-33 6.5q-2 0 -2 7
q0 15 7 20q43 -3 104 -3q28 0 62.5 1.5t62.5 1.5zM373 621q-51 0 -64.5 -3t-15.5 -16l-48 -233v-2q0 -15 47 -15q46 0 88 17.5t72.5 59t30.5 98.5q0 94 -110 94z" />
    <glyph glyph-name="S" unicode="S" horiz-adv-x="435" 
d="M355 172q0 30 -24 58.5t-58 52t-68.5 48t-58.5 57.5t-24 70q0 90 65.5 149t158.5 59q26 0 67 -11t62 -13q-7 -55 -13 -111q-3 -29 -4.5 -34t-4.5 -5q-15 0 -23 6q-2 1 -2 12q0 47 -30.5 80t-70.5 33q-57 0 -92 -34.5t-35 -86.5q0 -53 49 -92q19 -15 65 -47t66.5 -49
t40.5 -48.5t20 -66.5q0 -31 -15 -66t-43 -66.5t-74 -52t-101 -20.5q-54 0 -159 24q4 64 4 81t-1 46t-1 31q0 7 19 7q9 0 19 -8q0 -21 4.5 -42t17 -45t40 -38.5t66.5 -14.5q53 0 95.5 36.5t42.5 100.5z" />
    <glyph glyph-name="T" unicode="T" horiz-adv-x="601" 
d="M285 142l69 355q13 69 13 97q0 7 -2.5 10.5t-25.5 7t-71 3.5q-53 0 -75 -16.5t-47 -72.5q-2 -5 -10 -5q-13 0 -20 7l44 143q38 -11 63 -11q39 0 101 -3t101 -3t103 3t103 3q22 0 66 11l-10 -143q-9 -7 -23 -7q-9 0 -9 5q0 54 -19.5 71.5t-66.5 17.5q-99 0 -106 -15
q-14 -30 -28 -100l-70 -361q-11 -55 -11 -90q0 -8 13.5 -14.5t26.5 -8.5l14 -2q2 0 2 -4q0 -11 -6 -23q-92 5 -104 5q-2 0 -110 -5q-2 2 -2 8q0 19 7 19q12 0 36 6.5t28 15.5q15 34 26 96z" />
    <glyph glyph-name="U" unicode="U" horiz-adv-x="631" 
d="M173 512q11 57 11 92q0 11 -21.5 19t-34.5 8q-2 0 -2 5q0 14 8 22q12 -1 47.5 -3.5t60.5 -2.5q24 0 61.5 3t44.5 3v-3q0 -24 -7 -24q-8 0 -33.5 -8t-28.5 -15q-13 -28 -26 -93l-41 -217q-8 -44 -8 -85q0 -77 33 -120.5t98 -43.5q163 0 205 225l44 238q12 70 12 90
q0 12 -29 20.5t-46 8.5q-2 0 -2 6q0 16 7 21q12 -1 48 -3.5t60 -2.5q19 0 36.5 1t37.5 2.5t33 2.5q0 -27 -7 -27q-8 0 -39 -8t-36 -15q-8 -10 -27 -98l-45 -234q-31 -159 -96 -217.5t-187 -58.5q-87 0 -135.5 53t-48.5 153q0 37 14 106z" />
    <glyph glyph-name="V" unicode="V" horiz-adv-x="640" 
d="M232 654q33 0 109 4v-3q0 -24 -7 -24q-35 0 -47.5 -8.5t-12.5 -28.5q0 -13 4 -32l77 -419l240 411q12 21 12 48q0 13 -17 21t-37 8q-2 0 -2 5q0 17 7 22q72 -4 93 -4q23 0 99 4v-6q-2 -21 -8 -21q-19 0 -43 -13t-39 -39l-326 -560q-19 -33 -38 -33q-5 0 -9 6l-99 559
q-6 34 -15 55q-5 11 -22.5 18t-28.5 7q-2 0 -2 5q0 17 7 22q82 -4 105 -4z" />
    <glyph glyph-name="W" unicode="W" horiz-adv-x="973" 
d="M218 652q18 0 36 1t38.5 2.5t33.5 2.5v-3q0 -24 -7 -24q-24 0 -38 -11t-14 -26q0 -9 7 -37l127 -445l121 183l-74 265q-8 28 -19 46q-6 10 -22.5 17.5t-26.5 7.5q-2 0 -2 5q0 16 8 22q13 -1 47 -3.5t59 -2.5q24 0 57 2.5t43 3.5v-3q0 -7 -2.5 -15.5t-5.5 -8.5
q-24 0 -37.5 -11t-13.5 -26q0 -13 6 -37l45 -161l85 138q25 41 25 59q0 19 -17.5 28.5t-28.5 9.5q-2 0 -2 5q0 17 7 22q87 -6 95 -6q28 0 59.5 3t40.5 3q0 -27 -7 -27q-16 0 -40.5 -12t-32.5 -21q-19 -21 -70 -100l-100 -154l68 -238l243 428q25 44 25 59q0 19 -17.5 28.5
t-28.5 9.5q-2 0 -2 5q0 17 7 22q87 -6 95 -6q28 0 59.5 3t40.5 3q0 -27 -7 -27q-16 0 -40.5 -12t-32.5 -21q-33 -38 -70 -100l-281 -479q-19 -32 -43 -32q-6 0 -8 5l-70 253l-146 -226q-21 -32 -42 -32q-5 0 -8 5l-142 518q-17 60 -35 96q-5 10 -21.5 17.5t-26.5 7.5
q-2 0 -2 5q0 17 7 22q15 -1 44.5 -3.5t53.5 -2.5z" />
    <glyph glyph-name="X" unicode="X" horiz-adv-x="656" 
d="M289 652q9 0 123 6v-4q0 -23 -6 -23q-8 0 -21 -3t-28 -13t-15 -24q0 -11 5 -24q74 -168 75 -168q2 0 44 45t84.5 95t42.5 61q0 13 -19 22t-39 9q-2 0 -2 5q0 17 7 22q102 -6 111 -6q21 0 39.5 1t38.5 2.5t33 2.5v-3q0 -24 -7 -24q-12 0 -48 -9t-48 -22
q-219 -243 -219 -245q0 -1 27 -65t58 -135.5t39 -85.5q14 -24 44.5 -34.5t45.5 -10.5q2 0 2 -5q0 -16 -3 -22q-93 5 -111 5q-2 0 -134 -5q-2 2 -2 8q0 19 7 19q12 0 33.5 9t21.5 23q0 13 -2 18q-91 217 -92 217t-50 -55.5t-98.5 -114.5t-49.5 -67q0 -30 55 -30q4 0 4 -9
q0 -13 -5 -18q-17 1 -103 1q-97 0 -116 -1q-1 1 -1 4q0 23 5 23q8 0 21.5 1.5t35.5 9t33 19.5q251 279 251 282l-78 184q-18 43 -27 58t-28 31q-9 8 -28 15t-28 7q-2 0 -2 5q0 17 7 22q12 -1 51 -3.5t66 -2.5z" />
    <glyph glyph-name="Y" unicode="Y" horiz-adv-x="593" 
d="M244 652q10 0 124 6v-5q0 -22 -7 -22q-15 0 -39 -10.5t-24 -31.5q0 -10 4 -22l69 -212q13 17 45.5 59t50 65.5t39.5 53.5t32 46t10 21q-1 13 -21.5 22t-40.5 9q-2 0 -2 6q0 16 7 21q8 0 40 -3t52 -3q5 0 119 6q1 -2 1 -5q0 -22 -7 -22q-10 0 -39.5 -9.5t-41.5 -21.5
t-120.5 -158.5t-110.5 -156.5l-28 -146q-11 -55 -11 -90q0 -8 13.5 -14.5t27.5 -8.5l13 -2q2 0 2 -4q0 -11 -6 -23q-93 5 -104 5q-3 0 -111 -5q-1 1 -1 7q0 20 7 20q11 0 35 7t29 15q12 21 25 90l26 142q1 4 -20 70.5t-43 131.5l-21 65q-15 46 -39 64q-10 7 -29 14.5
t-27 7.5q-2 0 -2 5q0 17 7 22q12 -1 51 -3.5t66 -2.5z" />
    <glyph glyph-name="Z" unicode="Z" horiz-adv-x="546" 
d="M323 656q46 -1 108 -1q34 0 58 1t37 2t41.5 3.5t54.5 4.5q2 -1 3 -15.5t0 -17.5q-1 -4 -115 -143t-228 -276l-113 -138q-8 -9 -8 -17t10 -8h210q16 0 30.5 2t25.5 7.5t20 9.5t17 13t13 14t11 15.5t7.5 14t6.5 14t5 11.5q3 8 27 8q10 0 14 -6q-35 -86 -57 -154h-461
q-4 7 -4 17q0 16 8 26l466 565h-43h-37.5h-41.5t-38 -0.5t-29 -0.5h-12q-64 -1 -92 -27t-60 -96q-3 -4 -10 -4q-18 0 -27 9q13 35 56 176q9 -3 70 -6t77 -3z" />
    <glyph glyph-name="bracketleft" unicode="[" horiz-adv-x="307" 
d="M168 740q45 0 98 4l52 5q5 0 5 -6q0 -5 -1.5 -10t-4 -9t-6 -7.5t-6 -5.5t-4.5 -3l-2 -2q-46 -11 -96 -11q-3 0 -5 -2t-2 -4l-1 -2l-144 -736q-1 -8 5 -8q22 0 44.5 -4.5t33.5 -8.5l12 -4l2 -1q2 -1 3 -2.5t2.5 -4.5t1.5 -7.5t-1 -12.5q-1 -5 -3 -8t-3 -4h-2
q-66 12 -142 12q-13 0 -13 17v6l154 796q0 2 2 6.5t7.5 10.5t13.5 6z" />
    <glyph glyph-name="backslash" unicode="\" horiz-adv-x="212" 
d="M26 761q39 0 41 -22l126 -726q1 -3 1 -8q0 -16 -8.5 -29.5t-20.5 -14.5l-23 2l-136 792q12 6 20 6z" />
    <glyph glyph-name="bracketright" unicode="]" horiz-adv-x="299" 
d="M150 749l8 -1q9 -1 23 -2.5t32 -2.5t40.5 -2t44.5 -1q13 0 13 -15q0 -5 -1 -8l-154 -796q0 -2 -1.5 -6.5t-7 -10.5t-13.5 -6q-34 0 -70.5 -3t-56.5 -6l-20 -3q-4 3 -4 9q0 11 20 31q49 17 96 17q3 0 5 2t3 4l1 2l143 736q1 8 -5 8q-22 0 -45 2.5t-35 5.5l-12 3
q-12 12 -12 22q0 21 8 21z" />
    <glyph glyph-name="asciicircum" unicode="^" horiz-adv-x="303" 
d="M13 499q2 4 28 25.5t64 62.5t69 90l2.5 5l2 4t1.5 2t2.5 1.5t3.5 0.5q10 0 13 -6.5t12.5 -34.5t25.5 -61q6 -13 21 -34t26.5 -36.5t11.5 -17.5q-2 -8 -7 -16.5t-10 -8.5q-14 0 -52.5 46.5t-54.5 75.5q-33 -39 -87 -80.5t-64 -41.5q-8 0 -8 24z" />
    <glyph glyph-name="underscore" unicode="_" horiz-adv-x="485" 
d="M9 -37q0 5 9.5 27.5t14.5 22.5h414q6 0 6 -4q0 -6 -18 -46l-6 -6h-415q-5 0 -5 6z" />
    <glyph glyph-name="grave" unicode="`" horiz-adv-x="162" 
d="M20 659q0 5 2.5 10.5t13 11.5t26.5 6q25 0 30 -9q12 -19 27 -53t24 -59l9 -24q0 -5 -4.5 -10t-9.5 -5q-11 0 -64.5 52.5t-53.5 79.5z" />
    <glyph glyph-name="a" unicode="a" horiz-adv-x="440" 
d="M352 435q38 0 73 -13l-61 -316q-3 -12 -3 -25q0 -25 10 -25q6 0 14.5 5.5t17 13.5t15.5 15.5t13 13.5l6 7q2 0 7.5 -9.5t5.5 -13.5q-13 -22 -54 -58t-72 -36q-16 0 -25 14.5t-9 37.5q0 17 7 53q2 11 3.5 17.5t1.5 8.5q-10 -18 -23 -36.5t-33 -41.5t-42.5 -37.5
t-42.5 -14.5q-44 0 -69.5 39.5t-25.5 95.5q0 71 42.5 142.5t109.5 117t134 45.5zM310 389q-59 0 -114.5 -76.5t-55.5 -161.5q0 -98 51 -98q36 0 80.5 73t59.5 148l20 102q-12 13 -41 13z" />
    <glyph glyph-name="b" unicode="b" horiz-adv-x="394" 
d="M329 435q44 0 66.5 -39t22.5 -92q0 -128 -78 -219t-164 -91q-38 0 -68.5 28.5t-30.5 81.5q0 15 3 33l83 422q9 41 9 53q0 19 -61 19q-3 0 -3 6q0 12 8 20q65 6 126 28q6 -3 6 -19q0 -12 -13 -75l-59 -288q32 53 67 85t54 39.5t32 7.5zM300 380q-21 0 -53.5 -37.5
t-60.5 -90.5t-36 -96q-11 -55 3 -88t49 -33q38 0 71.5 38.5t52 95t18.5 111.5q0 19 -1 32t-4.5 31t-13.5 27.5t-25 9.5z" />
    <glyph glyph-name="c" unicode="c" horiz-adv-x="326" 
d="M290 435q47 0 87 -34q3 -12 3 -20q0 -19 -9.5 -31t-25.5 -12t-33 28t-34 28q-43 0 -89.5 -69.5t-46.5 -162.5q0 -106 66 -106q8 0 15.5 2t14.5 5t14 6.5t13 8.5t11.5 9t10 8.5t7 7.5t4.5 5l3 3q2 0 7.5 -9.5t5.5 -13.5q-14 -24 -56 -59t-83 -35q-52 0 -79.5 40.5
t-27.5 111.5q0 96 73 192.5t149 96.5z" />
    <glyph glyph-name="d" unicode="d" horiz-adv-x="463" 
d="M357 435q25 0 5 0h8l28 149q3 14 3 28q0 19 -61 19q-3 0 -3 6q0 12 8 20q69 6 129 28q6 -4 6 -19l-15 -75l-94 -485q-3 -12 -3 -25q0 -25 10 -25q6 0 14.5 5.5t17 13.5t15.5 15.5t13 13.5l6 7q2 0 7.5 -9.5t5.5 -13.5q-13 -22 -54 -58t-72 -36q-16 0 -25 14.5t-9 37.5
q0 16 7 53q2 8 3 13.5t2 8t1 5.5q-13 -23 -30.5 -48t-50.5 -54t-60 -29q-46 0 -71 39.5t-25 95.5q0 108 92 206.5t192 98.5zM350 341q4 19 -4 33.5t-27 14.5q-61 0 -116.5 -76.5t-55.5 -162.5q0 -97 51 -97q37 0 81 73.5t59 149.5z" />
    <glyph glyph-name="e" unicode="e" horiz-adv-x="359" 
d="M292 435q46 0 66.5 -23.5t20.5 -51.5q0 -44 -45 -87t-98.5 -66.5t-86.5 -23.5q-4 0 -4 -35q0 -45 17.5 -68.5t47.5 -23.5q8 0 15.5 2t14.5 5t14 6.5t13 8.5t11.5 9t10 8.5t7 7.5t4.5 5l3 3q2 0 7.5 -9.5t5.5 -13.5q-14 -24 -56 -59t-83 -35q-52 0 -79.5 40.5t-27.5 111.5
q0 96 73 192.5t149 96.5zM282 394q-47 0 -88.5 -67.5t-41.5 -104.5q0 -4 4 -4q36 0 93.5 48t57.5 98q0 30 -25 30z" />
    <glyph glyph-name="f" unicode="f" horiz-adv-x="304" 
d="M403 699q64 0 82 -34q0 -65 -36 -65q-14 0 -26.5 15t-26 30.5t-29.5 15.5q-32 0 -68 -65.5t-56 -182.5v-2q0 -4 3 -4h115q5 0 5 -12q0 -16 -11 -34h-117q-5 0 -6 -8l-55 -299q-24 -139 -84.5 -212t-131.5 -73q-35 0 -55 12.5t-26 28.5q-1 23 11 41t30 18q9 0 17 -9.5
t14 -21t17.5 -21t25.5 -9.5q19 0 38 23.5t32.5 59t23 67.5t13.5 57l60 339v2q0 5 -3 5h-65q-2 0 -2 3q0 9 16 26t32 17h29q4 0 6 9q20 123 86 203t142 80z" />
    <glyph glyph-name="g" unicode="g" horiz-adv-x="438" 
d="M342 -118q0 22 -12.5 40.5t-36.5 32t-43.5 21t-47.5 16.5q-19 -8 -27.5 -12t-28.5 -15t-29.5 -20t-18 -24t-8.5 -31q0 -80 131 -80q49 0 85 20.5t36 51.5zM277 398q-43 0 -70.5 -47.5t-27.5 -103.5q0 -39 16 -65t45 -26q42 0 69.5 44t27.5 94q0 40 -16 72t-44 32z
M293 436q30 0 66 -13.5t70 -13.5h43q6 0 6 -8q0 -7 -3.5 -17t-7.5 -14h-56q-6 0 -6 -6q6 -36 6 -52q0 -37 -10.5 -68.5t-28 -51.5t-29 -30t-23.5 -17q-10 -6 -40.5 -20.5t-47.5 -26t-17 -21.5q0 -9 19.5 -17.5t48 -18t56.5 -23.5t47.5 -39t19.5 -57q0 -71 -63.5 -113
t-170.5 -42q-69 0 -112.5 26t-43.5 72q0 24 13 46.5t37.5 40.5t45.5 30t48 24l-18 12q-25 17 -25 36q0 17 35.5 39t64.5 29q-19 0 -43.5 10t-47 36.5t-22.5 62.5q0 84 58.5 144.5t130.5 60.5z" />
    <glyph glyph-name="h" unicode="h" horiz-adv-x="461" 
d="M381 435q50 0 50 -66q0 -45 -14 -109l-33 -154q-3 -12 -3 -25q0 -25 10 -25q6 0 14.5 5.5t17 13.5t15.5 15.5t13 13.5l6 7q2 0 7.5 -9.5t5.5 -13.5q-13 -22 -54 -58t-72 -36q-16 0 -25 14.5t-9 37.5q0 16 7 53l35 165q7 33 7 54q0 43 -19 43q-33 0 -102.5 -90.5
t-89.5 -192.5l-17 -78q-13 -4 -31 -4t-34 4l108 559q9 44 9 53q0 19 -61 19q-3 0 -3 6q0 12 8 20q66 6 126 28q6 -3 6 -19q0 -8 -13 -75l-51 -261l-18 -92q10 18 43.5 62t82 89.5t78.5 45.5z" />
    <glyph glyph-name="i" unicode="i" horiz-adv-x="274" 
d="M208 435q16 0 25 -14.5t9 -37.5q0 -21 -6 -53l-44 -224q-3 -12 -3 -25q0 -25 10 -25q6 0 14.5 5.5t17 13.5t15.5 15.5t13 13.5l6 7q2 0 7.5 -9.5t5.5 -13.5q-13 -22 -54 -58t-72 -36q-16 0 -25 14.5t-9 37.5q0 16 7 53l41 209q5 31 5 40q0 25 -10 25q-4 0 -11 -4.5
t-14.5 -11.5t-13.5 -13t-11 -12l-5 -6q-2 0 -7.5 9.5t-5.5 13.5q12 20 50.5 53t64.5 33zM237 646q15 0 25.5 -12t10.5 -28q0 -24 -15.5 -42t-38.5 -18q-16 0 -25 12.5t-9 30.5q0 23 15 40t37 17z" />
    <glyph glyph-name="j" unicode="j" horiz-adv-x="290" 
d="M229 435q16 0 25 -14.5t9 -37.5q0 -20 -6 -53l-55 -285q-21 -108 -66 -169q-28 -38 -68 -68.5t-71 -42.5q-9 7 -9 20q50 29 88 91.5t54 145.5l57 286q5 36 5 40q0 25 -10 25q-4 0 -11 -4.5t-14.5 -11.5t-13.5 -13t-11 -12l-5 -6q-2 0 -7.5 9.5t-5.5 13.5q12 20 50.5 53
t64.5 33zM258 646q15 0 25.5 -12t10.5 -28q0 -24 -15.5 -42t-38.5 -18q-16 0 -25 12.5t-9 30.5q0 23 15 40t37 17z" />
    <glyph glyph-name="k" unicode="k" horiz-adv-x="485" 
d="M384 435q30 0 52.5 -19.5t22.5 -48.5q0 -65 -57.5 -107t-147.5 -57q60 -90 91.5 -119t53.5 -29q18 0 34.5 15t24.5 29q3 0 9.5 -8t6.5 -12q-5 -17 -37 -50t-61 -33q-13 0 -25.5 4t-25 13t-23 17t-23 24t-20.5 25.5t-20.5 29.5l-17.5 28t-17 29t-15 25l-37 -191
q-18 -5 -33 -5q-13 0 -33 5l109 559q9 41 9 53q0 19 -61 19q-3 0 -3 6q0 12 8 20q65 6 126 28q6 -3 6 -19q0 -12 -13 -75l-52 -269l11 13q11 13 26.5 28.5t36 32.5t46 28t49.5 11zM348 388q-32 0 -87.5 -67t-55.5 -89q0 -2 2 -2q4 0 10.5 1t25 4.5t36 8.5t38 14.5t35.5 21
t25.5 28.5t10.5 37q0 43 -40 43z" />
    <glyph glyph-name="l" unicode="l" horiz-adv-x="248" 
d="M93 99l94 485q3 15 3 28q0 19 -61 19q-3 0 -3 6q0 12 8 20q68 6 128 28q6 -3 6 -19q0 -12 -13 -75l-95 -485q-3 -12 -3 -25q0 -25 10 -25q6 0 14.5 5.5t17.5 13.5t16 15.5t12.5 14l5.5 6.5q3 0 8 -9.5t5 -13.5q-13 -22 -54 -58t-72 -36q-15 0 -24.5 14.5t-9.5 37.5
q0 17 7 53z" />
    <glyph glyph-name="m" unicode="m" horiz-adv-x="716" 
d="M395 435q27 0 41.5 -16t17.5 -33.5t3 -45.5q0 -17 -14 -89q33 57 92.5 120.5t94.5 63.5q33 0 45 -16.5t12 -49.5q0 -45 -14 -109l-33 -154q-3 -12 -3 -25q0 -25 10 -25q6 0 14.5 5.5t17 13.5t15.5 15.5t13 13.5l6 7q2 0 7.5 -9.5t5.5 -13.5q-13 -22 -54 -58t-72 -36
q-16 0 -25 14.5t-9 37.5q0 16 7 53l35 165q7 33 7 54q0 15 -1 23t-5 14t-13 6q-34 0 -100.5 -87t-83.5 -179l-18 -95q-4 0 -15.5 -1.5t-19.5 -1.5t-18.5 1.5t-13.5 1.5l56 284q4 21 4 38q0 39 -20 39q-35 0 -100 -95t-82 -178l-18 -88q-26 -4 -34 -4q-7 0 -33 4l60 308
q5 36 5 40q0 25 -10 25q-4 0 -11 -4.5t-14.5 -11.5t-13.5 -13t-11 -12l-5 -6q-2 0 -7.5 9.5t-5.5 13.5q12 20 50.5 53t64.5 33q16 0 25 -14.5t9 -37.5q0 -22 -6 -53l-18 -93q37 64 92.5 131t90.5 67z" />
    <glyph glyph-name="n" unicode="n" horiz-adv-x="492" 
d="M200 435q16 0 25 -14.5t9 -37.5q0 -22 -6 -53l-18 -92q10 18 43.5 62t82 89.5t78.5 45.5q50 0 50 -66q0 -45 -14 -109l-33 -154q-3 -12 -3 -25q0 -25 10 -25q6 0 14.5 5.5t17 13.5t15.5 15.5t13 13.5l6 7q2 0 7.5 -9.5t5.5 -13.5q-13 -22 -54 -58t-72 -36q-16 0 -25 14.5
t-9 37.5q0 16 7 53l35 165q7 33 7 54q0 43 -19 43q-33 0 -102.5 -90.5t-89.5 -192.5l-17 -78q-13 -4 -31 -4t-34 4l59 308q5 36 5 40q0 25 -10 25q-4 0 -11 -4.5t-14.5 -11.5t-13.5 -13t-11 -12l-5 -6q-2 0 -7.5 9.5t-5.5 13.5q12 20 50.5 53t64.5 33z" />
    <glyph glyph-name="o" unicode="o" horiz-adv-x="412" 
d="M276 394q-50 0 -91 -78.5t-41 -157.5q0 -58 18.5 -90t46.5 -32q50 0 88.5 78.5t38.5 158.5q0 59 -16 90t-44 31zM288 435q59 0 91.5 -41t32.5 -113q0 -103 -72.5 -194.5t-148.5 -91.5q-60 0 -91.5 39t-31.5 111q0 104 72 197t148 93z" />
    <glyph glyph-name="p" unicode="p" horiz-adv-x="440" 
d="M313 377q-59 0 -96 -53l-43 -221q-4 -23 4 -42t35 -19q58 0 110 76t52 162q0 97 -62 97zM353 435q46 0 71 -39.5t25 -95.5q0 -69 -44 -141.5t-104 -117.5t-107 -45q-25 0 -40 8l-28 -149q-3 -13 -3 -28q0 -19 14 -23q13 -3 47 -3q2 0 2 -6q0 -15 -5 -22q-7 0 -18.5 0.5
t-16.5 0.5q-68 0 -143 -9q-3 1 -3 8q0 15 4 21q27 0 40 16q11 14 16 43l79 408l-48 -48q-6 7 -6 20q0 4 3 7l59 63l26 130q15 4 33 4t32 -7q-9 -42 -11 -56q20 18 32.5 28t39 21.5t54.5 11.5z" />
    <glyph glyph-name="q" unicode="q" horiz-adv-x="415" 
d="M323 389q-65 0 -117.5 -74.5t-52.5 -155.5q0 -106 52 -106q37 0 84.5 73.5t62.5 147.5l20 102q-12 13 -49 13zM366 435q45 0 80 -13l-61 -316l-45 -253q-2 -16 -2 -21q0 -9 2 -14.5t13 -10.5t31 -5q2 0 2 -6q0 -16 -5 -24q-7 0 -20.5 0.5t-19.5 0.5q-71 0 -145 -8
q0 1 -0.5 5.5t-0.5 6.5q0 18 5 18q9 0 19.5 1.5t29 16t23.5 40.5l51 272q-14 -24 -35 -50.5t-54 -53t-59 -26.5q-44 0 -70 39.5t-26 95.5q0 71 43 142.5t110 117t134 45.5z" />
    <glyph glyph-name="r" unicode="r" horiz-adv-x="372" 
d="M207 435q16 0 25 -14.5t9 -37.5q0 -22 -6 -53l-16 -84q25 59 74.5 124t83.5 65t55 -32q0 -67 -37 -67q-8 0 -19 12.5t-23 12.5q-29 0 -86.5 -87t-72.5 -169l-19 -105q-17 -3 -33 -3q-19 0 -37 3l60 308q5 36 5 40q0 25 -10 25q-4 0 -11 -4.5t-14.5 -11.5t-13.5 -13
t-11 -12l-5 -6q-2 0 -7.5 9.5t-5.5 13.5q12 20 50.5 53t64.5 33z" />
    <glyph glyph-name="s" unicode="s" horiz-adv-x="320" 
d="M261 438q57 0 90 -38q5 -12 5 -21q0 -18 -9.5 -31t-24.5 -13q-14 0 -25 14.5t-27.5 29.5t-43.5 15q-21 0 -33 -14t-12 -32q0 -26 19.5 -55.5t42.5 -52.5t42.5 -56t19.5 -67q0 -55 -40 -89t-103 -34q-57 0 -90 38q-5 8 -5 19q0 18 9.5 32t24.5 14q14 0 25 -14.5
t27.5 -29.5t43.5 -15q22 0 35.5 14.5t13.5 31.5q0 26 -19.5 55.5t-42.5 52.5t-42.5 56t-19.5 67q0 42 40 82.5t99 40.5z" />
    <glyph glyph-name="t" unicode="t" horiz-adv-x="262" 
d="M197 542q3 10 49 10q12 0 18 -1l-25 -131h91q5 0 5 -13q0 -12 -9 -29h-95l-53 -272q-3 -12 -3 -25q0 -25 10 -25q6 0 14.5 5.5t17 13.5t15.5 15.5t13 13.5l6 7q2 0 7.5 -9.5t5.5 -13.5q-13 -22 -54 -58t-72 -36q-16 0 -25 14.5t-9 37.5q0 16 7 53l54 279h-71q-3 0 -3 11
q0 13 12 31h70z" />
    <glyph glyph-name="u" unicode="u" horiz-adv-x="472" 
d="M190 435q16 0 25 -14.5t9 -37.5q0 -27 -6 -53l-35 -165q-7 -29 -7 -54q0 -43 19 -43q14 0 40 23.5t54.5 61t54 91.5t35.5 107l17 78q13 4 31 4t34 -4l-62 -323q-3 -12 -3 -25q0 -25 10 -25q6 0 14.5 5.5t17 13.5t15.5 15.5t13 13.5l6 7q2 0 7.5 -9.5t5.5 -13.5
q-13 -22 -54 -58t-72 -36q-16 0 -25 14.5t-9 37.5q0 16 7 53l18 92q-10 -19 -41 -62t-78 -89t-77 -46q-50 0 -50 66q0 46 14 109l30 139q5 36 5 40q0 25 -10 25q-4 0 -11 -4.5t-14.5 -11.5t-13.5 -13t-11 -12l-5 -6q-2 0 -7.5 9.5t-5.5 13.5q12 20 50.5 53t64.5 33z" />
    <glyph glyph-name="v" unicode="v" horiz-adv-x="416" 
d="M194 435q16 0 25 -14.5t9 -37.5q0 -21 -6 -53l-30 -153q-8 -48 -8 -63q0 -28 9 -40t32 -12q46 0 107.5 91.5t61.5 155.5q0 21 -14.5 45t-14.5 36q0 18 12 31.5t29 13.5q19 0 32 -8q14 -26 14 -58q0 -83 -48.5 -172t-110.5 -143t-106 -54q-34 0 -54 24.5t-20 63.5
q0 28 4 44l34 176q6 21 6 40q0 25 -10 25q-4 0 -11 -4.5t-14.5 -11.5t-13.5 -13t-11 -12l-5 -6q-2 0 -7.5 9.5t-5.5 13.5q12 20 50.5 53t64.5 33z" />
    <glyph glyph-name="w" unicode="w" horiz-adv-x="632" 
d="M194 435q16 0 25 -14.5t9 -37.5q0 -21 -6 -53l-30 -153q-8 -48 -8 -63q0 -28 9 -40t32 -12q22 0 51.5 26t56.5 66q24 197 33 231q13 50 40 50q38 0 38 -47q0 -65 -41 -177q-7 -50 -7 -64q0 -48 8.5 -66.5t32.5 -18.5q30 0 67.5 44.5t63 103t25.5 99.5q0 21 -14.5 45
t-14.5 36q0 18 12 31.5t29 13.5q19 0 32 -8q14 -26 14 -58q0 -63 -27 -131.5t-66 -119.5t-83 -84.5t-76 -33.5q-35 0 -54.5 24.5t-19.5 66.5q-79 -91 -138 -91q-34 0 -54 24.5t-20 63.5q0 28 4 44l34 176q6 21 6 40q0 25 -10 25q-4 0 -11 -4.5t-14.5 -11.5t-13.5 -13
t-11 -12l-5 -6q-2 0 -7.5 9.5t-5.5 13.5q12 20 50.5 53t64.5 33z" />
    <glyph glyph-name="x" unicode="x" horiz-adv-x="476" 
d="M208 435q42 0 68 -87l21 -71l59 101q33 57 84 57q34 0 58 -20q8 -16 8 -26q0 -15 -10.5 -25.5t-21.5 -10.5q-13 0 -29.5 15.5t-30.5 15.5q-12 0 -27 -26l-75 -128l43 -141q10 -34 27 -34q15 0 32 15.5t24 28.5q4 0 10 -8t6 -12q-3 -17 -37 -50.5t-65 -33.5q-42 0 -68 87
l-23 78l-63 -109q-33 -57 -84 -57q-34 0 -58 20q-8 14 -8 26q0 15 10.5 25.5t21.5 10.5q13 0 29.5 -15.5t30.5 -15.5q12 0 27 26l79 136l-41 134q-10 34 -27 34q-15 0 -32 -15.5t-24 -28.5q-4 0 -10 8t-6 12q3 17 37 50.5t65 33.5z" />
    <glyph glyph-name="y" unicode="y" horiz-adv-x="479" 
d="M216 435q30 0 49.5 -51t26.5 -133.5t9 -129t2 -93.5q39 48 78 122.5t39 134.5q0 59 -25 107q13 43 50 43q44 0 44 -79q0 -110 -86 -252.5t-194.5 -239.5t-175.5 -97q-26 0 -43 12t-17 29q0 32 23 44q22 -13 67 -13q83 0 144 89q23 34 23 134q0 49 -2.5 97.5t-9 99.5
t-19 82.5t-29.5 31.5q-9 0 -27 -17t-28 -30q-2 0 -7.5 9.5t-5.5 13.5q6 15 47.5 50.5t66.5 35.5z" />
    <glyph glyph-name="z" unicode="z" horiz-adv-x="404" 
d="M205 435q10 0 64 -12.5t87 -12.5q14 0 33 12.5t33 12.5q12 0 12 -25q0 -6 -75 -88.5t-149 -162.5l-75 -80q0 -1 7 3.5t17 9.5t17 5q28 0 70 -18t56 -18q8 0 16.5 6t16 15.5t13.5 18t11 18t6 10.5q4 5 8.5 -3t5.5 -16q-8 -26 -39 -68t-61 -42q-10 0 -64 13t-87 13
q-14 0 -33 -13t-33 -13q-12 0 -12 26q0 7 74.5 89t149.5 162l74 80l-6 -5q-7 -4 -17 -9t-17 -5q-28 0 -70 18t-56 18q-8 0 -16.5 -6t-16 -15.5t-13 -18.5t-10.5 -18t-6 -10q-5 -5 -9 3t-5 17q8 26 38.5 67.5t60.5 41.5z" />
    <glyph glyph-name="braceleft" unicode="{" horiz-adv-x="275" 
d="M3 12q0 46 20.5 87t41 74t20.5 60q0 10 -3.5 17.5t-7.5 12.5t-13 10t-14 7t-17.5 6.5t-16.5 5.5v6q0 19 8 31q25 7 38.5 12t30 15.5t24 27.5t7.5 41q0 19 -8.5 60.5t-8.5 63.5q0 66 51 133.5t133 67.5q3 0 3 -4q0 -6 -5 -15t-10 -10q-8 -1 -24.5 -8t-38.5 -21.5t-38 -45
t-16 -69.5q0 -19 5.5 -55t5.5 -58q0 -70 -33 -112.5t-66 -43.5q23 -1 41 -25t18 -61q0 -41 -21.5 -79t-43 -73.5t-21.5 -69.5q0 -38 25 -66t48 -30q7 -2 7 -16q0 -13 -6 -13q-51 0 -83 38t-32 99z" />
    <glyph glyph-name="bar" unicode="|" horiz-adv-x="203" 
d="M158 757q16 16 44 16q6 0 11 -2t4 -5l-168 -872q-6 -6 -19 -11.5t-27 -5.5q-5 0 -10 2.5t-4 5.5z" />
    <glyph glyph-name="braceright" unicode="}" horiz-adv-x="268" 
d="M275 623q0 -38 -13.5 -74t-30 -58.5t-30 -50t-13.5 -50.5q0 -19 12 -31.5t24 -17.5t35 -12q1 -2 1 -8q0 -15 -7 -29q-4 -1 -17.5 -5t-20 -6t-18.5 -7.5t-18 -11.5t-13.5 -14.5t-10.5 -21t-3 -27.5q0 -19 8.5 -59t8.5 -61q0 -68 -55 -136t-128 -68q-3 0 -3 4q0 6 5.5 15
t10.5 10q29 2 73 42t44 101q0 20 -10 55t-10 59q0 62 35 104t69 43q-22 1 -38 24t-16 59q0 50 42 127t42 113q0 37 -25 62.5t-48 27.5q-7 2 -7 16q0 13 6 13q52 0 85.5 -33.5t33.5 -93.5z" />
    <glyph glyph-name="asciitilde" unicode="~" horiz-adv-x="473" 
d="M157 354q44 0 104 -26.5t104 -26.5q17 0 35 7.5t26.5 13.5t31.5 23q6 -6 6 -10q0 -25 -42.5 -55t-92.5 -30q-44 0 -105.5 26.5t-105.5 26.5q-17 0 -35 -7.5t-26.5 -13.5t-31.5 -23q-6 6 -6 10q0 28 47.5 56.5t90.5 28.5z" />
    <glyph glyph-name="uni00A0" unicode="&#xa0;" horiz-adv-x="103" 
 />
    <glyph glyph-name="exclamdown" unicode="&#xa1;" horiz-adv-x="197" 
d="M21 -269q-18 0 -27.5 13t-9.5 33q0 16 33 143q44 172 86 336q2 10 7 17t9 5q17 -9 17 -21q-60 -456 -61 -463q-5 -26 -19.5 -44.5t-34.5 -18.5zM92 369q0 28 20 49.5t45 21.5q19 0 31 -13.5t12 -33.5q0 -28 -20 -48.5t-45 -20.5q-19 0 -31 12.5t-12 32.5z" />
    <glyph glyph-name="cent" unicode="&#xa2;" horiz-adv-x="319" 
d="M285 435q22 0 45.5 -10t35.5 -24q2 -8 2 -22q0 -18 -11.5 -29.5t-28.5 -11.5q-16 0 -35 29t-33 29q-41 0 -85 -70.5t-44 -163.5q0 -23 4 -43.5t21 -41t46 -20.5q21 0 44.5 17.5t34.5 31t15 21.5q2 0 5.5 -8t4.5 -14q0 -22 -42.5 -65.5t-85.5 -43.5q-45 0 -74 27.5t-38 60
t-9 68.5q0 104 75.5 193.5t152.5 89.5zM293 474q32 0 31 -8l-176 -511q-32 0 -31 9z" />
    <glyph glyph-name="sterling" unicode="&#xa3;" horiz-adv-x="438" 
d="M109 319h248q5 0 3 -10q-3 -20 -20 -30h-240q-5 0 -2 13q3 16 11 27zM215 258q-20 -99 -76 -174q23 9 69 9q27 0 75.5 -16t64.5 -16q14 0 28 9.5t21 17.5t19.5 26t13.5 20q9 0 9 -17q0 -5 -2 -9q-63 -116 -132 -116q-32 0 -90.5 18.5t-79.5 18.5q-32 0 -77 -38
q-8 0 -11.5 6.5t-2.5 12.5q12 17 31.5 40t26.5 32q23 36 47 167q2 9 12 83t13 91q18 94 77 153t134 59q49 0 64 -37q-3 -20 -13 -39.5t-26 -19.5q-19 0 -35 27t-35 27q-22 0 -39 -12.5t-28 -37t-17 -46.5t-12 -53q-4 -19 -16 -100t-13 -86z" />
    <glyph glyph-name="currency" unicode="&#xa4;" horiz-adv-x="447" 
d="M247 463q-50 0 -88.5 -59.5t-38.5 -130.5q0 -53 23 -87t60 -34q50 0 88 59t38 130q0 53 -23 87.5t-59 34.5zM262 496q58 0 96 -41l66 55q1 1 4 1q8 0 16.5 -14.5t9.5 -30.5l-67 -56q11 -30 11 -63q0 -80 -56 -148l39 -58q0 -1 0.5 -1t0.5 -1q0 -8 -17 -21.5t-33 -17.5
l-37 55q-51 -35 -106 -35q-60 0 -98 40l-59 -50q-1 -1 -4 -1q-8 0 -16.5 14.5t-9.5 30.5l60 51q-12 29 -12 63q0 87 62 155l-37 56q0 1 -0.5 1t-0.5 1q0 8 17 21.5t33 17.5l37 -55q48 31 101 31z" />
    <glyph glyph-name="yen" unicode="&#xa5;" horiz-adv-x="611" 
d="M384 254h85q5 0 2 -13q-3 -15 -10 -25h-85l-7 -40h85q5 0 2 -13q-3 -15 -10 -25h-85q-12 -63 -11 -92q1 -7 21.5 -14.5t28.5 -7.5q4 0 2 -12q-2 -10 -5 -15q-90 5 -99 5q-4 0 -107 -5q-3 7 -2 13q2 14 7 14q11 0 34 7t28 15q13 30 25 92h-86q-5 0 -2 13q2 14 11 25h84
l8 40h-85q-5 0 -2 13q3 15 10 25h85q4 12 2 16q0 16 -80 262q-11 35 -28 62q-6 9 -25 15t-31 6q-3 0 -1 11q2 12 6 16q14 -1 47.5 -3.5t59.5 -2.5q7 0 118 6q1 -5 -2 -16t-6 -11q-16 0 -36.5 -8t-23.5 -24q-2 -7 4 -29l61 -206q5 -6 10 2q161 198 168 234q2 11 -13.5 21
t-42.5 10q-2 1 -2 6t2 12t5 9q9 -1 37.5 -3.5t47.5 -2.5q18 0 129 6q0 -10 -1 -15q-2 -12 -6 -12q-12 0 -46 -8.5t-46 -20.5q-51 -65 -136 -178t-88 -126z" />
    <glyph glyph-name="brokenbar" unicode="&#xa6;" horiz-adv-x="203" 
d="M157 754q16 16 44 16q6 0 11 -2t4 -5l-69 -363q-15 -17 -45 -17q-5 0 -10.5 2.5t-4.5 5.5zM59 248q16 16 44 16q6 0 11 -2t4 -5l-69 -363q-6 -6 -19 -11.5t-27 -5.5q-5 0 -10 2.5t-4 5.5z" />
    <glyph glyph-name="section" unicode="&#xa7;" horiz-adv-x="348" 
d="M272 652q57 0 72 -37q-5 -60 -42 -60q-12 0 -20 14.5t-19 29.5t-30 15q-30 0 -52.5 -26.5t-22.5 -64.5q0 -29 17.5 -52.5t42.5 -40.5t50 -34.5t42.5 -44.5t17.5 -61q0 -102 -83 -165q0 -2 0.5 -6.5t0.5 -7.5q0 -65 -40 -119.5t-124 -54.5q-59 0 -73 36q2 27 13 44t29 17
q12 0 20 -15.5t18.5 -30.5t29.5 -15q30 0 52.5 27.5t22.5 64.5q0 29 -17.5 52.5t-42.5 40.5t-50 34.5t-42.5 44.5t-17.5 61q0 100 84 166q0 2 -0.5 7t-0.5 7q0 69 43 121.5t122 52.5zM76 354q0 -32 21 -58t47.5 -41t54.5 -40.5t39 -55.5q38 27 38 76q0 32 -21 57.5t-47 40.5
t-54 40.5t-39 55.5q-26 -20 -34 -40q-5 -16 -5 -35z" />
    <glyph glyph-name="dieresis" unicode="&#xa8;" horiz-adv-x="285" 
d="M239 577q15 0 26 -12t11 -28q0 -24 -15.5 -42t-38.5 -18q-16 0 -25 13t-9 31q0 23 14.5 39.5t36.5 16.5zM70 577q15 0 26 -12t11 -28q0 -24 -15.5 -42t-38.5 -18q-16 0 -25 13t-9 31q0 23 14.5 39.5t36.5 16.5z" />
    <glyph glyph-name="copyright" unicode="&#xa9;" horiz-adv-x="547" 
d="M309 483q58 0 100 -19q2 -4 2 -8q1 -14 1 -50q0 -12 -16 -12q-4 0 -6 2q0 6 -3 14t-10 17.5t-23.5 15.5t-39.5 6q-43 0 -78 -39.5t-35 -94.5q0 -42 23.5 -65t54.5 -23q21 0 37.5 4t25.5 11.5t14 13t9 14t5 9.5q2 1 4 1l14 -4q-3 -8 -15 -34t-16 -28q-47 -19 -102 -19
q-48 0 -78.5 31.5t-30.5 80.5q0 67 49 121.5t114 54.5zM336 615q91 0 148.5 -61.5t57.5 -155.5q0 -129 -96.5 -229t-216.5 -100q-91 0 -148 61.5t-57 155.5q0 129 96 229t216 100zM330 584q-105 0 -190.5 -89t-85.5 -203q0 -83 51 -137.5t131 -54.5q105 0 191 88.5t86 202.5
q0 83 -51.5 138t-131.5 55z" />
    <glyph glyph-name="ordfeminine" unicode="&#xaa;" horiz-adv-x="319" 
d="M233 556q47 0 57 -10l-38 -201q-3 -16 -3 -29q0 -26 15 -26q8 0 26 26l18 25q4 0 7 -15q-7 -19 -29.5 -47.5t-45.5 -28.5q-39 0 -39 51q0 11 3 29l2 17l-1 2q-1 0 -1 -0.5v-1.5q-12 -26 -49.5 -62t-67.5 -36q-60 0 -60 73q0 80 71.5 157t134.5 77zM228 530
q-45 0 -93.5 -68t-48.5 -124q0 -48 30 -48q22 0 58 51.5t45 100.5l13 71q0 1 0.5 4t0.5 4q0 9 -5 9z" />
    <glyph glyph-name="guillemotleft" unicode="&#xab;" horiz-adv-x="416" 
d="M405 423q18 -6 18 -16q0 -5 -1.5 -7.5t-17 -17t-51.5 -44.5q-14 -12 -51.5 -47.5t-47.5 -43.5l63 -90q8 -11 18 -23.5t15 -19t8.5 -13t3.5 -10.5t-3.5 -7.5t-7.5 -5t-9 -3.5t-6 -2q-11 17 -59 65t-102 89q-4 3 -4 10q0 19 12 31q53 30 107.5 68t79 57.5t35.5 29.5z
M87 247q24 -36 45 -65.5t32 -42.5t19 -23t10.5 -14.5t2.5 -9.5q0 -4 -4 -8t-9 -6t-9 -4l-5 -1q-11 17 -59 65t-102 89q-4 3 -4 10q0 19 12 31q55 31 110.5 70t81.5 59.5t31 25.5q17 -5 17 -16q0 -5 -1.5 -7.5t-17 -17t-51.5 -44.5q-14 -12 -51.5 -47.5t-47.5 -43.5z" />
    <glyph glyph-name="logicalnot" unicode="&#xac;" horiz-adv-x="474" 
d="M40 420h414q11 0 9 -11l-47 -240q-9 -9 -42 -9q-6 0 -10.5 2t-3.5 6l37 186v1q0 9 -10 9h-365q-3 12 -3 18q0 13 7 25.5t14 12.5z" />
    <glyph glyph-name="registered" unicode="&#xae;" horiz-adv-x="547" 
d="M304 529q-32 0 -34 -10l-14 -75q0 -1 -1 -2.5l-1 -1.5q0 -12 38 -12q23 0 36.5 19t13.5 44q0 38 -38 38zM314 554q31 0 52.5 -16t21.5 -45q0 -50 -58 -79q-1 -1 -1 -3v-1q4 -22 32 -77q9 -17 14 -25.5t14 -15t19 -6.5q0 -7 -2 -11q-6 -3 -18 -3q-42 0 -60.5 22t-50.5 104
q-3 9 -17 9q-11 0 -13 -8l-17 -89v-11q0 -7 3 -8q12 -6 19 -6q1 0 1 -3q0 -2 -2 -10q-38 2 -50 2q-13 0 -55 -2q0 2 -0.5 4t-0.5 4q0 1 1.5 2.5t1.5 2.5l18 3t9.5 5.5t4 6.5t2.5 12.5t3 17.5l33 169q4 22 4 29q0 6 -7.5 9.5t-14.5 3.5q-2 0 -2 2t1.5 5.5t1.5 4.5
q6 0 20 -1.5t23 -1.5q14 0 35.5 2t34.5 2zM341.5 680q105.5 0 164.5 -80t37.5 -193t-112 -193.5t-196 -80.5t-164 80.5t-37 193.5t111.5 193t195.5 80zM336.5 648q-92.5 0 -172 -70.5t-99 -170.5t32.5 -171t144.5 -71t172.5 71t99.5 171t-33 170.5t-145 70.5z" />
    <glyph glyph-name="macron" unicode="&#xaf;" horiz-adv-x="261" 
d="M43 596h198q8 0 8 -18q0 -9 -6.5 -22.5t-11.5 -16.5h-201q-5 0 -5 19q0 8 6 20.5t12 17.5z" />
    <glyph glyph-name="degree" unicode="&#xb0;" horiz-adv-x="201" 
d="M119 597q-27 0 -48 -21.5t-21 -51.5q0 -21 12.5 -35.5t33.5 -14.5q26 0 47.5 22.5t21.5 51.5q0 21 -12.5 35t-33.5 14zM126 634q33 0 54 -22.5t21 -56.5q0 -46 -35 -82t-77 -36q-33 0 -54 23t-21 57q0 47 35.5 82t76.5 35z" />
    <glyph glyph-name="plusminus" unicode="&#xb1;" horiz-adv-x="497" 
d="M14 92h430q4 0 4 -9q0 -24 -21 -47h-430q-5 0 -5 9q0 19 22 47zM72 389h178q4 0 4 4q6 29 16 90.5t17 97.5q2 9 24 13.5t32 4.5q6 0 8.5 -2.5t1.5 -6.5q-23 -134 -35 -196q-2 -5 3 -5h181q4 0 4 -9q0 -24 -21 -47h-179q-4 0 -4 -4l-35 -188q-1 -8 -18 -13t-32 -5
q-8 0 -12 3t-3 6q25 140 36 196q0 5 -4 5h-179q-5 0 -5 9q0 19 22 47z" />
    <glyph glyph-name="uni00B2" unicode="&#xb2;" horiz-adv-x="302" 
d="M303 563q0 -43 -33 -89t-72 -77t-72 -56t-33 -30q0 -1 1 -1h127q14 0 24.5 9t16.5 18.5t8 9.5q9 0 15 -4q-7 -13 -13 -27t-13 -33t-11 -29l-112 1l-122 -1q-5 2 -5 19q0 7 4 14q16 15 46.5 44.5t46 44t39 38.5t35.5 38.5t25 32.5t18.5 32t5.5 27q0 20 -11.5 35t-34.5 15
q-13 0 -47.5 -21.5t-35.5 -21.5q-2 0 -5 8t-3 13q0 6 3 12q12 17 50.5 40t74.5 23q37 0 60 -24t23 -60z" />
    <glyph glyph-name="uni00B3" unicode="&#xb3;" horiz-adv-x="279" 
d="M104 283q40 0 71 31.5t31 76.5q0 25 -14 39t-36 14q-4 0 -49 -6q-5 8 -5 14q0 13 11 16q57 12 80 41.5t23 52.5q0 15 -12 24.5t-28 9.5q-24 0 -49.5 -18.5t-27.5 -18.5q-4 0 -5 8.5t0 16.5v9q51 54 123 54q22 0 43 -17.5t21 -46.5q0 -24 -14.5 -45t-26.5 -29.5t-34 -21.5
q-3 -2 -5 -3q22 0 47.5 -23t25.5 -59q0 -57 -57 -106t-138 -49q-27 0 -48 8.5t-24 17.5q1 17 12 30.5t24 13.5t29 -17t32 -17z" />
    <glyph glyph-name="acute" unicode="&#xb4;" horiz-adv-x="207" 
d="M170 687q33 0 33 -21q0 -24 -79.5 -81.5t-91.5 -57.5q-3 0 -6.5 6t-3.5 10q0 7 42.5 59.5t57.5 67.5q17 17 48 17z" />
    <glyph glyph-name="uni00B5" unicode="&#xb5;" horiz-adv-x="428" 
d="M154 437q9 0 27 -14t16 -23q-6 -35 -54 -154l-9 -23q-14 -59 -11.5 -109t25.5 -50q75 0 162 158l54 203q2 12 15 12q9 0 27 -14t16 -23q-5 -31 -55 -154l-9 -23q-34 -156 21 -156q29 0 59 30q3 0 7 -10q2 -6 0 -11q-16 -33 -45.5 -56.5t-57.5 -23.5q-30 1 -36 35.5
t-1 96.5q-84 -137 -167 -137q-6 0 -11.5 1.5t-9.5 5.5l-7 7t-5.5 10t-4 11t-3 13t-2 12.5t-1.5 13t-1 11.5q0 -1 -8 -42t-13 -77t-2.5 -81.5t17.5 -69.5q-1 -10 -15.5 -18.5t-28.5 -8.5q-8 0 -16 8t-15.5 29t-7.5 51q0 75 83 337q3 14 9.5 53t6.5 41q10 45 24 119
q15 20 27 20z" />
    <glyph glyph-name="paragraph" unicode="&#xb6;" horiz-adv-x="414" 
d="M210 286l-44 -237v-2q0 -11 20 -11q7 0 13.5 4.5t7.5 9.5q13 50 50 245q0 4 -2 4q-1 0 -5 -1t-13 -2.5t-20 -2.5q-6 -1 -7 -7zM218 652q28 0 52 -2t52 -2l105 5q1 -1 1 -7q0 -22 -7 -22q-11 0 -33 -6t-27 -14q-4 -7 -16.5 -71t-23.5 -123.5t-11 -60.5q0 -3 2 -3h2l41 8
q1 -3 1 -8q0 -23 -23 -30l-25 -7q-7 -3 -7 -5q-1 -4 -9 -46.5t-15 -81t-13.5 -78.5t-6.5 -51q0 -10 23.5 -17t33.5 -7q2 0 2 -5q0 -17 -7 -22q-16 1 -66 3.5t-84 2.5q-19 0 -37.5 -1t-40 -2.5t-34.5 -2.5v2q0 7 2.5 16t5.5 9q8 0 33 7.5t28 14.5q7 15 19.5 74.5t22 111.5
t9.5 55q0 5 -18 5q-63 0 -95.5 44.5t-32.5 102.5q0 80 63 147t134 67zM273 599q0 -2 -9 -43.5t-19 -88t-18 -87t-8 -43.5q0 -5 7 -5l36 6q4 0 6 6q1 4 13 69t23 124.5t11 63.5q0 3 -6 6.5t-13 3.5q-21 0 -23 -12z" />
    <glyph glyph-name="periodcentered" unicode="&#xb7;" horiz-adv-x="131" 
d="M10 252q0 27 21 48.5t46 21.5q19 0 31 -13t12 -33q0 -28 -20.5 -49.5t-45.5 -21.5q-19 0 -31.5 13.5t-12.5 33.5z" />
    <glyph glyph-name="cedilla" unicode="&#xb8;" horiz-adv-x="161" 
d="M87 -4h19l-20 -23h22q15 0 24 -11t9 -27q0 -31 -28.5 -59t-75.5 -28q-18 0 -29 9v9q0 10 5.5 14.5t9.5 4.5q5 0 14.5 -6.5t17.5 -6.5q20 0 34 11.5t14 29.5q0 13 -7 19.5t-17 6.5q-7 0 -25 -7q-2 0 -4.5 4t-2.5 7q0 2 4.5 7.5t15 18.5t20.5 27z" />
    <glyph glyph-name="uni00B9" unicode="&#xb9;" horiz-adv-x="218" 
d="M51 579q29 13 70 33t63 30t26 10q6 0 6 -23q-17 -42 -24 -81l-40 -208q-4 -24 -4 -30q0 -12 4 -17q3 -5 19.5 -9.5t23.5 -4.5q2 0 2 -7q0 -13 -4 -19q-11 0 -40.5 1.5t-50.5 1.5t-52 -1.5t-42 -1.5q-1 1 -1 5q0 20 7 20q9 0 30 5t24 9q8 9 15 48l33 173q6 42 6 44
q0 12 -10 12q-6 0 -60 -18q-8 2 -8 15q0 10 7 13z" />
    <glyph glyph-name="ordmasculine" unicode="&#xba;" horiz-adv-x="312" 
d="M191 529q-35 0 -57.5 -26t-30.5 -61t-8 -78q0 -93 58 -93q27 0 46.5 16t29 42.5t13.5 53.5t4 58q0 88 -55 88zM201 554q49 0 80 -35t31 -87q0 -71 -50 -128t-121 -57q-49 0 -80.5 34.5t-31.5 85.5q0 71 50 129t122 58z" />
    <glyph glyph-name="guillemotright" unicode="&#xbb;" horiz-adv-x="425" 
d="M83 423q15 -22 65 -72t97 -83q3 -6 3 -16q0 -21 -10 -25q-61 -36 -116.5 -74.5t-80.5 -58.5l-25 -21q-18 5 -18 15q0 6 6 12.5t34 30.5q18 15 30 26l98 90l-64 91q-43 53 -43 64q0 6 3 10t6.5 5.5t8.5 3t6 2.5zM250 423q13 -20 63.5 -70.5t97.5 -84.5q4 -5 4 -14
q0 -23 -11 -27q-58 -34 -113 -72.5t-81 -60.5l-27 -21q-18 5 -18 15q0 6 6 12.5t34 30.5q18 15 30 26l98 90l-64 91q-44 54 -44 63q0 5 2 8.5t5.5 6t6.5 3.5t7 3z" />
    <glyph glyph-name="onequarter" unicode="&#xbc;" horiz-adv-x="563" 
d="M43 579q29 13 70 33t63 30t26 10q6 0 6 -23q-17 -42 -24 -81l-40 -208q-4 -24 -4 -30q0 -10 5 -17q3 -5 19 -9.5t23 -4.5q2 0 2 -7q0 -13 -4 -19q-11 0 -40.5 1.5t-50.5 1.5t-52 -1.5t-42 -1.5q-1 1 -1 5q0 20 7 20q9 0 30 5t24 9q8 9 15 48l33 173q6 42 6 44
q0 12 -10 12q-6 0 -60 -18q-8 2 -8 15q0 10 7 13zM552 618l-446 -632q-33 7 -33 18q0 4 2 6l447 632q31 -8 31 -19q0 -4 -1 -5zM514 390q7 7 15 7q25 0 23 -7l-45 -228v-1q0 -3 4 -3h24q9 0 9 -7q0 -29 -11 -36h-32q-2 0 -4 -5l-22 -110q-10 -5 -27 -5q-13 0 -22 1.5
t-12 3.5t-2 4l20 108v1q0 2 -3 2h-139q-7 12 -7 26zM345 158h91q5 0 6 5l26 129q0 4 -2 4h-1l-122 -130q-1 -1 -1 -3q0 -5 3 -5z" />
    <glyph glyph-name="onehalf" unicode="&#xbd;" horiz-adv-x="609" 
d="M538 618l-446 -632q-33 7 -33 18q0 4 2 6l447 632q32 -8 32 -19q0 -3 -2 -5zM514 56q17 0 26 5.5t10.5 12.5t6.5 12.5t15 5.5q6 0 7 -2q-2 -3 -37 -90h-234q-8 4 -8 17q0 9 6 16q13 12 43.5 41t45 43t39 38.5t36.5 40t26 34.5t20 33.5t6 27.5q0 20 -11.5 34.5t-34.5 14.5
q-17 0 -39 -11.5t-37 -28.5q-2 -2 -4 -2q-3 0 -6.5 8.5t-3.5 14.5l1 8q24 26 59.5 45t66.5 19q37 0 60 -24t23 -60q0 -43 -33 -89t-72 -76.5t-72 -55.5t-33 -31q0 -1 1 -1h127zM191 638h4q6 0 6 -24q-18 -41 -25 -80l-38 -196q-4 -24 -4 -30q0 -5 2 -17q1 -5 19.5 -10
t25.5 -5q2 0 2 -6q0 -13 -4 -19q-12 0 -39 1.5t-48 1.5t-49.5 -1.5t-40.5 -1.5q-2 2 -2 6q0 18 7 18q10 0 29 5t22 10q11 18 16 48l30 161q5 25 5 40q0 16 -10 16q-2 0 -47 -15q-10 8 -11 11v5t1 3t3.5 3t5.5 3t9 4.5t13.5 6t19.5 9t25.5 12.5t32.5 17.5t40 23.5z" />
    <glyph glyph-name="threequarters" unicode="&#xbe;" horiz-adv-x="593" 
d="M573 618l-446 -632q-33 7 -33 18q0 4 2 6l447 632q31 -8 31 -19q0 -4 -1 -5zM94 558q-8 0 -8 27q0 2 1 5l1 3q51 54 123 54q23 0 44 -17.5t21 -46.5q0 -9 -1.5 -17.5t-5.5 -16t-7.5 -13.5t-10.5 -12.5t-10.5 -10t-12 -9.5t-11 -7.5t-11.5 -6.5l-10 -6q22 0 46.5 -22.5
t24.5 -58.5q0 -60 -58 -108t-136 -48q-27 0 -48 8.5t-24 17.5q1 17 11.5 30.5t23.5 13.5q14 0 30 -17t33 -17q40 0 70 31.5t30 77.5q0 52 -48 52q-4 0 -49 -6q-5 8 -5 14q0 13 11 16q56 12 79 41.5t23 52.5q0 16 -12 25t-29 9q-19 0 -46 -19t-29 -19zM479 -5q-36 0 -36 9
l21 108q0 3 -3 3h-139q-7 12 -7 23v3l231 249q7 7 19 7q18 0 18 -6v-1l-44 -227v-1q0 -3 4 -3h25q8 0 8 -7q-1 -7 -2 -16q-2 -16 -6 -18q-2 -2 -4 -3l-32 -1q-2 0 -4 -5l-21 -109q-2 -5 -28 -5zM474 163l25 129q0 5 -2 5q-5 -5 -64.5 -68.5t-59.5 -64.5q0 -6 4 -6h91
q5 0 6 5z" />
    <glyph glyph-name="questiondown" unicode="&#xbf;" horiz-adv-x="277" 
d="M138 228q0 8 10 14q24 0 61 -30.5t37 -67.5q0 -50 -42 -83l-119 -84q-52 -36 -52 -69q0 -26 16 -44t46 -18q21 0 37.5 23.5t30.5 23.5q15 0 26 -13t14 -34q-6 -18 -24 -36t-49 -18q-60 0 -102.5 40t-42.5 89q0 24 4.5 41.5t10 29.5t21.5 26t28.5 22t42.5 27.5t52 34.5
q33 22 33 60q0 18 -19.5 41t-19.5 25zM273 391q0 -28 -20 -49t-45 -21q-19 0 -32 13t-13 33q0 27 21.5 48.5t46.5 21.5q19 0 30.5 -13t11.5 -33z" />
    <glyph glyph-name="Agrave" unicode="&#xc0;" horiz-adv-x="606" 
d="M451 710q-19 0 -90 28.5t-71 45.5q0 9 15.5 16.5t42.5 7.5q11 0 17 -2q23 -15 61 -47.5t38 -38.5q0 -10 -13 -10zM436 239v2.5t-1.5 2t-4 2t-7 1t-12 1t-18 1t-25 0.5h-33.5q-21 0 -93 -5q-3 0 -27 -40t-47 -87t-23 -62q0 -11 14 -19t25.5 -10t15.5 -2q2 0 2 -6
q0 -11 -5 -21q-93 5 -95 5q-19 0 -33.5 -1t-31.5 -2t-33 -2q-2 2 -2 8q0 19 7 19q11 0 30.5 6t27.5 15q22 24 61 94l276 496q15 27 39 27q4 0 8 -2l83 -528q10 -63 12 -72q3 -15 25.5 -25.5t32.5 -10.5q2 0 2 -5q0 -12 -5 -22q-93 5 -104 5q-19 0 -35.5 -1t-36.5 -2t-35 -2
q-1 1 -1 6q0 21 7 21q10 0 28 6t23 14q7 15 7 47q0 17 -18 148zM348 298q46 0 75 2q4 0 4 4q0 5 -6.5 47t-15 98t-11.5 77q-123 -223 -123 -225t1 -2q23 -1 76 -1z" />
    <glyph glyph-name="Aacute" unicode="&#xc1;" horiz-adv-x="606" 
d="M421 711q-13 0 -13 10q0 6 38 38.5t61 47.5q6 2 17 2q27 0 42.5 -7.5t15.5 -16.5q0 -17 -71 -45.5t-90 -28.5zM436 239v2.5t-1.5 2t-4 2t-7 1t-12 1t-18 1t-25 0.5h-33.5q-21 0 -93 -5q-3 0 -27 -40t-47 -87t-23 -62q0 -11 14 -19t25.5 -10t15.5 -2q2 0 2 -6
q0 -11 -5 -21q-93 5 -95 5q-19 0 -33.5 -1t-31.5 -2t-33 -2q-2 2 -2 8q0 19 7 19q11 0 30.5 6t27.5 15q22 24 61 94l276 496q15 27 39 27q4 0 8 -2l83 -528q10 -63 12 -72q3 -15 25.5 -25.5t32.5 -10.5q2 0 2 -5q0 -12 -5 -22q-93 5 -104 5q-19 0 -35.5 -1t-36.5 -2t-35 -2
q-1 1 -1 6q0 21 7 21q10 0 28 6t23 14q7 15 7 47q0 17 -18 148zM348 298q46 0 75 2q4 0 4 4q0 5 -6.5 47t-15 98t-11.5 77q-123 -223 -123 -225t1 -2q23 -1 76 -1z" />
    <glyph glyph-name="Acircumflex" unicode="&#xc2;" horiz-adv-x="606" 
d="M566 728q-19 0 -99 58q-30 -18 -72 -38t-51 -20q-11 0 -6 20q4 4 15.5 12t29.5 20.5t32 23.5q34 24 55 46q9 8 13 8q8 0 11 -8q18 -32 32 -48q11 -12 25 -25.5t22 -20.5t8 -8q-5 -20 -15 -20zM436 239v2.5t-1.5 2t-4 2t-7 1t-12 1t-18 1t-25 0.5h-33.5q-21 0 -93 -5
q-3 0 -27 -40t-47 -87t-23 -62q0 -11 14 -19t25.5 -10t15.5 -2q2 0 2 -6q0 -11 -5 -21q-93 5 -95 5q-19 0 -33.5 -1t-31.5 -2t-33 -2q-2 2 -2 8q0 19 7 19q11 0 30.5 6t27.5 15q22 24 61 94l276 496q15 27 39 27q4 0 8 -2l83 -528q10 -63 12 -72q3 -15 25.5 -25.5
t32.5 -10.5q2 0 2 -5q0 -12 -5 -22q-93 5 -104 5q-19 0 -35.5 -1t-36.5 -2t-35 -2q-1 1 -1 6q0 21 7 21q10 0 28 6t23 14q7 15 7 47q0 17 -18 148zM348 298q46 0 75 2q4 0 4 4q0 5 -6.5 47t-15 98t-11.5 77q-123 -223 -123 -225t1 -2q23 -1 76 -1z" />
    <glyph glyph-name="Atilde" unicode="&#xc3;" horiz-adv-x="606" 
d="M295 737q-7 0 -3 17q3 16 23 38q39 40 80 40q31 0 75 -26.5t75 -26.5q11 0 27.5 11t28.5 22t13 11q7 0 3 -17q-3 -16 -23 -39q-36 -39 -78 -39q-32 0 -75.5 26.5t-75.5 26.5q-15 0 -42 -22t-28 -22zM436 239v2.5t-1.5 2t-4 2t-7 1t-12 1t-18 1t-25 0.5h-33.5
q-21 0 -93 -5q-3 0 -27 -40t-47 -87t-23 -62q0 -11 14 -19t25.5 -10t15.5 -2q2 0 2 -6q0 -11 -5 -21q-93 5 -95 5q-19 0 -33.5 -1t-31.5 -2t-33 -2q-2 2 -2 8q0 19 7 19q11 0 30.5 6t27.5 15q22 24 61 94l276 496q15 27 39 27q4 0 8 -2l83 -528q10 -63 12 -72
q3 -15 25.5 -25.5t32.5 -10.5q2 0 2 -5q0 -12 -5 -22q-93 5 -104 5q-19 0 -35.5 -1t-36.5 -2t-35 -2q-1 1 -1 6q0 21 7 21q10 0 28 6t23 14q7 15 7 47q0 17 -18 148zM348 298q46 0 75 2q4 0 4 4q0 5 -6.5 47t-15 98t-11.5 77q-123 -223 -123 -225t1 -2q23 -1 76 -1z" />
    <glyph glyph-name="Adieresis" unicode="&#xc4;" horiz-adv-x="606" 
d="M485 778q4 21 20 35.5t36 14.5q19 0 30 -14.5t7 -35.5t-20 -35.5t-36 -14.5q-19 0 -30 14.5t-7 35.5zM317 778q4 21 20 35.5t36 14.5q19 0 30 -14.5t7 -35.5t-20.5 -35.5t-36.5 -14.5q-19 0 -29.5 14.5t-6.5 35.5zM436 239v2.5t-1.5 2t-4 2t-7 1t-12 1t-18 1t-25 0.5
h-33.5q-21 0 -93 -5q-3 0 -27 -40t-47 -87t-23 -62q0 -11 14 -19t25.5 -10t15.5 -2q2 0 2 -6q0 -11 -5 -21q-93 5 -95 5q-19 0 -33.5 -1t-31.5 -2t-33 -2q-2 2 -2 8q0 19 7 19q11 0 30.5 6t27.5 15q22 24 61 94l276 496q15 27 39 27q4 0 8 -2l83 -528q10 -63 12 -72
q3 -15 25.5 -25.5t32.5 -10.5q2 0 2 -5q0 -12 -5 -22q-93 5 -104 5q-19 0 -35.5 -1t-36.5 -2t-35 -2q-1 1 -1 6q0 21 7 21q10 0 28 6t23 14q7 15 7 47q0 17 -18 148zM348 298q46 0 75 2q4 0 4 4q0 5 -6.5 47t-15 98t-11.5 77q-123 -223 -123 -225t1 -2q23 -1 76 -1z" />
    <glyph glyph-name="Aring" unicode="&#xc5;" horiz-adv-x="606" 
d="M395 749q-4 -23 8 -39.5t33 -16.5t38.5 16.5t22.5 39.5t-6.5 39t-32.5 16t-40 -16t-23 -39zM364 749q7 37 37 63t64 26t52.5 -26t10.5 -63t-36.5 -63.5t-61.5 -26.5q-34 0 -53.5 26.5t-12.5 63.5zM436 239v2.5t-1.5 2t-4 2t-7 1t-12 1t-18 1t-25 0.5h-33.5q-21 0 -93 -5
q-3 0 -27 -40t-47 -87t-23 -62q0 -11 14 -19t25.5 -10t15.5 -2q2 0 2 -6q0 -11 -5 -21q-93 5 -95 5q-19 0 -33.5 -1t-31.5 -2t-33 -2q-2 2 -2 8q0 19 7 19q11 0 30.5 6t27.5 15q22 24 61 94l276 496q15 27 39 27q4 0 8 -2l83 -528q10 -63 12 -72q3 -15 25.5 -25.5
t32.5 -10.5q2 0 2 -5q0 -12 -5 -22q-93 5 -104 5q-19 0 -35.5 -1t-36.5 -2t-35 -2q-1 1 -1 6q0 21 7 21q10 0 28 6t23 14q7 15 7 47q0 17 -18 148zM348 298q46 0 75 2q4 0 4 4q0 5 -6.5 47t-15 98t-11.5 77q-123 -223 -123 -225t1 -2q23 -1 76 -1z" />
    <glyph glyph-name="AE" unicode="&#xc6;" horiz-adv-x="847" 
d="M211 50q0 -10 20 -18t31 -8q1 0 1 -2q0 -10 -9 -25q-92 5 -94 5q-19 0 -33 -1t-30.5 -2t-32.5 -2q-1 1 -1 6q0 6 3 13.5t6 7.5q10 0 30.5 6t29.5 15q39 35 79 94l312 447q5 7 5 15q0 24 -30 24q-3 0 -3 5q0 16 10 26h87q42 0 145 4t155 4q-1 -20 -4.5 -65t-4.5 -69
q-5 -5 -17 -5t-12 7q-1 28 -9 46t-21.5 25.5t-25 10t-26.5 2.5h-59q-78 0 -82 -13q-7 -25 -15 -98l-15 -158v-1q0 -6 31 -6h33q60 0 74.5 8.5t34.5 53.5q3 6 4 9q3 7 15 7t15 -5q-16 -62 -26 -192q-6 -4 -15 -4q-12 0 -13 7q-1 26 -4.5 40.5t-5 16.5t-7.5 7q-10 8 -100 8
q-40 0 -41 -10l-12 -132l-4 -43q-5 -43 -5 -48q0 -6 3.5 -10t17.5 -6.5t40 -2.5h15q78 0 112 17q29 15 70 101q3 6 15 6q17 0 21 -6q-51 -98 -74 -166q-53 0 -143 3t-130 3l-126 -5q-1 1 -1 6q0 8 3 18t6 10q11 0 40 6.5t33 12.5t8 17t7 27.5t5 31.5t4.5 38t4 39t3.5 42.5
t3 39.5q0 8 -6 8l-68 1q-41 0 -67 -1q-3 0 -6 -3l-109 -159q-45 -64 -45 -81zM540 547l-140 -203q-1 -1 -0.5 -2.5t1.5 -1.5q19 -1 53 -1q39 0 59 2l6 5z" />
    <glyph glyph-name="Ccedilla" unicode="&#xc7;" horiz-adv-x="580" 
d="M276 -27h28q21 0 31.5 -17t5.5 -41q-8 -40 -42.5 -64.5t-78.5 -24.5q-23 0 -35 10v17q2 6 7.5 11t10.5 5q6 0 17 -7.5t21 -7.5q22 0 37 11.5t18 27.5q3 19 -5.5 29.5t-20.5 10.5t-31 -8q-2 0 -6 6t-2 9q2 2 21 26t26 34h23zM437 667q68 0 213 -45q-18 -114 -20 -124
q-3 -15 -24 -15q-8 0 -11 3q0 15 -1 27t-10 35t-24.5 38t-48.5 27t-79 12q-103 0 -192 -110t-89 -256q0 -96 52 -159t147 -63q74 0 126 33q25 15 43.5 36t27 34t9.5 13q3 0 12 -10.5t8 -14.5q-45 -86 -50 -91q-15 -17 -78 -30t-127 -13q-119 0 -190 81.5t-71 191.5
q0 66 29.5 137t78.5 129.5t120.5 96t148.5 37.5z" />
    <glyph glyph-name="Egrave" unicode="&#xc8;" horiz-adv-x="519" 
d="M429 710q-19 0 -90 28.5t-71 45.5q0 9 15.5 16.5t42.5 7.5q11 0 17 -2q23 -15 61 -47.5t38 -38.5q0 -10 -13 -10zM261 656q41 0 141 4t152 4q-1 -14 -1 -39q0 -17 1 -49t1 -48q-5 -5 -18 -5q-12 0 -12 7q-3 56 -26 71t-73 15h-54q-71 0 -76 -13q-11 -30 -18 -67l-32 -175
q0 -3 2.5 -4.5t8.5 -2l12 -1t14 -0.5h45q66 0 82 9.5t39 61.5q3 7 14 7q12 0 15 -5l-37 -192q-6 -4 -14 -4q-13 0 -14 8q-1 27 -4 40.5t-4.5 16t-6.5 6.5q-10 8 -97 8q-66 0 -68 -9l-29 -148q-11 -53 -11 -87q0 -15 8 -18t53 -3h45q87 0 121 17q16 8 37.5 35.5t40.5 65.5
q3 6 15 6q17 0 21 -6q-70 -130 -82 -166q-53 0 -164.5 3t-151.5 3l-111 -5q-1 1 -1 8q0 19 5 19q11 0 37 8t30 17q14 29 26 93l72 372q13 71 11 93q-1 8 -23 16t-33 8q-2 0 -2 4q0 16 7 23q46 -2 107 -2z" />
    <glyph glyph-name="Eacute" unicode="&#xc9;" horiz-adv-x="519" 
d="M333 711q-13 0 -13 10q0 6 38 38.5t61 47.5q6 2 17 2q27 0 42.5 -7.5t15.5 -16.5q0 -17 -71 -45.5t-90 -28.5zM261 656q41 0 141 4t152 4q-1 -14 -1 -39q0 -17 1 -49t1 -48q-5 -5 -18 -5q-12 0 -12 7q-3 56 -26 71t-73 15h-54q-71 0 -76 -13q-11 -30 -18 -67l-32 -175
q0 -3 2.5 -4.5t8.5 -2l12 -1t14 -0.5h45q66 0 82 9.5t39 61.5q3 7 14 7q12 0 15 -5l-37 -192q-6 -4 -14 -4q-13 0 -14 8q-1 27 -4 40.5t-4.5 16t-6.5 6.5q-10 8 -97 8q-66 0 -68 -9l-29 -148q-11 -53 -11 -87q0 -15 8 -18t53 -3h45q87 0 121 17q16 8 37.5 35.5t40.5 65.5
q3 6 15 6q17 0 21 -6q-70 -130 -82 -166q-53 0 -164.5 3t-151.5 3l-111 -5q-1 1 -1 8q0 19 5 19q11 0 37 8t30 17q14 29 26 93l72 372q13 71 11 93q-1 8 -23 16t-33 8q-2 0 -2 4q0 16 7 23q46 -2 107 -2z" />
    <glyph glyph-name="Ecircumflex" unicode="&#xca;" horiz-adv-x="519" 
d="M497 728q-19 0 -99 58q-30 -18 -72 -38t-51 -20q-11 0 -6 20q4 4 15.5 12t29.5 20.5t32 23.5q34 24 55 46q9 8 13 8q8 0 11 -8q18 -32 32 -48q11 -12 25 -25.5t22 -20.5t8 -8q-5 -20 -15 -20zM261 656q41 0 141 4t152 4q-1 -14 -1 -39q0 -17 1 -49t1 -48q-5 -5 -18 -5
q-12 0 -12 7q-3 56 -26 71t-73 15h-54q-71 0 -76 -13q-11 -30 -18 -67l-32 -175q0 -3 2.5 -4.5t8.5 -2l12 -1t14 -0.5h45q66 0 82 9.5t39 61.5q3 7 14 7q12 0 15 -5l-37 -192q-6 -4 -14 -4q-13 0 -14 8q-1 27 -4 40.5t-4.5 16t-6.5 6.5q-10 8 -97 8q-66 0 -68 -9l-29 -148
q-11 -53 -11 -87q0 -15 8 -18t53 -3h45q87 0 121 17q16 8 37.5 35.5t40.5 65.5q3 6 15 6q17 0 21 -6q-70 -130 -82 -166q-53 0 -164.5 3t-151.5 3l-111 -5q-1 1 -1 8q0 19 5 19q11 0 37 8t30 17q14 29 26 93l72 372q13 71 11 93q-1 8 -23 16t-33 8q-2 0 -2 4q0 16 7 23
q46 -2 107 -2z" />
    <glyph glyph-name="Edieresis" unicode="&#xcb;" horiz-adv-x="519" 
d="M416 778q4 21 20 35.5t36 14.5q19 0 30 -14.5t7 -35.5t-20 -35.5t-36 -14.5q-19 0 -30 14.5t-7 35.5zM248 778q4 21 20 35.5t36 14.5q19 0 30 -14.5t7 -35.5t-20.5 -35.5t-36.5 -14.5q-19 0 -29.5 14.5t-6.5 35.5zM261 656q41 0 141 4t152 4q-1 -14 -1 -39q0 -17 1 -49
t1 -48q-5 -5 -18 -5q-12 0 -12 7q-3 56 -26 71t-73 15h-54q-71 0 -76 -13q-11 -30 -18 -67l-32 -175q0 -3 2.5 -4.5t8.5 -2l12 -1t14 -0.5h45q66 0 82 9.5t39 61.5q3 7 14 7q12 0 15 -5l-37 -192q-6 -4 -14 -4q-13 0 -14 8q-1 27 -4 40.5t-4.5 16t-6.5 6.5q-10 8 -97 8
q-66 0 -68 -9l-29 -148q-11 -53 -11 -87q0 -15 8 -18t53 -3h45q87 0 121 17q16 8 37.5 35.5t40.5 65.5q3 6 15 6q17 0 21 -6q-70 -130 -82 -166q-53 0 -164.5 3t-151.5 3l-111 -5q-1 1 -1 8q0 19 5 19q11 0 37 8t30 17q14 29 26 93l72 372q13 71 11 93q-1 8 -23 16t-33 8
q-2 0 -2 4q0 16 7 23q46 -2 107 -2z" />
    <glyph glyph-name="Igrave" unicode="&#xcc;" horiz-adv-x="263" 
d="M269 710q-19 0 -90 28.5t-71 45.5q0 9 15.5 16.5t42.5 7.5q11 0 17 -2q23 -15 61 -47.5t38 -38.5q0 -10 -13 -10zM272 515l-71 -376q-11 -55 -11 -90q0 -8 13.5 -14.5t26.5 -8.5l14 -2q2 0 2 -4q0 -11 -6 -23q-92 5 -104 5q-2 0 -110 -5q-2 2 -2 8q0 19 7 19q12 0 36 6.5
t28 15.5q15 34 26 96l71 370q11 55 11 92q0 11 -21.5 19t-34.5 8q-2 0 -2 5q0 14 8 22q12 -1 47.5 -3.5t60.5 -2.5q24 0 61.5 3t44.5 3v-3q0 -24 -7 -24q-8 0 -33.5 -8t-28.5 -15q-13 -28 -26 -93z" />
    <glyph glyph-name="Iacute" unicode="&#xcd;" horiz-adv-x="263" 
d="M227 711q-13 0 -13 10q0 6 38 38.5t61 47.5q6 2 17 2q27 0 42.5 -7.5t15.5 -16.5q0 -17 -71 -45.5t-90 -28.5zM272 515l-71 -376q-11 -55 -11 -90q0 -8 13.5 -14.5t26.5 -8.5l14 -2q2 0 2 -4q0 -11 -6 -23q-92 5 -104 5q-2 0 -110 -5q-2 2 -2 8q0 19 7 19q12 0 36 6.5
t28 15.5q15 34 26 96l71 370q11 55 11 92q0 11 -21.5 19t-34.5 8q-2 0 -2 5q0 14 8 22q12 -1 47.5 -3.5t60.5 -2.5q24 0 61.5 3t44.5 3v-3q0 -24 -7 -24q-8 0 -33.5 -8t-28.5 -15q-13 -28 -26 -93z" />
    <glyph glyph-name="Icircumflex" unicode="&#xce;" horiz-adv-x="263" 
d="M384 728q-19 0 -99 58q-30 -18 -72 -38t-51 -20q-11 0 -6 20q4 4 15.5 12t29.5 20.5t32 23.5q34 24 55 46q9 8 13 8q8 0 11 -8q18 -32 32 -48q11 -12 25 -25.5t22 -20.5t8 -8q-5 -20 -15 -20zM272 515l-71 -376q-11 -55 -11 -90q0 -8 13.5 -14.5t26.5 -8.5l14 -2
q2 0 2 -4q0 -11 -6 -23q-92 5 -104 5q-2 0 -110 -5q-2 2 -2 8q0 19 7 19q12 0 36 6.5t28 15.5q15 34 26 96l71 370q11 55 11 92q0 11 -21.5 19t-34.5 8q-2 0 -2 5q0 14 8 22q12 -1 47.5 -3.5t60.5 -2.5q24 0 61.5 3t44.5 3v-3q0 -24 -7 -24q-8 0 -33.5 -8t-28.5 -15
q-13 -28 -26 -93z" />
    <glyph glyph-name="Idieresis" unicode="&#xcf;" horiz-adv-x="263" 
d="M372 837q15 0 26 -12t11 -28q0 -24 -15.5 -42t-38.5 -18q-16 0 -25 13t-9 31q0 23 14.5 39.5t36.5 16.5zM203 837q15 0 26 -12t11 -28q0 -24 -15.5 -42t-38.5 -18q-16 0 -25 13t-9 31q0 23 14.5 39.5t36.5 16.5zM272 515l-71 -376q-11 -55 -11 -90q0 -8 13.5 -14.5
t26.5 -8.5l14 -2q2 0 2 -4q0 -11 -6 -23q-92 5 -104 5q-2 0 -110 -5q-2 2 -2 8q0 19 7 19q12 0 36 6.5t28 15.5q15 34 26 96l71 370q11 55 11 92q0 11 -21.5 19t-34.5 8q-2 0 -2 5q0 14 8 22q12 -1 47.5 -3.5t60.5 -2.5q24 0 61.5 3t44.5 3v-3q0 -24 -7 -24q-8 0 -33.5 -8
t-28.5 -15q-13 -28 -26 -93z" />
    <glyph glyph-name="Eth" unicode="&#xd0;" horiz-adv-x="659" 
d="M420 663q67 0 118.5 -20.5t83 -56t47 -80t15.5 -96.5q0 -51 -15 -106t-47.5 -109t-77.5 -97t-111 -69.5t-143 -26.5q-18 0 -71 2.5t-87 2.5q-27 0 -55 -1t-42 -3l-14 -1q-1 1 -1 8q0 19 5 19q11 0 37 8.5t30 16.5q14 29 26 93l72 372q13 72 11 93q-1 8 -23 16t-33 8
q-2 0 -2 4q0 16 7 23q46 -2 107 -2q35 0 90 1t73 1zM418 619q-10 0 -30 -0.5t-52.5 -4.5t-37.5 -11q-8 -10 -14 -25t-7 -21.5t-6 -32.5l-73 -380q-3 -14 -3 -42.5t2 -33.5q4 -8 31.5 -13t48.5 -6t36 -1q84 0 150 54.5t99.5 138.5t33.5 178q0 88 -44 144t-134 56zM101 353
h345q6 0 6 -10q0 -16 -6 -30h-346q-5 0 -5 13q0 18 6 27z" />
    <glyph glyph-name="Ntilde" unicode="&#xd1;" horiz-adv-x="663" 
d="M327 737q-7 0 -3 17q3 16 23 38q39 40 80 40q31 0 75 -26.5t75 -26.5q11 0 27.5 11t28.5 22t13 11q7 0 3 -17q-3 -16 -23 -39q-36 -39 -78 -39q-32 0 -75.5 26.5t-75.5 26.5q-15 0 -42 -22t-28 -22zM257 654q18 0 94 4q15 -59 73 -196.5t119 -258.5q7 20 11 41l51 269
q13 65 13 92q0 12 -27.5 19t-42.5 7q-2 0 -2 7q0 15 7 20q103 -5 105 -5q14 0 109 5q0 -27 -6 -27q-10 0 -42.5 -7.5t-35.5 -14.5q-13 -32 -25 -93l-75 -380q-6 -31 -14 -80t-10 -60q-4 -4 -10 -4q-14 0 -26 23q-1 2 -246 566l-89 -440q-10 -49 -10 -89q0 -8 16 -15t32 -10
l17 -3q2 0 2 -5q0 -12 -5 -22q-92 5 -104 5q-2 0 -110 -5q-2 2 -2 8q0 19 7 19q12 0 42.5 8t34.5 16q11 22 27 96l77 372q9 44 9 90q0 12 -26 18.5t-42 6.5q-2 0 -2 7q0 15 7 20q78 -4 99 -4z" />
    <glyph glyph-name="Ograve" unicode="&#xd2;" horiz-adv-x="624" 
d="M454 710q-19 0 -90 28.5t-71 45.5q0 9 15.5 16.5t42.5 7.5q11 0 17 -2q23 -15 61 -47.5t38 -38.5q0 -10 -13 -10zM409 625q-108 0 -183 -111.5t-75 -246.5q0 -102 44.5 -168t126.5 -66q104 0 180 113.5t76 248.5q0 100 -44 165t-125 65zM432 667q101 0 169.5 -75.5
t68.5 -182.5q0 -108 -51.5 -205t-138.5 -155.5t-184 -58.5q-107 0 -171.5 76.5t-64.5 192.5q0 104 55 199.5t141 152t176 56.5z" />
    <glyph glyph-name="Oacute" unicode="&#xd3;" horiz-adv-x="624" 
d="M388 711q-13 0 -13 10q0 6 38 38.5t61 47.5q6 2 17 2q27 0 42.5 -7.5t15.5 -16.5q0 -17 -71 -45.5t-90 -28.5zM409 625q-108 0 -183 -111.5t-75 -246.5q0 -102 44.5 -168t126.5 -66q104 0 180 113.5t76 248.5q0 100 -44 165t-125 65zM432 667q101 0 169.5 -75.5
t68.5 -182.5q0 -108 -51.5 -205t-138.5 -155.5t-184 -58.5q-107 0 -171.5 76.5t-64.5 192.5q0 104 55 199.5t141 152t176 56.5z" />
    <glyph glyph-name="Ocircumflex" unicode="&#xd4;" horiz-adv-x="624" 
d="M554 728q-19 0 -99 58q-30 -18 -72 -38t-51 -20q-11 0 -6 20q4 4 15.5 12t29.5 20.5t32 23.5q34 24 55 46q9 8 13 8q8 0 11 -8q18 -32 32 -48q11 -12 25 -25.5t22 -20.5t8 -8q-5 -20 -15 -20zM409 625q-108 0 -183 -111.5t-75 -246.5q0 -102 44.5 -168t126.5 -66
q104 0 180 113.5t76 248.5q0 100 -44 165t-125 65zM432 667q101 0 169.5 -75.5t68.5 -182.5q0 -108 -51.5 -205t-138.5 -155.5t-184 -58.5q-107 0 -171.5 76.5t-64.5 192.5q0 104 55 199.5t141 152t176 56.5z" />
    <glyph glyph-name="Otilde" unicode="&#xd5;" horiz-adv-x="624" 
d="M295 737q-7 0 -3 17q3 16 23 38q39 40 80 40q31 0 75 -26.5t75 -26.5q11 0 27.5 11t28.5 22t13 11q7 0 3 -17q-3 -16 -23 -39q-36 -39 -78 -39q-32 0 -75.5 26.5t-75.5 26.5q-15 0 -42 -22t-28 -22zM409 625q-108 0 -183 -111.5t-75 -246.5q0 -102 44.5 -168t126.5 -66
q104 0 180 113.5t76 248.5q0 100 -44 165t-125 65zM432 667q101 0 169.5 -75.5t68.5 -182.5q0 -108 -51.5 -205t-138.5 -155.5t-184 -58.5q-107 0 -171.5 76.5t-64.5 192.5q0 104 55 199.5t141 152t176 56.5z" />
    <glyph glyph-name="Odieresis" unicode="&#xd6;" horiz-adv-x="624" 
d="M491 778q4 21 20 35.5t36 14.5q19 0 30 -14.5t7 -35.5t-20 -35.5t-36 -14.5q-19 0 -30 14.5t-7 35.5zM323 778q4 21 20 35.5t36 14.5q19 0 30 -14.5t7 -35.5t-20.5 -35.5t-36.5 -14.5q-19 0 -29.5 14.5t-6.5 35.5zM409 625q-108 0 -183 -111.5t-75 -246.5
q0 -102 44.5 -168t126.5 -66q104 0 180 113.5t76 248.5q0 100 -44 165t-125 65zM432 667q101 0 169.5 -75.5t68.5 -182.5q0 -108 -51.5 -205t-138.5 -155.5t-184 -58.5q-107 0 -171.5 76.5t-64.5 192.5q0 104 55 199.5t141 152t176 56.5z" />
    <glyph glyph-name="multiply" unicode="&#xd7;" horiz-adv-x="394" 
d="M24 60q-4 0 -10.5 18t-6.5 30l154 135q2 2 2 3q0 4 -1 5l-101 137q0 9 16.5 28t21.5 19l4 -4l104 -141q2 -2 4 -2q1 0 2 1l158 141q3 3 6 3q5 0 11 -17.5t6 -31.5l-153 -136l-2 -2q0 -1 1 -2l100 -136q0 -10 -13.5 -29t-19.5 -19q-5 0 -7 3l-103 140q-2 2 -3 2
q-2 0 -4 -2l-161 -140q-3 -3 -5 -3z" />
    <glyph glyph-name="Oslash" unicode="&#xd8;" horiz-adv-x="646" 
d="M137 -13q-7 3 -16 11t-6 12l516 657q7 -2 16.5 -10t6.5 -12zM430 625q-88 0 -155.5 -83t-88.5 -192q-13 -58 -8 -115t21.5 -102t54 -72.5t89.5 -27.5q89 0 156.5 83t88.5 193q13 58 8 114.5t-22 101.5t-54.5 72.5t-89.5 27.5zM89 328q27 140 133.5 239.5t229.5 99.5
t191 -99.5t41 -239.5t-134 -239t-230 -99t-190.5 99t-40.5 239z" />
    <glyph glyph-name="Ugrave" unicode="&#xd9;" horiz-adv-x="631" 
d="M437 710q-19 0 -90 28.5t-71 45.5q0 9 15.5 16.5t42.5 7.5q11 0 17 -2q23 -15 61 -47.5t38 -38.5q0 -10 -13 -10zM173 512q11 57 11 92q0 11 -21.5 19t-34.5 8q-2 0 -2 5q0 14 8 22q12 -1 47.5 -3.5t60.5 -2.5q24 0 61.5 3t44.5 3v-3q0 -24 -7 -24q-8 0 -33.5 -8
t-28.5 -15q-13 -28 -26 -93l-41 -217q-8 -44 -8 -85q0 -77 33 -120.5t98 -43.5q163 0 205 225l44 238q12 70 12 90q0 12 -29 20.5t-46 8.5q-2 0 -2 6q0 16 7 21q12 -1 48 -3.5t60 -2.5q19 0 36.5 1t37.5 2.5t33 2.5q0 -27 -7 -27q-8 0 -39 -8t-36 -15q-8 -10 -27 -98
l-45 -234q-31 -159 -96 -217.5t-187 -58.5q-87 0 -135.5 53t-48.5 153q0 37 14 106z" />
    <glyph glyph-name="Uacute" unicode="&#xda;" horiz-adv-x="631" 
d="M412 711q-13 0 -13 10q0 6 38 38.5t61 47.5q6 2 17 2q27 0 42.5 -7.5t15.5 -16.5q0 -17 -71 -45.5t-90 -28.5zM173 512q11 57 11 92q0 11 -21.5 19t-34.5 8q-2 0 -2 5q0 14 8 22q12 -1 47.5 -3.5t60.5 -2.5q24 0 61.5 3t44.5 3v-3q0 -24 -7 -24q-8 0 -33.5 -8t-28.5 -15
q-13 -28 -26 -93l-41 -217q-8 -44 -8 -85q0 -77 33 -120.5t98 -43.5q163 0 205 225l44 238q12 70 12 90q0 12 -29 20.5t-46 8.5q-2 0 -2 6q0 16 7 21q12 -1 48 -3.5t60 -2.5q19 0 36.5 1t37.5 2.5t33 2.5q0 -27 -7 -27q-8 0 -39 -8t-36 -15q-8 -10 -27 -98l-45 -234
q-31 -159 -96 -217.5t-187 -58.5q-87 0 -135.5 53t-48.5 153q0 37 14 106z" />
    <glyph glyph-name="Ucircumflex" unicode="&#xdb;" horiz-adv-x="631" 
d="M568 728q-19 0 -99 58q-30 -18 -72 -38t-51 -20q-11 0 -6 20q4 4 15.5 12t29.5 20.5t32 23.5q34 24 55 46q9 8 13 8q8 0 11 -8q18 -32 32 -48q11 -12 25 -25.5t22 -20.5t8 -8q-5 -20 -15 -20zM173 512q11 57 11 92q0 11 -21.5 19t-34.5 8q-2 0 -2 5q0 14 8 22
q12 -1 47.5 -3.5t60.5 -2.5q24 0 61.5 3t44.5 3v-3q0 -24 -7 -24q-8 0 -33.5 -8t-28.5 -15q-13 -28 -26 -93l-41 -217q-8 -44 -8 -85q0 -77 33 -120.5t98 -43.5q163 0 205 225l44 238q12 70 12 90q0 12 -29 20.5t-46 8.5q-2 0 -2 6q0 16 7 21q12 -1 48 -3.5t60 -2.5
q19 0 36.5 1t37.5 2.5t33 2.5q0 -27 -7 -27q-8 0 -39 -8t-36 -15q-8 -10 -27 -98l-45 -234q-31 -159 -96 -217.5t-187 -58.5q-87 0 -135.5 53t-48.5 153q0 37 14 106z" />
    <glyph glyph-name="Udieresis" unicode="&#xdc;" horiz-adv-x="631" 
d="M490 778q4 21 20 35.5t36 14.5q19 0 30 -14.5t7 -35.5t-20 -35.5t-36 -14.5q-19 0 -30 14.5t-7 35.5zM322 778q4 21 20 35.5t36 14.5q19 0 30 -14.5t7 -35.5t-20.5 -35.5t-36.5 -14.5q-19 0 -29.5 14.5t-6.5 35.5zM173 512q11 57 11 92q0 11 -21.5 19t-34.5 8q-2 0 -2 5
q0 14 8 22q12 -1 47.5 -3.5t60.5 -2.5q24 0 61.5 3t44.5 3v-3q0 -24 -7 -24q-8 0 -33.5 -8t-28.5 -15q-13 -28 -26 -93l-41 -217q-8 -44 -8 -85q0 -77 33 -120.5t98 -43.5q163 0 205 225l44 238q12 70 12 90q0 12 -29 20.5t-46 8.5q-2 0 -2 6q0 16 7 21q12 -1 48 -3.5
t60 -2.5q19 0 36.5 1t37.5 2.5t33 2.5q0 -27 -7 -27q-8 0 -39 -8t-36 -15q-8 -10 -27 -98l-45 -234q-31 -159 -96 -217.5t-187 -58.5q-87 0 -135.5 53t-48.5 153q0 37 14 106z" />
    <glyph glyph-name="Yacute" unicode="&#xdd;" horiz-adv-x="593" 
d="M427 711q-13 0 -13 10q0 6 38 38.5t61 47.5q6 2 17 2q27 0 42.5 -7.5t15.5 -16.5q0 -17 -71 -45.5t-90 -28.5zM244 652q10 0 124 6v-5q0 -22 -7 -22q-15 0 -39 -10.5t-24 -31.5q0 -10 4 -22l69 -212q13 17 45.5 59t50 65.5t39.5 53.5t32 46t10 21q-1 13 -21.5 22t-40.5 9
q-2 0 -2 6q0 16 7 21q8 0 40 -3t52 -3q5 0 119 6q1 -2 1 -5q0 -22 -7 -22q-10 0 -39.5 -9.5t-41.5 -21.5t-120.5 -158.5t-110.5 -156.5l-28 -146q-11 -55 -11 -90q0 -8 13.5 -14.5t27.5 -8.5l13 -2q2 0 2 -4q0 -11 -6 -23q-93 5 -104 5q-3 0 -111 -5q-1 1 -1 7q0 20 7 20
q11 0 35 7t29 15q12 21 25 90l26 142q1 4 -20 70.5t-43 131.5l-21 65q-15 46 -39 64q-10 7 -29 14.5t-27 7.5q-2 0 -2 5q0 17 7 22q12 -1 51 -3.5t66 -2.5z" />
    <glyph glyph-name="Thorn" unicode="&#xde;" horiz-adv-x="515" 
d="M389 511q31 0 60.5 -10t55 -30t37 -57t1.5 -86q-13 -67 -77 -133.5t-152 -66.5q-53 0 -66 28q-4 7 2 23q1 4 3 3q26 -11 60 -11q46 0 88 42t53 100q29 154 -88 154q-46 0 -66 -7q-13 -4 -19 -37l-55 -284q-11 -58 -10 -93q1 -7 24 -13.5t32 -6.5q4 0 1 -15q-2 -9 -5 -14
q-92 5 -107 5q-5 0 -112 -5q-3 5 -1 15q2 14 6 14q12 0 36.5 6t29.5 14q15 34 24 89l76 388q11 66 10 89q-1 8 -23.5 14.5t-34.5 6.5q-3 0 -1 13q2 11 7 16q105 -5 111 -5q13 0 108 5q0 -10 -1 -15q-2 -14 -6 -14q-9 0 -35 -7t-29 -14q-14 -33 -25 -88q-1 -5 -2.5 -11.5
t-1.5 -8.5q-1 -7 2 -7q2 0 13 3.5t32 7t45 3.5z" />
    <glyph glyph-name="germandbls" unicode="&#xdf;" horiz-adv-x="495" 
d="M164 407q4 0 10 29.5t17.5 71.5t30 84.5t56 72t87.5 29.5q61 0 108 -29t47 -84q0 -31 -12.5 -58t-36.5 -49t-37 -31.5t-35 -23.5q-7 -4 -23.5 -13.5t-24 -14.5t-15 -15.5t-7.5 -23.5q0 -6 1.5 -11.5t5.5 -11t7 -9.5t10 -10.5t10.5 -9.5t12 -10t11.5 -10q6 -5 25 -21
t24 -21t17 -18t15.5 -21.5t7.5 -22.5t4 -29q0 -60 -40.5 -103.5t-99.5 -43.5q-42 0 -75 14t-37 28q9 58 44 58q10 0 17.5 -10.5t12 -23.5t15.5 -23.5t26 -10.5q27 0 44.5 19.5t22.5 38.5t5 35q0 13 -4 25.5t-14.5 24.5t-16.5 18.5t-21.5 19.5t-18.5 16q-5 4 -19.5 16
t-19.5 17.5t-14 16t-12 21.5t-3 24q0 31 16.5 50t73.5 61q82 62 82 154q0 33 -23.5 50t-64.5 17q-32 0 -59.5 -45.5t-38.5 -90.5l-11 -46l-82 -428q-28 -149 -69 -214.5t-103 -65.5q-36 0 -56.5 13.5t-26.5 29.5q7 58 39 58q9 0 15.5 -9.5t10 -21.5t13 -21.5t24.5 -9.5
q14 0 27 18t21.5 47t16 61.5t13.5 65.5q1 8 2 12l65 345v2q0 5 -3 5h-65q-2 0 -2 3q0 9 16 26t32 17h29z" />
    <glyph glyph-name="agrave" unicode="&#xe0;" horiz-adv-x="440" 
d="M352 496q-16 0 -90 47.5t-74 68.5q0 15 16.5 21.5t32.5 6.5q15 0 20 -5q2 -2 15.5 -16t28 -29.5t29.5 -32.5t25 -29t10 -14q0 -6 -4.5 -12t-8.5 -6zM352 435q38 0 73 -13l-61 -316q-3 -12 -3 -25q0 -25 10 -25q6 0 14.5 5.5t17 13.5t15.5 15.5t13 13.5l6 7q2 0 7.5 -9.5
t5.5 -13.5q-13 -22 -54 -58t-72 -36q-16 0 -25 14.5t-9 37.5q0 17 7 53q2 11 3.5 17.5t1.5 8.5q-10 -18 -23 -36.5t-33 -41.5t-42.5 -37.5t-42.5 -14.5q-44 0 -69.5 39.5t-25.5 95.5q0 71 42.5 142.5t109.5 117t134 45.5zM310 389q-59 0 -114.5 -76.5t-55.5 -161.5
q0 -98 51 -98q36 0 80.5 73t59.5 148l20 102q-12 13 -41 13z" />
    <glyph glyph-name="aacute" unicode="&#xe1;" horiz-adv-x="440" 
d="M268 496q-2 0 -4.5 4t-2.5 8q0 7 42.5 55t72.5 71q8 5 26 5q39 0 39 -24q0 -22 -80.5 -70.5t-92.5 -48.5zM352 435q38 0 73 -13l-61 -316q-3 -12 -3 -25q0 -25 10 -25q6 0 14.5 5.5t17 13.5t15.5 15.5t13 13.5l6 7q2 0 7.5 -9.5t5.5 -13.5q-13 -22 -54 -58t-72 -36
q-16 0 -25 14.5t-9 37.5q0 17 7 53q2 11 3.5 17.5t1.5 8.5q-10 -18 -23 -36.5t-33 -41.5t-42.5 -37.5t-42.5 -14.5q-44 0 -69.5 39.5t-25.5 95.5q0 71 42.5 142.5t109.5 117t134 45.5zM310 389q-59 0 -114.5 -76.5t-55.5 -161.5q0 -98 51 -98q36 0 80.5 73t59.5 148l20 102
q-12 13 -41 13z" />
    <glyph glyph-name="acircumflex" unicode="&#xe2;" horiz-adv-x="440" 
d="M413 496q-17 0 -86 58q-26 -18 -62.5 -38t-44.5 -20q-5 0 -6 7.5t0 12.5l62 51q37 30 54 51q9 9 11 9q3 0 9 -9q24 -39 28 -44q9 -12 21.5 -26.5t19.5 -22.5t7 -9q-5 -20 -13 -20zM352 435q38 0 73 -13l-61 -316q-3 -12 -3 -25q0 -25 10 -25q6 0 14.5 5.5t17 13.5
t15.5 15.5t13 13.5l6 7q2 0 7.5 -9.5t5.5 -13.5q-13 -22 -54 -58t-72 -36q-16 0 -25 14.5t-9 37.5q0 17 7 53q2 11 3.5 17.5t1.5 8.5q-10 -18 -23 -36.5t-33 -41.5t-42.5 -37.5t-42.5 -14.5q-44 0 -69.5 39.5t-25.5 95.5q0 71 42.5 142.5t109.5 117t134 45.5zM310 389
q-59 0 -114.5 -76.5t-55.5 -161.5q0 -98 51 -98q36 0 80.5 73t59.5 148l20 102q-12 13 -41 13z" />
    <glyph glyph-name="atilde" unicode="&#xe3;" horiz-adv-x="440" 
d="M264 600q28 0 66 -26.5t66 -26.5q10 0 24 11t24.5 22t11.5 11q4 0 4 -9q0 -23 -26.5 -54.5t-63.5 -31.5q-28 0 -66.5 26.5t-66.5 26.5q-14 0 -37 -22t-24 -22q-5 0 -5 6q0 25 28.5 57t64.5 32zM352 435q38 0 73 -13l-61 -316q-3 -12 -3 -25q0 -25 10 -25q6 0 14.5 5.5
t17 13.5t15.5 15.5t13 13.5l6 7q2 0 7.5 -9.5t5.5 -13.5q-13 -22 -54 -58t-72 -36q-16 0 -25 14.5t-9 37.5q0 17 7 53q2 11 3.5 17.5t1.5 8.5q-10 -18 -23 -36.5t-33 -41.5t-42.5 -37.5t-42.5 -14.5q-44 0 -69.5 39.5t-25.5 95.5q0 71 42.5 142.5t109.5 117t134 45.5z
M310 389q-59 0 -114.5 -76.5t-55.5 -161.5q0 -98 51 -98q36 0 80.5 73t59.5 148l20 102q-12 13 -41 13z" />
    <glyph glyph-name="adieresis" unicode="&#xe4;" horiz-adv-x="440" 
d="M401 607q15 0 26 -12t11 -28q0 -24 -15.5 -42t-38.5 -18q-16 0 -25 13t-9 31q0 23 14.5 39.5t36.5 16.5zM232 607q15 0 26 -12t11 -28q0 -24 -15.5 -42t-38.5 -18q-16 0 -25 13t-9 31q0 23 14.5 39.5t36.5 16.5zM352 435q38 0 73 -13l-61 -316q-3 -12 -3 -25
q0 -25 10 -25q6 0 14.5 5.5t17 13.5t15.5 15.5t13 13.5l6 7q2 0 7.5 -9.5t5.5 -13.5q-13 -22 -54 -58t-72 -36q-16 0 -25 14.5t-9 37.5q0 17 7 53q2 11 3.5 17.5t1.5 8.5q-10 -18 -23 -36.5t-33 -41.5t-42.5 -37.5t-42.5 -14.5q-44 0 -69.5 39.5t-25.5 95.5q0 71 42.5 142.5
t109.5 117t134 45.5zM310 389q-59 0 -114.5 -76.5t-55.5 -161.5q0 -98 51 -98q36 0 80.5 73t59.5 148l20 102q-12 13 -41 13z" />
    <glyph glyph-name="aring" unicode="&#xe5;" horiz-adv-x="440" 
d="M274 586q-4 -23 7.5 -39.5t32.5 -16.5t39.5 16.5t22.5 39.5t-7.5 39t-32.5 16t-39.5 -16t-22.5 -39zM243 586q7 37 36.5 63t63.5 26t52.5 -26t10.5 -63t-36.5 -63.5t-61.5 -26.5q-34 0 -53 26.5t-12 63.5zM352 435q38 0 73 -13l-61 -316q-3 -12 -3 -25q0 -25 10 -25
q6 0 14.5 5.5t17 13.5t15.5 15.5t13 13.5l6 7q2 0 7.5 -9.5t5.5 -13.5q-13 -22 -54 -58t-72 -36q-16 0 -25 14.5t-9 37.5q0 17 7 53q2 11 3.5 17.5t1.5 8.5q-10 -18 -23 -36.5t-33 -41.5t-42.5 -37.5t-42.5 -14.5q-44 0 -69.5 39.5t-25.5 95.5q0 71 42.5 142.5t109.5 117
t134 45.5zM310 389q-59 0 -114.5 -76.5t-55.5 -161.5q0 -98 51 -98q36 0 80.5 73t59.5 148l20 102q-12 13 -41 13z" />
    <glyph glyph-name="ae" unicode="&#xe6;" horiz-adv-x="560" 
d="M484 435q70 0 70 -79q0 -57 -80.5 -105t-136.5 -48q-11 0 -11 -19q0 -65 22 -96.5t55 -31.5q20 0 42 17t36 34t15 17t3 -3.5t4.5 -9t2.5 -9.5q-8 -24 -50 -65t-82 -41q-31 0 -61.5 23t-43.5 56q-17 -33 -49.5 -57.5t-81.5 -24.5q-36 0 -67 19t-31 53q0 41 23.5 74.5
t60.5 53.5t69 31t64 17q8 2 11 16l17 83q1 3 1 16q0 18 -14 30t-33 12q-26 0 -48 -23t-29 -59q-6 -34 -49 -34q-26 0 -26 13q0 38 63.5 89.5t125.5 51.5q72 0 78 -55q57 54 130 54zM248 145l8 46q-45 -8 -75 -22.5t-42 -30.5t-16 -26.5t-4 -21.5q0 -21 12 -35.5t31 -14.5
q35 0 57 33.5t29 71.5zM460 394q-42 0 -84 -50t-42 -89q0 -6 7 -6q23 0 55 10.5t60.5 35.5t28.5 57q0 42 -25 42z" />
    <glyph glyph-name="ccedilla" unicode="&#xe7;" horiz-adv-x="326" 
d="M176 1h19l-20 -23h22q15 0 24 -11t9 -27q0 -31 -28.5 -59t-75.5 -28q-18 0 -29 9v9q0 10 5.5 14.5t9.5 4.5q5 0 14.5 -6.5t17.5 -6.5q20 0 34 11.5t14 29.5q0 13 -7 19.5t-17 6.5q-7 0 -25 -7q-2 0 -4.5 4t-2.5 7q0 2 4.5 7.5t15 18.5t20.5 27zM290 435q47 0 87 -34
q3 -12 3 -20q0 -19 -9.5 -31t-25.5 -12t-33 28t-34 28q-43 0 -89.5 -69.5t-46.5 -162.5q0 -106 66 -106q8 0 15.5 2t14.5 5t14 6.5t13 8.5t11.5 9t10 8.5t7 7.5t4.5 5l3 3q2 0 7.5 -9.5t5.5 -13.5q-14 -24 -56 -59t-83 -35q-52 0 -79.5 40.5t-27.5 111.5q0 96 73 192.5
t149 96.5z" />
    <glyph glyph-name="egrave" unicode="&#xe8;" horiz-adv-x="359" 
d="M309 496q-16 0 -90 47.5t-74 68.5q0 15 16.5 21.5t32.5 6.5q15 0 20 -5q2 -2 15.5 -16t28 -29.5t29.5 -32.5t25 -29t10 -14q0 -6 -4.5 -12t-8.5 -6zM292 435q46 0 66.5 -23.5t20.5 -51.5q0 -44 -45 -87t-98.5 -66.5t-86.5 -23.5q-4 0 -4 -35q0 -45 17.5 -68.5t47.5 -23.5
q8 0 15.5 2t14.5 5t14 6.5t13 8.5t11.5 9t10 8.5t7 7.5t4.5 5l3 3q2 0 7.5 -9.5t5.5 -13.5q-14 -24 -56 -59t-83 -35q-52 0 -79.5 40.5t-27.5 111.5q0 96 73 192.5t149 96.5zM282 394q-47 0 -88.5 -67.5t-41.5 -104.5q0 -4 4 -4q36 0 93.5 48t57.5 98q0 30 -25 30z" />
    <glyph glyph-name="eacute" unicode="&#xe9;" horiz-adv-x="359" 
d="M309 496q-2 0 -4.5 4t-2.5 8q0 7 42.5 55t72.5 71q8 5 26 5q39 0 39 -24q0 -22 -80.5 -70.5t-92.5 -48.5zM292 435q46 0 66.5 -23.5t20.5 -51.5q0 -44 -45 -87t-98.5 -66.5t-86.5 -23.5q-4 0 -4 -35q0 -45 17.5 -68.5t47.5 -23.5q8 0 15.5 2t14.5 5t14 6.5t13 8.5t11.5 9
t10 8.5t7 7.5t4.5 5l3 3q2 0 7.5 -9.5t5.5 -13.5q-14 -24 -56 -59t-83 -35q-52 0 -79.5 40.5t-27.5 111.5q0 96 73 192.5t149 96.5zM282 394q-47 0 -88.5 -67.5t-41.5 -104.5q0 -4 4 -4q36 0 93.5 48t57.5 98q0 30 -25 30z" />
    <glyph glyph-name="ecircumflex" unicode="&#xea;" horiz-adv-x="359" 
d="M406 496q-17 0 -86 58q-26 -18 -62.5 -38t-44.5 -20q-5 0 -6 7.5t0 12.5l62 51q37 30 54 51q9 9 11 9q3 0 9 -9q24 -39 28 -44q9 -12 21.5 -26.5t19.5 -22.5t7 -9q-5 -20 -13 -20zM292 435q46 0 66.5 -23.5t20.5 -51.5q0 -44 -45 -87t-98.5 -66.5t-86.5 -23.5
q-4 0 -4 -35q0 -45 17.5 -68.5t47.5 -23.5q8 0 15.5 2t14.5 5t14 6.5t13 8.5t11.5 9t10 8.5t7 7.5t4.5 5l3 3q2 0 7.5 -9.5t5.5 -13.5q-14 -24 -56 -59t-83 -35q-52 0 -79.5 40.5t-27.5 111.5q0 96 73 192.5t149 96.5zM282 394q-47 0 -88.5 -67.5t-41.5 -104.5q0 -4 4 -4
q36 0 93.5 48t57.5 98q0 30 -25 30z" />
    <glyph glyph-name="edieresis" unicode="&#xeb;" horiz-adv-x="359" 
d="M362 607q15 0 26 -12t11 -28q0 -24 -15.5 -42t-38.5 -18q-16 0 -25 13t-9 31q0 23 14.5 39.5t36.5 16.5zM193 607q15 0 26 -12t11 -28q0 -24 -15.5 -42t-38.5 -18q-16 0 -25 13t-9 31q0 23 14.5 39.5t36.5 16.5zM292 435q46 0 66.5 -23.5t20.5 -51.5q0 -44 -45 -87
t-98.5 -66.5t-86.5 -23.5q-4 0 -4 -35q0 -45 17.5 -68.5t47.5 -23.5q8 0 15.5 2t14.5 5t14 6.5t13 8.5t11.5 9t10 8.5t7 7.5t4.5 5l3 3q2 0 7.5 -9.5t5.5 -13.5q-14 -24 -56 -59t-83 -35q-52 0 -79.5 40.5t-27.5 111.5q0 96 73 192.5t149 96.5zM282 394q-47 0 -88.5 -67.5
t-41.5 -104.5q0 -4 4 -4q36 0 93.5 48t57.5 98q0 30 -25 30z" />
    <glyph glyph-name="igrave" unicode="&#xec;" horiz-adv-x="216" 
d="M172 496q-16 0 -90 47.5t-74 68.5q0 15 16.5 21.5t32.5 6.5q15 0 20 -5q2 -2 15.5 -16t28 -29.5t29.5 -32.5t25 -29t10 -14q0 -6 -4.5 -12t-8.5 -6zM165 363q0 -25 -23 -143.5t-23 -130.5q0 -37 22 -37q9 0 24.5 18t27.5 36.5t13 18.5t3 -3.5t4.5 -9t2.5 -9.5
q-9 -26 -43 -67.5t-67 -41.5q-56 0 -56 73q0 29 7 61l36 180q3 21 3 28q0 41 -28 41q-10 0 -34 -37l-25 -36q-1 0 -3 3.5t-5 9t-3 9.5q9 26 43 67.5t67 41.5q57 0 57 -72z" />
    <glyph glyph-name="iacute" unicode="&#xed;" horiz-adv-x="216" 
d="M74 496q-2 0 -4.5 4t-2.5 8q0 7 42.5 55t72.5 71q8 5 26 5q39 0 39 -24q0 -22 -80.5 -70.5t-92.5 -48.5zM165 363q0 -25 -23 -143.5t-23 -130.5q0 -37 22 -37q9 0 24.5 18t27.5 36.5t13 18.5t3 -3.5t4.5 -9t2.5 -9.5q-9 -26 -43 -67.5t-67 -41.5q-56 0 -56 73q0 29 7 61
l36 180q3 21 3 28q0 41 -28 41q-10 0 -34 -37l-25 -36q-1 0 -3 3.5t-5 9t-3 9.5q9 26 43 67.5t67 41.5q57 0 57 -72z" />
    <glyph glyph-name="icircumflex" unicode="&#xee;" horiz-adv-x="216" 
d="M227 496q-17 0 -86 58q-26 -18 -62.5 -38t-44.5 -20q-5 0 -6 7.5t0 12.5l62 51q37 30 54 51q9 9 11 9q3 0 9 -9q24 -39 28 -44q9 -12 21.5 -26.5t19.5 -22.5t7 -9q-5 -20 -13 -20zM165 363q0 -25 -23 -143.5t-23 -130.5q0 -37 22 -37q9 0 24.5 18t27.5 36.5t13 18.5
t3 -3.5t4.5 -9t2.5 -9.5q-9 -26 -43 -67.5t-67 -41.5q-56 0 -56 73q0 29 7 61l36 180q3 21 3 28q0 41 -28 41q-10 0 -34 -37l-25 -36q-1 0 -3 3.5t-5 9t-3 9.5q9 26 43 67.5t67 41.5q57 0 57 -72z" />
    <glyph glyph-name="idieresis" unicode="&#xef;" horiz-adv-x="216" 
d="M227 607q15 0 26 -12t11 -28q0 -24 -15.5 -42t-38.5 -18q-16 0 -25 13t-9 31q0 23 14.5 39.5t36.5 16.5zM94 607q15 0 26 -12t11 -28q0 -24 -15.5 -42t-38.5 -18q-16 0 -25 13t-9 31q0 23 14.5 39.5t36.5 16.5zM165 363q0 -25 -23 -143.5t-23 -130.5q0 -37 22 -37
q9 0 24.5 18t27.5 36.5t13 18.5t3 -3.5t4.5 -9t2.5 -9.5q-9 -26 -43 -67.5t-67 -41.5q-56 0 -56 73q0 29 7 61l36 180q3 21 3 28q0 41 -28 41q-10 0 -34 -37l-25 -36q-1 0 -3 3.5t-5 9t-3 9.5q9 26 43 67.5t67 41.5q57 0 57 -72z" />
    <glyph glyph-name="eth" unicode="&#xf0;" horiz-adv-x="384" 
d="M194 509q-15 26 -9 32l250 164q16 -25 10 -31zM182 664q1 6 7 15t11 9q115 -32 181 -148.5t32 -289.5q-22 -112 -79 -184.5t-124 -72.5q-86 0 -120.5 67t-17.5 157q17 86 77 153.5t136 67.5q50 0 68 -31q4 165 -171 257zM334 217q15 74 2 115q-21 66 -69 66
q-42 0 -72 -49t-45 -125q-14 -74 4 -133t57 -59q87 0 123 185z" />
    <glyph glyph-name="ntilde" unicode="&#xf1;" horiz-adv-x="492" 
d="M282 600q28 0 66 -26.5t66 -26.5q10 0 24 11t24.5 22t11.5 11q4 0 4 -9q0 -23 -26.5 -54.5t-63.5 -31.5q-28 0 -66.5 26.5t-66.5 26.5q-14 0 -37 -22t-24 -22q-5 0 -5 6q0 25 28.5 57t64.5 32zM200 435q16 0 25 -14.5t9 -37.5q0 -22 -6 -53l-18 -92q10 18 43.5 62
t82 89.5t78.5 45.5q50 0 50 -66q0 -45 -14 -109l-33 -154q-3 -12 -3 -25q0 -25 10 -25q6 0 14.5 5.5t17 13.5t15.5 15.5t13 13.5l6 7q2 0 7.5 -9.5t5.5 -13.5q-13 -22 -54 -58t-72 -36q-16 0 -25 14.5t-9 37.5q0 16 7 53l35 165q7 33 7 54q0 43 -19 43q-33 0 -102.5 -90.5
t-89.5 -192.5l-17 -78q-13 -4 -31 -4t-34 4l59 308q5 36 5 40q0 25 -10 25q-4 0 -11 -4.5t-14.5 -11.5t-13.5 -13t-11 -12l-5 -6q-2 0 -7.5 9.5t-5.5 13.5q12 20 50.5 53t64.5 33z" />
    <glyph glyph-name="ograve" unicode="&#xf2;" horiz-adv-x="412" 
d="M296 496q-16 0 -90 47.5t-74 68.5q0 15 16.5 21.5t32.5 6.5q15 0 20 -5q2 -2 15.5 -16t28 -29.5t29.5 -32.5t25 -29t10 -14q0 -6 -4.5 -12t-8.5 -6zM276 394q-50 0 -91 -78.5t-41 -157.5q0 -58 18.5 -90t46.5 -32q50 0 88.5 78.5t38.5 158.5q0 59 -16 90t-44 31zM288 435
q59 0 91.5 -41t32.5 -113q0 -103 -72.5 -194.5t-148.5 -91.5q-60 0 -91.5 39t-31.5 111q0 104 72 197t148 93z" />
    <glyph glyph-name="oacute" unicode="&#xf3;" horiz-adv-x="412" 
d="M238 496q-2 0 -4.5 4t-2.5 8q0 7 42.5 55t72.5 71q8 5 26 5q39 0 39 -24q0 -22 -80.5 -70.5t-92.5 -48.5zM276 394q-50 0 -91 -78.5t-41 -157.5q0 -58 18.5 -90t46.5 -32q50 0 88.5 78.5t38.5 158.5q0 59 -16 90t-44 31zM288 435q59 0 91.5 -41t32.5 -113
q0 -103 -72.5 -194.5t-148.5 -91.5q-60 0 -91.5 39t-31.5 111q0 104 72 197t148 93z" />
    <glyph glyph-name="ocircumflex" unicode="&#xf4;" horiz-adv-x="412" 
d="M393 496q-17 0 -86 58q-26 -18 -62.5 -38t-44.5 -20q-5 0 -6 7.5t0 12.5l62 51q37 30 54 51q9 9 11 9q3 0 9 -9q24 -39 28 -44q9 -12 21.5 -26.5t19.5 -22.5t7 -9q-5 -20 -13 -20zM276 394q-50 0 -91 -78.5t-41 -157.5q0 -58 18.5 -90t46.5 -32q50 0 88.5 78.5
t38.5 158.5q0 59 -16 90t-44 31zM288 435q59 0 91.5 -41t32.5 -113q0 -103 -72.5 -194.5t-148.5 -91.5q-60 0 -91.5 39t-31.5 111q0 104 72 197t148 93z" />
    <glyph glyph-name="otilde" unicode="&#xf5;" horiz-adv-x="412" 
d="M232 600q28 0 66 -26.5t66 -26.5q10 0 24 11t24.5 22t11.5 11q4 0 4 -9q0 -23 -26.5 -54.5t-63.5 -31.5q-28 0 -66.5 26.5t-66.5 26.5q-14 0 -37 -22t-24 -22q-5 0 -5 6q0 25 28.5 57t64.5 32zM276 394q-50 0 -91 -78.5t-41 -157.5q0 -58 18.5 -90t46.5 -32
q50 0 88.5 78.5t38.5 158.5q0 59 -16 90t-44 31zM288 435q59 0 91.5 -41t32.5 -113q0 -103 -72.5 -194.5t-148.5 -91.5q-60 0 -91.5 39t-31.5 111q0 104 72 197t148 93z" />
    <glyph glyph-name="odieresis" unicode="&#xf6;" horiz-adv-x="412" 
d="M385 607q15 0 26 -12t11 -28q0 -24 -15.5 -42t-38.5 -18q-16 0 -25 13t-9 31q0 23 14.5 39.5t36.5 16.5zM216 607q15 0 26 -12t11 -28q0 -24 -15.5 -42t-38.5 -18q-16 0 -25 13t-9 31q0 23 14.5 39.5t36.5 16.5zM276 394q-50 0 -91 -78.5t-41 -157.5q0 -58 18.5 -90
t46.5 -32q50 0 88.5 78.5t38.5 158.5q0 59 -16 90t-44 31zM288 435q59 0 91.5 -41t32.5 -113q0 -103 -72.5 -194.5t-148.5 -91.5q-60 0 -91.5 39t-31.5 111q0 104 72 197t148 93z" />
    <glyph glyph-name="divide" unicode="&#xf7;" horiz-adv-x="458" 
d="M273 490q15 0 26 -12t11 -28q0 -24 -15.5 -42t-38.5 -18q-16 0 -25 13t-9 31q0 23 14.5 39.5t36.5 16.5zM199 104q15 0 25.5 -12t10.5 -28q0 -24 -15 -42t-38 -18q-16 0 -25 13t-9 31q0 23 14.5 39.5t36.5 16.5zM22 278h430q4 0 4 -9q0 -31 -21 -54h-430q-5 0 -5 9
q0 26 22 54z" />
    <glyph glyph-name="oslash" unicode="&#xf8;" horiz-adv-x="391" 
d="M97 0q-24 12 -19 20l308 399q24 -12 19 -19zM143 172q0 -61 19.5 -99.5t52.5 -38.5q50 0 84 73.5t34 151.5q0 60 -20 99t-52 39q-50 0 -84 -73.5t-34 -151.5zM69 163q0 106 65.5 189t143.5 83q58 0 93.5 -47t35.5 -121q0 -106 -65 -189t-143 -83q-58 0 -94 47t-36 121z
" />
    <glyph glyph-name="ugrave" unicode="&#xf9;" horiz-adv-x="472" 
d="M311 496q-16 0 -90 47.5t-74 68.5q0 15 16.5 21.5t32.5 6.5q15 0 20 -5q2 -2 15.5 -16t28 -29.5t29.5 -32.5t25 -29t10 -14q0 -6 -4.5 -12t-8.5 -6zM190 435q16 0 25 -14.5t9 -37.5q0 -27 -6 -53l-35 -165q-7 -29 -7 -54q0 -43 19 -43q14 0 40 23.5t54.5 61t54 91.5
t35.5 107l17 78q13 4 31 4t34 -4l-62 -323q-3 -12 -3 -25q0 -25 10 -25q6 0 14.5 5.5t17 13.5t15.5 15.5t13 13.5l6 7q2 0 7.5 -9.5t5.5 -13.5q-13 -22 -54 -58t-72 -36q-16 0 -25 14.5t-9 37.5q0 16 7 53l18 92q-10 -19 -41 -62t-78 -89t-77 -46q-50 0 -50 66q0 46 14 109
l30 139q5 36 5 40q0 25 -10 25q-4 0 -11 -4.5t-14.5 -11.5t-13.5 -13t-11 -12l-5 -6q-2 0 -7.5 9.5t-5.5 13.5q12 20 50.5 53t64.5 33z" />
    <glyph glyph-name="uacute" unicode="&#xfa;" horiz-adv-x="472" 
d="M263 496q-2 0 -4.5 4t-2.5 8q0 7 42.5 55t72.5 71q8 5 26 5q39 0 39 -24q0 -22 -80.5 -70.5t-92.5 -48.5zM190 435q16 0 25 -14.5t9 -37.5q0 -27 -6 -53l-35 -165q-7 -29 -7 -54q0 -43 19 -43q14 0 40 23.5t54.5 61t54 91.5t35.5 107l17 78q13 4 31 4t34 -4l-62 -323
q-3 -12 -3 -25q0 -25 10 -25q6 0 14.5 5.5t17 13.5t15.5 15.5t13 13.5l6 7q2 0 7.5 -9.5t5.5 -13.5q-13 -22 -54 -58t-72 -36q-16 0 -25 14.5t-9 37.5q0 16 7 53l18 92q-10 -19 -41 -62t-78 -89t-77 -46q-50 0 -50 66q0 46 14 109l30 139q5 36 5 40q0 25 -10 25
q-4 0 -11 -4.5t-14.5 -11.5t-13.5 -13t-11 -12l-5 -6q-2 0 -7.5 9.5t-5.5 13.5q12 20 50.5 53t64.5 33z" />
    <glyph glyph-name="ucircumflex" unicode="&#xfb;" horiz-adv-x="472" 
d="M366 496q-17 0 -86 58q-26 -18 -62.5 -38t-44.5 -20q-5 0 -6 7.5t0 12.5l62 51q37 30 54 51q9 9 11 9q3 0 9 -9q24 -39 28 -44q9 -12 21.5 -26.5t19.5 -22.5t7 -9q-5 -20 -13 -20zM190 435q16 0 25 -14.5t9 -37.5q0 -27 -6 -53l-35 -165q-7 -29 -7 -54q0 -43 19 -43
q14 0 40 23.5t54.5 61t54 91.5t35.5 107l17 78q13 4 31 4t34 -4l-62 -323q-3 -12 -3 -25q0 -25 10 -25q6 0 14.5 5.5t17 13.5t15.5 15.5t13 13.5l6 7q2 0 7.5 -9.5t5.5 -13.5q-13 -22 -54 -58t-72 -36q-16 0 -25 14.5t-9 37.5q0 16 7 53l18 92q-10 -19 -41 -62t-78 -89
t-77 -46q-50 0 -50 66q0 46 14 109l30 139q5 36 5 40q0 25 -10 25q-4 0 -11 -4.5t-14.5 -11.5t-13.5 -13t-11 -12l-5 -6q-2 0 -7.5 9.5t-5.5 13.5q12 20 50.5 53t64.5 33z" />
    <glyph glyph-name="udieresis" unicode="&#xfc;" horiz-adv-x="472" 
d="M404 607q15 0 26 -12t11 -28q0 -24 -15.5 -42t-38.5 -18q-16 0 -25 13t-9 31q0 23 14.5 39.5t36.5 16.5zM235 607q15 0 26 -12t11 -28q0 -24 -15.5 -42t-38.5 -18q-16 0 -25 13t-9 31q0 23 14.5 39.5t36.5 16.5zM190 435q16 0 25 -14.5t9 -37.5q0 -27 -6 -53l-35 -165
q-7 -29 -7 -54q0 -43 19 -43q14 0 40 23.5t54.5 61t54 91.5t35.5 107l17 78q13 4 31 4t34 -4l-62 -323q-3 -12 -3 -25q0 -25 10 -25q6 0 14.5 5.5t17 13.5t15.5 15.5t13 13.5l6 7q2 0 7.5 -9.5t5.5 -13.5q-13 -22 -54 -58t-72 -36q-16 0 -25 14.5t-9 37.5q0 16 7 53l18 92
q-10 -19 -41 -62t-78 -89t-77 -46q-50 0 -50 66q0 46 14 109l30 139q5 36 5 40q0 25 -10 25q-4 0 -11 -4.5t-14.5 -11.5t-13.5 -13t-11 -12l-5 -6q-2 0 -7.5 9.5t-5.5 13.5q12 20 50.5 53t64.5 33z" />
    <glyph glyph-name="yacute" unicode="&#xfd;" horiz-adv-x="479" 
d="M326 496q-2 0 -4.5 4t-2.5 8q0 7 42.5 55t72.5 71q8 5 26 5q39 0 39 -24q0 -22 -80.5 -70.5t-92.5 -48.5zM216 435q30 0 49.5 -51t26.5 -133.5t9 -129t2 -93.5q39 48 78 122.5t39 134.5q0 59 -25 107q13 43 50 43q44 0 44 -79q0 -110 -86 -252.5t-194.5 -239.5
t-175.5 -97q-26 0 -43 12t-17 29q0 32 23 44q22 -13 67 -13q83 0 144 89q23 34 23 134q0 49 -2.5 97.5t-9 99.5t-19 82.5t-29.5 31.5q-9 0 -27 -17t-28 -30q-2 0 -7.5 9.5t-5.5 13.5q6 15 47.5 50.5t66.5 35.5z" />
    <glyph glyph-name="thorn" unicode="&#xfe;" horiz-adv-x="473" 
d="M227 393q65 44 102 45q71 0 106 -41.5t35 -107.5q0 -106 -73.5 -205t-173.5 -99q-43 0 -71 15q-2 -4 -4 -12l-15 -75q-13 -67 -13 -85v-5q0 -7 17 -14.5t25 -7.5q1 0 1 -4q0 -14 -5 -24q-11 1 -38 3.5t-47 2.5q-21 0 -50.5 -2.5t-40.5 -3.5l5 28q9 0 29 7.5t23 14.5
q15 36 26 90l121 626q10 55 10 77q-1 12 -27.5 14.5t-26.5 3.5q0 2 2 6q0 2 3 9t6 7q83 9 128 38h2q3 0 6 -6t3 -10q-18 -32 -28 -87l-37 -192l-1 -2v-3t1 -1zM252 27q41 0 73 43t46.5 96.5t14.5 98.5q0 116 -108 116q-22 0 -41.5 -15.5t-23.5 -39.5l-46 -239q-1 -3 -1 -8
q0 -24 26.5 -38t59.5 -14z" />
    <glyph glyph-name="ydieresis" unicode="&#xff;" horiz-adv-x="479" 
d="M403 607q15 0 26 -12t11 -28q0 -24 -15.5 -42t-38.5 -18q-16 0 -25 13t-9 31q0 23 14.5 39.5t36.5 16.5zM234 607q15 0 26 -12t11 -28q0 -24 -15.5 -42t-38.5 -18q-16 0 -25 13t-9 31q0 23 14.5 39.5t36.5 16.5zM216 435q30 0 49.5 -51t26.5 -133.5t9 -129t2 -93.5
q39 48 78 122.5t39 134.5q0 59 -25 107q13 43 50 43q44 0 44 -79q0 -110 -86 -252.5t-194.5 -239.5t-175.5 -97q-26 0 -43 12t-17 29q0 32 23 44q22 -13 67 -13q83 0 144 89q23 34 23 134q0 49 -2.5 97.5t-9 99.5t-19 82.5t-29.5 31.5q-9 0 -27 -17t-28 -30q-2 0 -7.5 9.5
t-5.5 13.5q6 15 47.5 50.5t66.5 35.5z" />
    <glyph glyph-name="Amacron" unicode="&#x100;" horiz-adv-x="606" 
d="M333 737q0 5 6.5 22t14.5 17h232q5 0 4 -7q-3 -13 -13 -34q-1 -3 -3.5 -4.5t-3.5 -2.5h-2h-230l-5 2q-1 3 0 7zM436 239v2.5t-1.5 2t-4 2t-7 1t-12 1t-18 1t-25 0.5h-33.5q-21 0 -93 -5q-3 0 -27 -40t-47 -87t-23 -62q0 -11 14 -19t25.5 -10t15.5 -2q2 0 2 -6
q0 -11 -5 -21q-93 5 -95 5q-19 0 -33.5 -1t-31.5 -2t-33 -2q-2 2 -2 8q0 19 7 19q11 0 30.5 6t27.5 15q22 24 61 94l276 496q15 27 39 27q4 0 8 -2l83 -528q10 -63 12 -72q3 -15 25.5 -25.5t32.5 -10.5q2 0 2 -5q0 -12 -5 -22q-93 5 -104 5q-19 0 -35.5 -1t-36.5 -2t-35 -2
q-1 1 -1 6q0 21 7 21q10 0 28 6t23 14q7 15 7 47q0 17 -18 148zM348 298q46 0 75 2q4 0 4 4q0 5 -6.5 47t-15 98t-11.5 77q-123 -223 -123 -225t1 -2q23 -1 76 -1z" />
    <glyph glyph-name="amacron" unicode="&#x101;" horiz-adv-x="440" 
d="M249 505q0 4 6.5 20.5t12.5 16.5h193q5 0 4 -7q-2 -9 -12 -32l-8 -7h-192l-4 2q-1 3 0 7zM352 435q38 0 73 -13l-61 -316q-3 -12 -3 -25q0 -25 10 -25q6 0 14.5 5.5t17 13.5t15.5 15.5t13 13.5l6 7q2 0 7.5 -9.5t5.5 -13.5q-13 -22 -54 -58t-72 -36q-16 0 -25 14.5
t-9 37.5q0 17 7 53q2 11 3.5 17.5t1.5 8.5q-10 -18 -23 -36.5t-33 -41.5t-42.5 -37.5t-42.5 -14.5q-44 0 -69.5 39.5t-25.5 95.5q0 71 42.5 142.5t109.5 117t134 45.5zM310 389q-59 0 -114.5 -76.5t-55.5 -161.5q0 -98 51 -98q36 0 80.5 73t59.5 148l20 102q-12 13 -41 13z
" />
    <glyph glyph-name="Abreve" unicode="&#x102;" horiz-adv-x="606" 
d="M465 774q29 0 55 20t40 52q0 3 4 3q5 0 10 -4.5t4 -8.5l-1 -4q-1 -3 -1 -4q-15 -41 -49 -70.5t-71 -29.5t-60 29t-21 72v4l1 3q1 4 7.5 8.5t11.5 4.5q3 0 3 -3q1 -32 19.5 -52t47.5 -20zM436 239v2.5t-1.5 2t-4 2t-7 1t-12 1t-18 1t-25 0.5h-33.5q-21 0 -93 -5
q-3 0 -27 -40t-47 -87t-23 -62q0 -11 14 -19t25.5 -10t15.5 -2q2 0 2 -6q0 -11 -5 -21q-93 5 -95 5q-19 0 -33.5 -1t-31.5 -2t-33 -2q-2 2 -2 8q0 19 7 19q11 0 30.5 6t27.5 15q22 24 61 94l276 496q15 27 39 27q4 0 8 -2l83 -528q10 -63 12 -72q3 -15 25.5 -25.5
t32.5 -10.5q2 0 2 -5q0 -12 -5 -22q-93 5 -104 5q-19 0 -35.5 -1t-36.5 -2t-35 -2q-1 1 -1 6q0 21 7 21q10 0 28 6t23 14q7 15 7 47q0 17 -18 148zM348 298q46 0 75 2q4 0 4 4q0 5 -6.5 47t-15 98t-11.5 77q-123 -223 -123 -225t1 -2q23 -1 76 -1z" />
    <glyph glyph-name="abreve" unicode="&#x103;" horiz-adv-x="440" 
d="M361 542q29 0 55 20t40 52q0 3 4 3q5 0 10 -4.5t4 -8.5l-1 -4q-1 -3 -1 -4q-15 -41 -49 -70.5t-71 -29.5t-60 29t-21 72v4l1 3q1 4 7.5 8.5t11.5 4.5q3 0 3 -3q1 -32 19.5 -52t47.5 -20zM352 435q38 0 73 -13l-61 -316q-3 -12 -3 -25q0 -25 10 -25q6 0 14.5 5.5t17 13.5
t15.5 15.5t13 13.5l6 7q2 0 7.5 -9.5t5.5 -13.5q-13 -22 -54 -58t-72 -36q-16 0 -25 14.5t-9 37.5q0 17 7 53q2 11 3.5 17.5t1.5 8.5q-10 -18 -23 -36.5t-33 -41.5t-42.5 -37.5t-42.5 -14.5q-44 0 -69.5 39.5t-25.5 95.5q0 71 42.5 142.5t109.5 117t134 45.5zM310 389
q-59 0 -114.5 -76.5t-55.5 -161.5q0 -98 51 -98q36 0 80.5 73t59.5 148l20 102q-12 13 -41 13z" />
    <glyph glyph-name="Aogonek" unicode="&#x104;" horiz-adv-x="642" 
d="M343 298q46 0 75 2q4 0 4 4q0 5 -6.5 47t-15 98t-11.5 77q-123 -223 -123 -225t1 -2q23 -1 76 -1zM399 635q15 27 39 27q4 0 8 -2l83 -528q10 -63 12 -72q3 -15 25.5 -25.5t32.5 -10.5q2 0 2 -5q0 -12 -5 -22q-11 0 -29.5 1t-32.5 2t-15 1q-50 0 -111 -50.5t-61 -89.5
q0 -32 31 -32q21 0 40 9.5t30.5 19t12.5 9.5q5 -1 1 -14t-7 -16q-60 -67 -111 -67q-22 0 -36.5 15.5t-14.5 36.5q0 38 33 85t75 82q32 27 42.5 40.5t10.5 33.5q0 9 -23 176q0 2 -3 5q-5 5 -98 5q-36 0 -90 -3l-3 -2q-2 -2 -25.5 -41t-47.5 -86t-24 -62q0 -11 14 -19
t25.5 -10t15.5 -2q2 0 2 -6q0 -11 -5 -21q-92 5 -95 5q-19 0 -33.5 -1t-31.5 -2t-33 -2q-2 2 -2 8q0 19 7 19q11 0 30.5 6t27.5 15q22 24 61 94z" />
    <glyph glyph-name="aogonek" unicode="&#x105;" horiz-adv-x="444" 
d="M340 397q-66 0 -136.5 -97.5t-70.5 -178.5q0 -19 1 -30t11.5 -25t31.5 -14q32 0 83 74.5t65 143.5l20 103q0 1 0.5 5.5t0.5 6.5q0 12 -6 12zM347 435q60 0 74 -14l-60 -315q-1 -5 -1 -17q0 -37 22 -37q9 0 24.5 18t27.5 36.5t13 18.5t3 -3.5t4.5 -9t2.5 -9.5
q-14 -36 -62 -89q-3 -3 -41.5 -39.5t-57.5 -63.5t-19 -50q0 -32 31 -32q21 0 40 9.5t30.5 19t12.5 9.5q5 -1 1 -14t-7 -16q-60 -67 -111 -67q-22 0 -36.5 14.5t-14.5 35.5q0 35 33.5 85t76.5 93q-20 3 -31 22t-11 47q0 15 3 41l4 26l-1 2l-2 -2q-20 -42 -65.5 -91.5
t-88.5 -49.5q-46 0 -65 26.5t-19 78.5q0 56 31.5 118.5t76 109.5t95 78t87.5 31z" />
    <glyph glyph-name="Cacute" unicode="&#x106;" horiz-adv-x="580" 
d="M447 711q-13 0 -13 10q0 6 38 38.5t61 47.5q6 2 17 2q27 0 42.5 -7.5t15.5 -16.5q0 -17 -71 -45.5t-90 -28.5zM437 667q68 0 213 -45q-18 -114 -20 -124q-3 -15 -24 -15q-8 0 -11 3q0 15 -1 27t-10 35t-24.5 38t-48.5 27t-79 12q-103 0 -192 -110t-89 -256q0 -96 52 -159
t147 -63q74 0 126 33q25 15 43.5 36t27 34t9.5 13q3 0 12 -10.5t8 -14.5q-45 -86 -50 -91q-15 -17 -78 -30t-127 -13q-119 0 -190 81.5t-71 191.5q0 66 29.5 137t78.5 129.5t120.5 96t148.5 37.5z" />
    <glyph glyph-name="cacute" unicode="&#x107;" horiz-adv-x="326" 
d="M310 496q-2 0 -4.5 4t-2.5 8q0 7 42.5 55t72.5 71q8 5 26 5q39 0 39 -24q0 -22 -80.5 -70.5t-92.5 -48.5zM290 435q47 0 87 -34q3 -12 3 -20q0 -19 -9.5 -31t-25.5 -12t-33 28t-34 28q-43 0 -89.5 -69.5t-46.5 -162.5q0 -106 66 -106q8 0 15.5 2t14.5 5t14 6.5t13 8.5
t11.5 9t10 8.5t7 7.5t4.5 5l3 3q2 0 7.5 -9.5t5.5 -13.5q-14 -24 -56 -59t-83 -35q-52 0 -79.5 40.5t-27.5 111.5q0 96 73 192.5t149 96.5z" />
    <glyph glyph-name="Ccircumflex" unicode="&#x108;" horiz-adv-x="580" 
d="M574 728q-19 0 -99 58q-30 -18 -72 -38t-51 -20q-11 0 -6 20q4 4 15.5 12t29.5 20.5t32 23.5q34 24 55 46q9 8 13 8q8 0 11 -8q18 -32 32 -48q11 -12 25 -25.5t22 -20.5t8 -8q-5 -20 -15 -20zM437 667q68 0 213 -45q-18 -114 -20 -124q-3 -15 -24 -15q-8 0 -11 3
q0 15 -1 27t-10 35t-24.5 38t-48.5 27t-79 12q-103 0 -192 -110t-89 -256q0 -96 52 -159t147 -63q74 0 126 33q25 15 43.5 36t27 34t9.5 13q3 0 12 -10.5t8 -14.5q-45 -86 -50 -91q-15 -17 -78 -30t-127 -13q-119 0 -190 81.5t-71 191.5q0 66 29.5 137t78.5 129.5t120.5 96
t148.5 37.5z" />
    <glyph glyph-name="ccircumflex" unicode="&#x109;" horiz-adv-x="326" 
d="M407 496q-17 0 -86 58q-26 -18 -62.5 -38t-44.5 -20q-5 0 -6 7.5t0 12.5l62 51q37 30 54 51q9 9 11 9q3 0 9 -9q24 -39 28 -44q9 -12 21.5 -26.5t19.5 -22.5t7 -9q-5 -20 -13 -20zM290 435q47 0 87 -34q3 -12 3 -20q0 -19 -9.5 -31t-25.5 -12t-33 28t-34 28
q-43 0 -89.5 -69.5t-46.5 -162.5q0 -106 66 -106q8 0 15.5 2t14.5 5t14 6.5t13 8.5t11.5 9t10 8.5t7 7.5t4.5 5l3 3q2 0 7.5 -9.5t5.5 -13.5q-14 -24 -56 -59t-83 -35q-52 0 -79.5 40.5t-27.5 111.5q0 96 73 192.5t149 96.5z" />
    <glyph glyph-name="Cdotaccent" unicode="&#x10a;" horiz-adv-x="580" 
d="M412 778q4 21 20.5 35.5t36.5 14.5q19 0 29.5 -14.5t6.5 -35.5t-20 -35.5t-36 -14.5q-19 0 -30 14.5t-7 35.5zM437 667q68 0 213 -45q-18 -114 -20 -124q-3 -15 -24 -15q-8 0 -11 3q0 15 -1 27t-10 35t-24.5 38t-48.5 27t-79 12q-103 0 -192 -110t-89 -256q0 -96 52 -159
t147 -63q74 0 126 33q25 15 43.5 36t27 34t9.5 13q3 0 12 -10.5t8 -14.5q-45 -86 -50 -91q-15 -17 -78 -30t-127 -13q-119 0 -190 81.5t-71 191.5q0 66 29.5 137t78.5 129.5t120.5 96t148.5 37.5z" />
    <glyph glyph-name="cdotaccent" unicode="&#x10b;" horiz-adv-x="326" 
d="M250 596q4 21 20.5 35.5t36.5 14.5q19 0 29.5 -14.5t6.5 -35.5t-20 -35.5t-36 -14.5q-19 0 -30 14.5t-7 35.5zM290 435q47 0 87 -34q3 -12 3 -20q0 -19 -9.5 -31t-25.5 -12t-33 28t-34 28q-43 0 -89.5 -69.5t-46.5 -162.5q0 -106 66 -106q8 0 15.5 2t14.5 5t14 6.5
t13 8.5t11.5 9t10 8.5t7 7.5t4.5 5l3 3q2 0 7.5 -9.5t5.5 -13.5q-14 -24 -56 -59t-83 -35q-52 0 -79.5 40.5t-27.5 111.5q0 96 73 192.5t149 96.5z" />
    <glyph glyph-name="Ccaron" unicode="&#x10c;" horiz-adv-x="580" 
d="M463 800q91 58 109 58q9 0 4 -20q-1 -1 -10.5 -8t-26 -20.5t-31.5 -25.5q-26 -23 -48 -48q-6 -8 -11 -8q-4 0 -8 8q-9 19 -30 46q-11 14 -27 33t-19 23q5 20 13 20t37 -20t48 -38zM437 667q68 0 213 -45q-18 -114 -20 -124q-3 -15 -24 -15q-8 0 -11 3q0 15 -1 27t-10 35
t-24.5 38t-48.5 27t-79 12q-103 0 -192 -110t-89 -256q0 -96 52 -159t147 -63q74 0 126 33q25 15 43.5 36t27 34t9.5 13q3 0 12 -10.5t8 -14.5q-45 -86 -50 -91q-15 -17 -78 -30t-127 -13q-119 0 -190 81.5t-71 191.5q0 66 29.5 137t78.5 129.5t120.5 96t148.5 37.5z" />
    <glyph glyph-name="ccaron" unicode="&#x10d;" horiz-adv-x="326" 
d="M287 578q83 66 99 66q8 0 3 -23q-1 -1 -10 -9t-24 -23l-29 -29q-10 -12 -44 -55q-6 -9 -10 -9t-7 9q-10 27 -24 52q-9 17 -22.5 38.5t-15.5 25.5q5 23 13 23q7 0 31 -22.5t40 -43.5zM290 435q47 0 87 -34q3 -12 3 -20q0 -19 -9.5 -31t-25.5 -12t-33 28t-34 28
q-43 0 -89.5 -69.5t-46.5 -162.5q0 -106 66 -106q8 0 15.5 2t14.5 5t14 6.5t13 8.5t11.5 9t10 8.5t7 7.5t4.5 5l3 3q2 0 7.5 -9.5t5.5 -13.5q-14 -24 -56 -59t-83 -35q-52 0 -79.5 40.5t-27.5 111.5q0 96 73 192.5t149 96.5z" />
    <glyph glyph-name="Dcaron" unicode="&#x10e;" horiz-adv-x="668" 
d="M471 800q91 58 109 58q9 0 4 -20q-1 -1 -10.5 -8t-26 -20.5t-31.5 -25.5q-26 -23 -48 -48q-6 -8 -11 -8q-4 0 -8 8q-9 19 -30 46q-11 14 -27 33t-19 23q5 20 13 20t37 -20t48 -38zM424 658q130 0 197 -72t67 -181q0 -51 -15 -106t-47.5 -109t-77.5 -97t-111 -69.5
t-143 -26.5q-18 0 -71 2.5t-87 2.5l-111 -5q-1 1 -1 8q0 19 5 19q11 0 37 8t30 17q14 29 26 93l72 372q13 71 11 93q-1 8 -23 16t-33 8q-2 0 -2 4q0 16 7 23q46 -2 107 -2q35 0 90 1t73 1zM422 614q-107 0 -120 -16q-16 -20 -27 -79l-73 -380q-3 -14 -3 -42.5t2 -33.5
q9 -20 116 -20q84 0 150 54.5t99.5 138.5t33.5 178q0 88 -44 144t-134 56z" />
    <glyph glyph-name="dcaron" unicode="&#x10f;" horiz-adv-x="463" 
d="M555 634q0 28 21.5 44t52.5 16q5 -9 5 -28q0 -14 -3 -34q-6 -31 -39 -71.5t-55 -52.5q-1 -1 -7 -1q-4 0 -7 4t-3 8l11 9q12 9 23.5 26.5t11.5 38.5q0 5 -5.5 18t-5.5 23zM357 435q25 0 5 0h8l28 149q3 14 3 28q0 19 -61 19q-3 0 -3 6q0 12 8 20q69 6 129 28q6 -4 6 -19
l-15 -75l-94 -485q-3 -12 -3 -25q0 -25 10 -25q6 0 14.5 5.5t17 13.5t15.5 15.5t13 13.5l6 7q2 0 7.5 -9.5t5.5 -13.5q-13 -22 -54 -58t-72 -36q-16 0 -25 14.5t-9 37.5q0 16 7 53q2 8 3 13.5t2 8t1 5.5q-13 -23 -30.5 -48t-50.5 -54t-60 -29q-46 0 -71 39.5t-25 95.5
q0 108 92 206.5t192 98.5zM350 341q4 19 -4 33.5t-27 14.5q-61 0 -116.5 -76.5t-55.5 -162.5q0 -97 51 -97q37 0 81 73.5t59 149.5z" />
    <glyph glyph-name="Dcroat" unicode="&#x110;" horiz-adv-x="659" 
d="M420 663q67 0 118.5 -20.5t83 -56t47 -80t15.5 -96.5q0 -51 -15 -106t-47.5 -109t-77.5 -97t-111 -69.5t-143 -26.5q-18 0 -71 2.5t-87 2.5q-27 0 -55 -1t-42 -3l-14 -1q-1 1 -1 8q0 19 5 19q11 0 37 8.5t30 16.5q14 29 26 93l72 372q13 72 11 93q-1 8 -23 16t-33 8
q-2 0 -2 4q0 16 7 23q46 -2 107 -2q35 0 90 1t73 1zM418 619q-10 0 -30 -0.5t-52.5 -4.5t-37.5 -11q-8 -10 -14 -25t-7 -21.5t-6 -32.5l-73 -380q-3 -14 -3 -42.5t2 -33.5q4 -8 31.5 -13t48.5 -6t36 -1q84 0 150 54.5t99.5 138.5t33.5 178q0 88 -44 144t-134 56zM101 353
h345q6 0 6 -10q0 -16 -6 -30h-346q-5 0 -5 13q0 18 6 27z" />
    <glyph glyph-name="dcroat" unicode="&#x111;" horiz-adv-x="424" 
d="M311 135l-9 -15q-9 -14 -24 -35t-33.5 -42t-42.5 -35.5t-47 -14.5q-95 0 -95 104q0 69 45 150t106.5 134.5t107.5 53.5q25 0 43 -9h2l2 -1q2 0 2 4l26 130q9 41 9 49q0 24 -48 24q-6 0 -6 3q0 6 4 13.5t6 7.5q15 0 34 4t35.5 9.5t31 11t22.5 9.5l9 4q5 0 5 -16
q-20 -32 -30 -87l-88 -467q-4 -16 -4 -30q0 -42 26 -42q12 0 35.5 36.5t24.5 36.5q2 0 6 -8t5 -13q-12 -33 -45 -71.5t-65 -38.5q-56 0 -56 72q0 14 2 29.5t4 25.5t2 11q0 3 -2 3zM312 399q-54 0 -115 -94.5t-61 -185.5q0 -28 13.5 -47.5t41.5 -19.5q33 0 85 76.5t65 147.5
l19 101v1q0 8 -15 14.5t-33 6.5zM271 569h229q5 0 3 -10q-2 -15 -11 -30h-230q-2 0 -2.5 4.5t0.5 8.5q3 16 11 27z" />
    <glyph glyph-name="Emacron" unicode="&#x112;" horiz-adv-x="519" 
d="M263 737q0 5 6.5 22t14.5 17h232q5 0 4 -7q-3 -13 -13 -34q-1 -3 -3.5 -4.5t-3.5 -2.5h-2h-230l-5 2q-1 3 0 7zM261 656q41 0 141 4t152 4q-1 -14 -1 -39q0 -17 1 -49t1 -48q-5 -5 -18 -5q-12 0 -12 7q-3 56 -26 71t-73 15h-54q-71 0 -76 -13q-11 -30 -18 -67l-32 -175
q0 -3 2.5 -4.5t8.5 -2l12 -1t14 -0.5h45q66 0 82 9.5t39 61.5q3 7 14 7q12 0 15 -5l-37 -192q-6 -4 -14 -4q-13 0 -14 8q-1 27 -4 40.5t-4.5 16t-6.5 6.5q-10 8 -97 8q-66 0 -68 -9l-29 -148q-11 -53 -11 -87q0 -15 8 -18t53 -3h45q87 0 121 17q16 8 37.5 35.5t40.5 65.5
q3 6 15 6q17 0 21 -6q-70 -130 -82 -166q-53 0 -164.5 3t-151.5 3l-111 -5q-1 1 -1 8q0 19 5 19q11 0 37 8t30 17q14 29 26 93l72 372q13 71 11 93q-1 8 -23 16t-33 8q-2 0 -2 4q0 16 7 23q46 -2 107 -2z" />
    <glyph glyph-name="emacron" unicode="&#x113;" horiz-adv-x="359" 
d="M176 505q0 4 6.5 20.5t12.5 16.5h193q5 0 4 -7q-2 -9 -12 -32l-8 -7h-192l-4 2q-1 3 0 7zM292 435q46 0 66.5 -23.5t20.5 -51.5q0 -44 -45 -87t-98.5 -66.5t-86.5 -23.5q-4 0 -4 -35q0 -45 17.5 -68.5t47.5 -23.5q8 0 15.5 2t14.5 5t14 6.5t13 8.5t11.5 9t10 8.5t7 7.5
t4.5 5l3 3q2 0 7.5 -9.5t5.5 -13.5q-14 -24 -56 -59t-83 -35q-52 0 -79.5 40.5t-27.5 111.5q0 96 73 192.5t149 96.5zM282 394q-47 0 -88.5 -67.5t-41.5 -104.5q0 -4 4 -4q36 0 93.5 48t57.5 98q0 30 -25 30z" />
    <glyph glyph-name="Ebreve" unicode="&#x114;" horiz-adv-x="519" 
d="M387 776q30 0 55 15.5t37 42.5q0 2 5 2t10 -4t4 -7l-1 -3q-1 -3 -1 -4q-13 -36 -47.5 -63t-70.5 -27q-37 0 -60.5 26.5t-22.5 64.5v6q1 3 8 7t11 4t4 -2q1 -27 20 -42.5t49 -15.5zM261 656q41 0 141 4t152 4q-1 -14 -1 -39q0 -17 1 -49t1 -48q-5 -5 -18 -5q-12 0 -12 7
q-3 56 -26 71t-73 15h-54q-71 0 -76 -13q-11 -30 -18 -67l-32 -175q0 -3 2.5 -4.5t8.5 -2l12 -1t14 -0.5h45q66 0 82 9.5t39 61.5q3 7 14 7q12 0 15 -5l-37 -192q-6 -4 -14 -4q-13 0 -14 8q-1 27 -4 40.5t-4.5 16t-6.5 6.5q-10 8 -97 8q-66 0 -68 -9l-29 -148
q-11 -53 -11 -87q0 -15 8 -18t53 -3h45q87 0 121 17q16 8 37.5 35.5t40.5 65.5q3 6 15 6q17 0 21 -6q-70 -130 -82 -166q-53 0 -164.5 3t-151.5 3l-111 -5q-1 1 -1 8q0 19 5 19q11 0 37 8t30 17q14 29 26 93l72 372q13 71 11 93q-1 8 -23 16t-33 8q-2 0 -2 4q0 16 7 23
q46 -2 107 -2z" />
    <glyph glyph-name="ebreve" unicode="&#x115;" horiz-adv-x="359" 
d="M288 542q29 0 55 20t40 52q0 3 4 3q5 0 10 -4.5t4 -8.5l-1 -4q-1 -3 -1 -4q-15 -41 -49 -70.5t-71 -29.5t-60 29t-21 72v4l1 3q1 4 7.5 8.5t11.5 4.5q3 0 3 -3q1 -32 19.5 -52t47.5 -20zM292 435q46 0 66.5 -23.5t20.5 -51.5q0 -44 -45 -87t-98.5 -66.5t-86.5 -23.5
q-4 0 -4 -35q0 -45 17.5 -68.5t47.5 -23.5q8 0 15.5 2t14.5 5t14 6.5t13 8.5t11.5 9t10 8.5t7 7.5t4.5 5l3 3q2 0 7.5 -9.5t5.5 -13.5q-14 -24 -56 -59t-83 -35q-52 0 -79.5 40.5t-27.5 111.5q0 96 73 192.5t149 96.5zM282 394q-47 0 -88.5 -67.5t-41.5 -104.5q0 -4 4 -4
q36 0 93.5 48t57.5 98q0 30 -25 30z" />
    <glyph glyph-name="Edotaccent" unicode="&#x116;" horiz-adv-x="519" 
d="M359 778q4 21 20.5 35.5t36.5 14.5q19 0 29.5 -14.5t6.5 -35.5t-20 -35.5t-36 -14.5q-19 0 -30 14.5t-7 35.5zM261 656q41 0 141 4t152 4q-1 -14 -1 -39q0 -17 1 -49t1 -48q-5 -5 -18 -5q-12 0 -12 7q-3 56 -26 71t-73 15h-54q-71 0 -76 -13q-11 -30 -18 -67l-32 -175
q0 -3 2.5 -4.5t8.5 -2l12 -1t14 -0.5h45q66 0 82 9.5t39 61.5q3 7 14 7q12 0 15 -5l-37 -192q-6 -4 -14 -4q-13 0 -14 8q-1 27 -4 40.5t-4.5 16t-6.5 6.5q-10 8 -97 8q-66 0 -68 -9l-29 -148q-11 -53 -11 -87q0 -15 8 -18t53 -3h45q87 0 121 17q16 8 37.5 35.5t40.5 65.5
q3 6 15 6q17 0 21 -6q-70 -130 -82 -166q-53 0 -164.5 3t-151.5 3l-111 -5q-1 1 -1 8q0 19 5 19q11 0 37 8t30 17q14 29 26 93l72 372q13 71 11 93q-1 8 -23 16t-33 8q-2 0 -2 4q0 16 7 23q46 -2 107 -2z" />
    <glyph glyph-name="edotaccent" unicode="&#x117;" horiz-adv-x="359" 
d="M261 596q4 21 20.5 35.5t36.5 14.5q19 0 29.5 -14.5t6.5 -35.5t-20 -35.5t-36 -14.5q-19 0 -30 14.5t-7 35.5zM292 435q46 0 66.5 -23.5t20.5 -51.5q0 -44 -45 -87t-98.5 -66.5t-86.5 -23.5q-4 0 -4 -35q0 -45 17.5 -68.5t47.5 -23.5q8 0 15.5 2t14.5 5t14 6.5t13 8.5
t11.5 9t10 8.5t7 7.5t4.5 5l3 3q2 0 7.5 -9.5t5.5 -13.5q-14 -24 -56 -59t-83 -35q-52 0 -79.5 40.5t-27.5 111.5q0 96 73 192.5t149 96.5zM282 394q-47 0 -88.5 -67.5t-41.5 -104.5q0 -4 4 -4q36 0 93.5 48t57.5 98q0 30 -25 30z" />
    <glyph glyph-name="Eogonek" unicode="&#x118;" horiz-adv-x="536" 
d="M426 -4q-66 0 -119 -46.5t-53 -88.5q0 -32 31 -32q21 0 40 9.5t30.5 19t12.5 9.5q5 -1 1 -14t-7 -16q-60 -67 -111 -67q-22 0 -36.5 14.5t-14.5 35.5q0 40 39.5 98.5t81.5 78.5q-190 5 -211 5l-111 -5q-1 1 -1 8q0 19 5 19q11 0 37 8t30 17q14 29 26 93l72 372
q13 71 11 93q-1 8 -23 16t-33 8q-2 0 -2 4q0 16 7 23q46 -2 107 -2q41 0 141 4t152 4q-1 -14 -1 -39q0 -17 1 -49t1 -48q-5 -5 -18 -5q-12 0 -12 7q-3 56 -26 71t-73 15h-54q-71 0 -76 -13q-11 -30 -18 -67l-32 -175q0 -3 2.5 -4.5t8.5 -2l12 -1t14 -0.5h45q66 0 82 9.5
t39 61.5q3 7 14 7q12 0 15 -5l-37 -192q-6 -4 -14 -4q-13 0 -14 8q-1 27 -4 40.5t-4.5 16t-6.5 6.5q-10 8 -97 8q-66 0 -68 -9l-29 -148q-11 -53 -11 -87q0 -15 8 -18t53 -3h45q87 0 121 17q16 8 37.5 35.5t40.5 65.5q3 6 15 6q17 0 21 -6q-70 -130 -82 -166z" />
    <glyph glyph-name="eogonek" unicode="&#x119;" horiz-adv-x="349" 
d="M236 396q-44 0 -87 -68t-43 -104q0 -6 7 -6q35 0 89.5 43.5t54.5 90.5q0 44 -21 44zM256 435q70 0 70 -79q0 -39 -43 -81t-95.5 -67t-84.5 -25q-4 0 -4 -9q0 -118 76 -118q20 0 42 17t36 34t15 17t3 -3.5t4.5 -9t2.5 -9.5q-1 -6 -11 -20q-22 -33 -71.5 -80.5t-84.5 -84
t-35 -56.5q0 -32 31 -32q21 0 40 9.5t30.5 19t12.5 9.5q5 -1 1 -14t-7 -16q-60 -67 -111 -67q-22 0 -36 14.5t-14 35.5q-1 32 45 90t78 86q-48 0 -84 44t-36 112q0 63 32.5 129t87 110t110.5 44z" />
    <glyph glyph-name="Ecaron" unicode="&#x11a;" horiz-adv-x="519" 
d="M413 800q91 58 109 58q9 0 4 -20q-1 -1 -10.5 -8t-26 -20.5t-31.5 -25.5q-26 -23 -48 -48q-6 -8 -11 -8q-4 0 -8 8q-9 19 -30 46q-11 14 -27 33t-19 23q5 20 13 20t37 -20t48 -38zM261 656q41 0 141 4t152 4q-1 -14 -1 -39q0 -17 1 -49t1 -48q-5 -5 -18 -5q-12 0 -12 7
q-3 56 -26 71t-73 15h-54q-71 0 -76 -13q-11 -30 -18 -67l-32 -175q0 -3 2.5 -4.5t8.5 -2l12 -1t14 -0.5h45q66 0 82 9.5t39 61.5q3 7 14 7q12 0 15 -5l-37 -192q-6 -4 -14 -4q-13 0 -14 8q-1 27 -4 40.5t-4.5 16t-6.5 6.5q-10 8 -97 8q-66 0 -68 -9l-29 -148
q-11 -53 -11 -87q0 -15 8 -18t53 -3h45q87 0 121 17q16 8 37.5 35.5t40.5 65.5q3 6 15 6q17 0 21 -6q-70 -130 -82 -166q-53 0 -164.5 3t-151.5 3l-111 -5q-1 1 -1 8q0 19 5 19q11 0 37 8t30 17q14 29 26 93l72 372q13 71 11 93q-1 8 -23 16t-33 8q-2 0 -2 4q0 16 7 23
q46 -2 107 -2z" />
    <glyph glyph-name="ecaron" unicode="&#x11b;" horiz-adv-x="359" 
d="M298 578q83 66 99 66q8 0 3 -23q-1 -1 -10 -9t-24 -23l-29 -29q-10 -12 -44 -55q-6 -9 -10 -9t-7 9q-10 27 -24 52q-9 17 -22.5 38.5t-15.5 25.5q5 23 13 23q7 0 31 -22.5t40 -43.5zM292 435q46 0 66.5 -23.5t20.5 -51.5q0 -44 -45 -87t-98.5 -66.5t-86.5 -23.5
q-4 0 -4 -35q0 -45 17.5 -68.5t47.5 -23.5q8 0 15.5 2t14.5 5t14 6.5t13 8.5t11.5 9t10 8.5t7 7.5t4.5 5l3 3q2 0 7.5 -9.5t5.5 -13.5q-14 -24 -56 -59t-83 -35q-52 0 -79.5 40.5t-27.5 111.5q0 96 73 192.5t149 96.5zM282 394q-47 0 -88.5 -67.5t-41.5 -104.5q0 -4 4 -4
q36 0 93.5 48t57.5 98q0 30 -25 30z" />
    <glyph glyph-name="Gcircumflex" unicode="&#x11c;" horiz-adv-x="616" 
d="M576 728q-19 0 -99 58q-30 -18 -72 -38t-51 -20q-11 0 -6 20q4 4 15.5 12t29.5 20.5t32 23.5q34 24 55 46q9 8 13 8q8 0 11 -8q18 -32 32 -48q11 -12 25 -25.5t22 -20.5t8 -8q-5 -20 -15 -20zM439 667q68 0 213 -45q-15 -99 -21 -130q-1 -9 -23 -9q-9 0 -11 5
q0 15 -1 26.5t-10 34t-24.5 37.5t-48.5 27t-79 12q-73 0 -138.5 -54.5t-103 -136t-37.5 -161.5q0 -96 50 -166t138 -70q82 0 125 22q8 4 11 17l28 142l1 4q1 5 2 12.5t1 13.5q0 9 -28 17.5t-41 8.5q-2 0 -2 5q0 14 8 22q108 -5 109 -5q14 0 109 5q0 -27 -6 -27
q-17 0 -44 -9.5t-30 -28.5l-24 -139q0 -1 -0.5 -3.5t-0.5 -3.5q0 -7 1 -15.5t1 -11.5q0 -5 -1 -7.5t-6.5 -6.5t-15.5 -8q-2 -1 -19.5 -7.5t-22.5 -8.5t-22.5 -7.5t-27.5 -7.5t-29 -6t-35 -5.5t-38.5 -3t-46.5 -1.5q-106 0 -172.5 74.5t-66.5 185.5q0 97 51 192.5t140 158
t188 62.5z" />
    <glyph glyph-name="gcircumflex" unicode="&#x11d;" horiz-adv-x="438" 
d="M402 497q-17 0 -86 58q-26 -18 -62.5 -38t-44.5 -20q-5 0 -6 7.5t0 12.5l62 51q37 30 54 51q9 9 11 9q3 0 9 -9q24 -39 28 -44q9 -12 21.5 -26.5t19.5 -22.5t7 -9q-5 -20 -13 -20zM342 -118q0 22 -12.5 40.5t-36.5 32t-43.5 21t-47.5 16.5q-19 -8 -27.5 -12t-28.5 -15
t-29.5 -20t-18 -24t-8.5 -31q0 -80 131 -80q49 0 85 20.5t36 51.5zM277 398q-43 0 -70.5 -47.5t-27.5 -103.5q0 -39 16 -65t45 -26q42 0 69.5 44t27.5 94q0 40 -16 72t-44 32zM293 436q30 0 66 -13.5t70 -13.5h43q6 0 6 -8q0 -7 -3.5 -17t-7.5 -14h-56q-6 0 -6 -6
q6 -36 6 -52q0 -37 -10.5 -68.5t-28 -51.5t-29 -30t-23.5 -17q-10 -6 -40.5 -20.5t-47.5 -26t-17 -21.5q0 -9 19.5 -17.5t48 -18t56.5 -23.5t47.5 -39t19.5 -57q0 -71 -63.5 -113t-170.5 -42q-69 0 -112.5 26t-43.5 72q0 24 13 46.5t37.5 40.5t45.5 30t48 24l-18 12
q-25 17 -25 36q0 17 35.5 39t64.5 29q-19 0 -43.5 10t-47 36.5t-22.5 62.5q0 84 58.5 144.5t130.5 60.5z" />
    <glyph glyph-name="Gbreve" unicode="&#x11e;" horiz-adv-x="616" 
d="M460 776q30 0 55 15.5t37 42.5q0 2 5 2t10 -4t4 -7l-1 -3q-1 -3 -1 -4q-13 -36 -47.5 -63t-70.5 -27q-37 0 -60.5 26.5t-22.5 64.5v6q1 3 8 7t11 4t4 -2q1 -27 20 -42.5t49 -15.5zM439 667q68 0 213 -45q-15 -99 -21 -130q-1 -9 -23 -9q-9 0 -11 5q0 15 -1 26.5t-10 34
t-24.5 37.5t-48.5 27t-79 12q-73 0 -138.5 -54.5t-103 -136t-37.5 -161.5q0 -96 50 -166t138 -70q82 0 125 22q8 4 11 17l28 142l1 4q1 5 2 12.5t1 13.5q0 9 -28 17.5t-41 8.5q-2 0 -2 5q0 14 8 22q108 -5 109 -5q14 0 109 5q0 -27 -6 -27q-17 0 -44 -9.5t-30 -28.5
l-24 -139q0 -1 -0.5 -3.5t-0.5 -3.5q0 -7 1 -15.5t1 -11.5q0 -5 -1 -7.5t-6.5 -6.5t-15.5 -8q-2 -1 -19.5 -7.5t-22.5 -8.5t-22.5 -7.5t-27.5 -7.5t-29 -6t-35 -5.5t-38.5 -3t-46.5 -1.5q-106 0 -172.5 74.5t-66.5 185.5q0 97 51 192.5t140 158t188 62.5z" />
    <glyph glyph-name="gbreve" unicode="&#x11f;" horiz-adv-x="438" 
d="M314 543q29 0 55 20t40 52q0 3 4 3q5 0 10 -4.5t4 -8.5l-1 -4q-1 -3 -1 -4q-15 -41 -49 -70.5t-71 -29.5t-60 29t-21 72v4l1 3q1 4 7.5 8.5t11.5 4.5q3 0 3 -3q1 -32 19.5 -52t47.5 -20zM342 -118q0 22 -12.5 40.5t-36.5 32t-43.5 21t-47.5 16.5q-19 -8 -27.5 -12
t-28.5 -15t-29.5 -20t-18 -24t-8.5 -31q0 -80 131 -80q49 0 85 20.5t36 51.5zM277 398q-43 0 -70.5 -47.5t-27.5 -103.5q0 -39 16 -65t45 -26q42 0 69.5 44t27.5 94q0 40 -16 72t-44 32zM293 436q30 0 66 -13.5t70 -13.5h43q6 0 6 -8q0 -7 -3.5 -17t-7.5 -14h-56q-6 0 -6 -6
q6 -36 6 -52q0 -37 -10.5 -68.5t-28 -51.5t-29 -30t-23.5 -17q-10 -6 -40.5 -20.5t-47.5 -26t-17 -21.5q0 -9 19.5 -17.5t48 -18t56.5 -23.5t47.5 -39t19.5 -57q0 -71 -63.5 -113t-170.5 -42q-69 0 -112.5 26t-43.5 72q0 24 13 46.5t37.5 40.5t45.5 30t48 24l-18 12
q-25 17 -25 36q0 17 35.5 39t64.5 29q-19 0 -43.5 10t-47 36.5t-22.5 62.5q0 84 58.5 144.5t130.5 60.5z" />
    <glyph glyph-name="Gdotaccent" unicode="&#x120;" horiz-adv-x="616" 
d="M414 778q4 21 20.5 35.5t36.5 14.5q19 0 29.5 -14.5t6.5 -35.5t-20 -35.5t-36 -14.5q-19 0 -30 14.5t-7 35.5zM439 667q68 0 213 -45q-15 -99 -21 -130q-1 -9 -23 -9q-9 0 -11 5q0 15 -1 26.5t-10 34t-24.5 37.5t-48.5 27t-79 12q-73 0 -138.5 -54.5t-103 -136
t-37.5 -161.5q0 -96 50 -166t138 -70q82 0 125 22q8 4 11 17l28 142l1 4q1 5 2 12.5t1 13.5q0 9 -28 17.5t-41 8.5q-2 0 -2 5q0 14 8 22q108 -5 109 -5q14 0 109 5q0 -27 -6 -27q-17 0 -44 -9.5t-30 -28.5l-24 -139q0 -1 -0.5 -3.5t-0.5 -3.5q0 -7 1 -15.5t1 -11.5
q0 -5 -1 -7.5t-6.5 -6.5t-15.5 -8q-2 -1 -19.5 -7.5t-22.5 -8.5t-22.5 -7.5t-27.5 -7.5t-29 -6t-35 -5.5t-38.5 -3t-46.5 -1.5q-106 0 -172.5 74.5t-66.5 185.5q0 97 51 192.5t140 158t188 62.5z" />
    <glyph glyph-name="gdotaccent" unicode="&#x121;" horiz-adv-x="438" 
d="M260 596q4 21 20.5 35.5t36.5 14.5q19 0 29.5 -14.5t6.5 -35.5t-20 -35.5t-36 -14.5q-19 0 -30 14.5t-7 35.5zM342 -118q0 22 -12.5 40.5t-36.5 32t-43.5 21t-47.5 16.5q-19 -8 -27.5 -12t-28.5 -15t-29.5 -20t-18 -24t-8.5 -31q0 -80 131 -80q49 0 85 20.5t36 51.5z
M277 398q-43 0 -70.5 -47.5t-27.5 -103.5q0 -39 16 -65t45 -26q42 0 69.5 44t27.5 94q0 40 -16 72t-44 32zM293 436q30 0 66 -13.5t70 -13.5h43q6 0 6 -8q0 -7 -3.5 -17t-7.5 -14h-56q-6 0 -6 -6q6 -36 6 -52q0 -37 -10.5 -68.5t-28 -51.5t-29 -30t-23.5 -17
q-10 -6 -40.5 -20.5t-47.5 -26t-17 -21.5q0 -9 19.5 -17.5t48 -18t56.5 -23.5t47.5 -39t19.5 -57q0 -71 -63.5 -113t-170.5 -42q-69 0 -112.5 26t-43.5 72q0 24 13 46.5t37.5 40.5t45.5 30t48 24l-18 12q-25 17 -25 36q0 17 35.5 39t64.5 29q-19 0 -43.5 10t-47 36.5
t-22.5 62.5q0 84 58.5 144.5t130.5 60.5z" />
    <glyph glyph-name="Gcommaaccent" unicode="&#x122;" horiz-adv-x="616" 
d="M242 -108q0 23 27.5 39t58.5 16q13 -10 13 -41q0 -37 -32 -79t-62 -58q-2 -2 -8 -2q-18 0 -18 7q0 2 11 8.5t23.5 20.5t16.5 32q3 16 -13.5 30.5t-16.5 26.5zM439 667q68 0 213 -45q-15 -99 -21 -130q-1 -9 -23 -9q-9 0 -11 5q0 15 -1 26.5t-10 34t-24.5 37.5t-48.5 27
t-79 12q-73 0 -138.5 -54.5t-103 -136t-37.5 -161.5q0 -96 50 -166t138 -70q82 0 125 22q8 4 11 17l28 142l1 4q1 5 2 12.5t1 13.5q0 9 -28 17.5t-41 8.5q-2 0 -2 5q0 14 8 22q108 -5 109 -5q14 0 109 5q0 -27 -6 -27q-17 0 -44 -9.5t-30 -28.5l-24 -139q0 -1 -0.5 -3.5
t-0.5 -3.5q0 -7 1 -15.5t1 -11.5q0 -5 -1 -7.5t-6.5 -6.5t-15.5 -8q-2 -1 -19.5 -7.5t-22.5 -8.5t-22.5 -7.5t-27.5 -7.5t-29 -6t-35 -5.5t-38.5 -3t-46.5 -1.5q-106 0 -172.5 74.5t-66.5 185.5q0 97 51 192.5t140 158t188 62.5z" />
    <glyph glyph-name="gcommaaccent" unicode="&#x123;" horiz-adv-x="438" 
d="M357 545q0 -23 -27.5 -39t-58.5 -16q-13 10 -13 41q0 37 32 79t62 58q2 2 8 2q18 0 18 -7q0 -2 -11 -8.5t-23.5 -20.5t-16.5 -32q-3 -16 13.5 -30.5t16.5 -26.5zM342 -118q0 22 -12.5 40.5t-36.5 32t-43.5 21t-47.5 16.5q-19 -8 -27.5 -12t-28.5 -15t-29.5 -20t-18 -24
t-8.5 -31q0 -80 131 -80q49 0 85 20.5t36 51.5zM277 398q-43 0 -70.5 -47.5t-27.5 -103.5q0 -39 16 -65t45 -26q42 0 69.5 44t27.5 94q0 40 -16 72t-44 32zM293 436q30 0 66 -13.5t70 -13.5h43q6 0 6 -8q0 -7 -3.5 -17t-7.5 -14h-56q-6 0 -6 -6q6 -36 6 -52
q0 -37 -10.5 -68.5t-28 -51.5t-29 -30t-23.5 -17q-10 -6 -40.5 -20.5t-47.5 -26t-17 -21.5q0 -9 19.5 -17.5t48 -18t56.5 -23.5t47.5 -39t19.5 -57q0 -71 -63.5 -113t-170.5 -42q-69 0 -112.5 26t-43.5 72q0 24 13 46.5t37.5 40.5t45.5 30t48 24l-18 12q-25 17 -25 36
q0 17 35.5 39t64.5 29q-19 0 -43.5 10t-47 36.5t-22.5 62.5q0 84 58.5 144.5t130.5 60.5z" />
    <glyph glyph-name="Hcircumflex" unicode="&#x124;" horiz-adv-x="627" 
d="M610 728q-19 0 -99 58q-30 -18 -72 -38t-51 -20q-11 0 -6 20q4 4 15.5 12t29.5 20.5t32 23.5q34 24 55 46q9 8 13 8q8 0 11 -8q18 -32 32 -48q11 -12 25 -25.5t22 -20.5t8 -8q-5 -20 -15 -20zM397 365q130 0 131 8l27 139q11 55 11 92q0 11 -21.5 19t-34.5 8q-2 0 -2 5
q0 14 8 22q12 -1 47.5 -3.5t60.5 -2.5q24 0 62.5 3t44.5 3v-3q0 -24 -7 -24q-8 0 -33 -8t-28 -15q-15 -33 -26 -93l-73 -376q-11 -55 -11 -90q0 -8 13.5 -14.5t27.5 -8.5l13 -2q2 0 2 -4q0 -11 -6 -23q-93 5 -104 5q-3 0 -110 -5q-2 2 -2 8q0 19 7 19q12 0 36 6.5t28 15.5
q15 34 26 96l32 165v1q0 5 -23.5 6.5t-113.5 1.5q-144 0 -146 -12l-32 -165q-11 -55 -11 -90q0 -8 13.5 -14.5t26.5 -8.5l14 -2q2 0 2 -4q0 -11 -6 -23q-92 5 -104 5q-2 0 -110 -5q-2 2 -2 8q0 19 7 19q12 0 36 6.5t28 15.5q15 34 26 96l71 370q11 55 11 92q0 11 -21.5 19
t-34.5 8q-2 0 -2 5q0 14 8 22q12 -1 47.5 -3.5t60.5 -2.5q24 0 61.5 3t44.5 3v-3q0 -24 -7 -24q-8 0 -33.5 -8t-28.5 -15q-16 -37 -26 -93l-25 -141v-1q0 -5 26.5 -6.5t123.5 -1.5z" />
    <glyph glyph-name="hcircumflex" unicode="&#x125;" horiz-adv-x="461" 
d="M311 728q-19 0 -99 58q-30 -18 -72 -38t-51 -20q-11 0 -6 20q4 4 15.5 12t29.5 20.5t32 23.5q34 24 55 46q9 8 13 8q8 0 11 -8q18 -32 32 -48q11 -12 25 -25.5t22 -20.5t8 -8q-5 -20 -15 -20zM381 435q50 0 50 -66q0 -45 -14 -109l-33 -154q-3 -12 -3 -25q0 -25 10 -25
q6 0 14.5 5.5t17 13.5t15.5 15.5t13 13.5l6 7q2 0 7.5 -9.5t5.5 -13.5q-13 -22 -54 -58t-72 -36q-16 0 -25 14.5t-9 37.5q0 16 7 53l35 165q7 33 7 54q0 43 -19 43q-33 0 -102.5 -90.5t-89.5 -192.5l-17 -78q-13 -4 -31 -4t-34 4l108 559q9 44 9 53q0 19 -61 19q-3 0 -3 6
q0 12 8 20q66 6 126 28q6 -3 6 -19q0 -8 -13 -75l-51 -261l-18 -92q10 18 43.5 62t82 89.5t78.5 45.5z" />
    <glyph glyph-name="Hbar" unicode="&#x126;" horiz-adv-x="684" 
d="M654 470l-64 -331q-12 -62 -11 -93q1 -7 24 -13.5t32 -6.5q3 0 0 -15q-2 -11 -4 -14q-93 5 -105 5q-6 0 -114 -5q-3 4 -0.5 16.5t6.5 12.5q12 0 36.5 6t29.5 14q15 34 24 89l31 158l-1 4q-88 2 -138 2q-143 0 -144 -5l-30 -155q-11 -58 -10 -93q1 -7 24 -13.5t32 -6.5
q3 -1 1 -12t-5 -17q-92 5 -107 5q-5 0 -112 -5q-3 5 -1 15q2 14 6 14q12 0 36.5 6t29.5 14q15 34 24 89l65 335h-31q-5 0 -2 13q3 15 10 25h31q14 71 13 104q-1 8 -23.5 14.5t-34.5 6.5q-3 0 -1 13q2 11 7 16q11 -1 48 -3.5t62 -2.5q18 0 36 1t39 2.5t34 2.5q1 -5 -1.5 -17
t-5.5 -12q-9 0 -35 -7t-29 -14q-14 -32 -28 -104q11 -1 143 -1q102 0 139 1q15 78 14 104q-1 8 -23.5 14.5t-34.5 6.5q-2 1 -2 6.5t2.5 13t5.5 9.5q11 -1 48.5 -3.5t62.5 -2.5q24 0 62.5 3t44.5 3q0 -10 -1 -15q-2 -14 -6 -14q-9 0 -35 -7t-29 -14q-13 -29 -28 -104h38
q6 0 3 -13q-2 -14 -11 -25h-37zM434 471q-102 0 -144 -1l-23 -118q0 -3 2 -3q90 -2 141 -2q54 0 138 2q2 2 2 4l23 117q-38 1 -139 1z" />
    <glyph glyph-name="hbar" unicode="&#x127;" horiz-adv-x="424" 
d="M167 549q7 36 7 64q-1 16 -41 16h-7q-5 0 -3 11q0 2 2.5 9t5.5 7q27 3 50 8t36.5 10t23 9.5t14.5 7.5l5 3h1q8 0 8 -16q-15 -32 -26 -87q-70 -347 -70 -350l1 -1l1 1q22 41 86 117.5t106 76.5q50 0 50 -66q0 -41 -16 -118l-30 -145q-2 -10 -2 -17q0 -37 23 -37
q9 0 24.5 18t27.5 36.5t13 18.5t3 -3.5t4.5 -9t2.5 -9.5q-9 -26 -43 -67.5t-67 -41.5q-56 0 -56 73q0 26 22 126t22 125q0 43 -19 43q-31 0 -97.5 -94t-86.5 -189l-17 -78q-13 -4 -31 -4t-34 4zM127 569h229q5 0 3 -10q-2 -15 -11 -30h-230q-2 0 -2.5 4.5t0.5 8.5
q3 16 11 27z" />
    <glyph glyph-name="Itilde" unicode="&#x128;" horiz-adv-x="263" 
d="M124 737q-7 0 -3 17q3 16 23 38q39 40 80 40q31 0 75 -26.5t75 -26.5q11 0 27.5 11t28.5 22t13 11q7 0 3 -17q-3 -16 -23 -39q-36 -39 -78 -39q-32 0 -75.5 26.5t-75.5 26.5q-15 0 -42 -22t-28 -22zM272 515l-71 -376q-11 -55 -11 -90q0 -8 13.5 -14.5t26.5 -8.5l14 -2
q2 0 2 -4q0 -11 -6 -23q-92 5 -104 5q-2 0 -110 -5q-2 2 -2 8q0 19 7 19q12 0 36 6.5t28 15.5q15 34 26 96l71 370q11 55 11 92q0 11 -21.5 19t-34.5 8q-2 0 -2 5q0 14 8 22q12 -1 47.5 -3.5t60.5 -2.5q24 0 61.5 3t44.5 3v-3q0 -24 -7 -24q-8 0 -33.5 -8t-28.5 -15
q-13 -28 -26 -93z" />
    <glyph glyph-name="itilde" unicode="&#x129;" horiz-adv-x="216" 
d="M78 600q28 0 66 -26.5t66 -26.5q10 0 24 11t24.5 22t11.5 11q4 0 4 -9q0 -23 -26.5 -54.5t-63.5 -31.5q-28 0 -66.5 26.5t-66.5 26.5q-14 0 -37 -22t-24 -22q-5 0 -5 6q0 25 28.5 57t64.5 32zM165 363q0 -25 -23 -143.5t-23 -130.5q0 -37 22 -37q9 0 24.5 18t27.5 36.5
t13 18.5t3 -3.5t4.5 -9t2.5 -9.5q-9 -26 -43 -67.5t-67 -41.5q-56 0 -56 73q0 29 7 61l36 180q3 21 3 28q0 41 -28 41q-10 0 -34 -37l-25 -36q-1 0 -3 3.5t-5 9t-3 9.5q9 26 43 67.5t67 41.5q57 0 57 -72z" />
    <glyph glyph-name="Imacron" unicode="&#x12a;" horiz-adv-x="263" 
d="M150 737q0 5 6.5 22t14.5 17h232q5 0 4 -7q-3 -13 -13 -34q-1 -3 -3.5 -4.5t-3.5 -2.5h-2h-230l-5 2q-1 3 0 7zM272 515l-71 -376q-11 -55 -11 -90q0 -8 13.5 -14.5t26.5 -8.5l14 -2q2 0 2 -4q0 -11 -6 -23q-92 5 -104 5q-2 0 -110 -5q-2 2 -2 8q0 19 7 19q12 0 36 6.5
t28 15.5q15 34 26 96l71 370q11 55 11 92q0 11 -21.5 19t-34.5 8q-2 0 -2 5q0 14 8 22q12 -1 47.5 -3.5t60.5 -2.5q24 0 61.5 3t44.5 3v-3q0 -24 -7 -24q-8 0 -33.5 -8t-28.5 -15q-13 -28 -26 -93z" />
    <glyph glyph-name="imacron" unicode="&#x12b;" horiz-adv-x="216" 
d="M27 505q0 4 6.5 20.5t12.5 16.5h193q5 0 4 -7q-2 -9 -12 -32l-8 -7h-192l-4 2q-1 3 0 7zM165 363q0 -25 -23 -143.5t-23 -130.5q0 -37 22 -37q9 0 24.5 18t27.5 36.5t13 18.5t3 -3.5t4.5 -9t2.5 -9.5q-9 -26 -43 -67.5t-67 -41.5q-56 0 -56 73q0 29 7 61l36 180
q3 21 3 28q0 41 -28 41q-10 0 -34 -37l-25 -36q-1 0 -3 3.5t-5 9t-3 9.5q9 26 43 67.5t67 41.5q57 0 57 -72z" />
    <glyph glyph-name="Ibreve" unicode="&#x12c;" horiz-adv-x="263" 
d="M283 776q30 0 55 15.5t37 42.5q0 2 5 2t10 -4t4 -7l-1 -3q-1 -3 -1 -4q-13 -36 -47.5 -63t-70.5 -27q-37 0 -60.5 26.5t-22.5 64.5v6q1 3 8 7t11 4t4 -2q1 -27 20 -42.5t49 -15.5zM272 515l-71 -376q-11 -55 -11 -90q0 -8 13.5 -14.5t26.5 -8.5l14 -2q2 0 2 -4
q0 -11 -6 -23q-92 5 -104 5q-2 0 -110 -5q-2 2 -2 8q0 19 7 19q12 0 36 6.5t28 15.5q15 34 26 96l71 370q11 55 11 92q0 11 -21.5 19t-34.5 8q-2 0 -2 5q0 14 8 22q12 -1 47.5 -3.5t60.5 -2.5q24 0 61.5 3t44.5 3v-3q0 -24 -7 -24q-8 0 -33.5 -8t-28.5 -15q-13 -28 -26 -93z
" />
    <glyph glyph-name="ibreve" unicode="&#x12d;" horiz-adv-x="216" 
d="M151 542q29 0 55 20t40 52q0 3 4 3q5 0 10 -4.5t4 -8.5l-1 -4q-1 -3 -1 -4q-15 -41 -49 -70.5t-71 -29.5t-60 29t-21 72v4l1 3q1 4 7.5 8.5t11.5 4.5q3 0 3 -3q1 -32 19.5 -52t47.5 -20zM165 363q0 -25 -23 -143.5t-23 -130.5q0 -37 22 -37q9 0 24.5 18t27.5 36.5
t13 18.5t3 -3.5t4.5 -9t2.5 -9.5q-9 -26 -43 -67.5t-67 -41.5q-56 0 -56 73q0 29 7 61l36 180q3 21 3 28q0 41 -28 41q-10 0 -34 -37l-25 -36q-1 0 -3 3.5t-5 9t-3 9.5q9 26 43 67.5t67 41.5q57 0 57 -72z" />
    <glyph glyph-name="Iogonek" unicode="&#x12e;" horiz-adv-x="341" 
d="M245 515l-71 -376q-11 -55 -11 -90q0 -8 13.5 -14.5t27.5 -8.5l13 -2q2 0 2 -4q0 -11 -6 -23q-21 0 -47 -7q-52 -15 -89 -55.5t-37 -73.5q0 -32 31 -32q21 0 40 9.5t30.5 19t12.5 9.5q5 -1 1 -14t-7 -16q-60 -67 -111 -67q-22 0 -36 14.5t-14 35.5q0 46 39.5 103.5
t82.5 78.5q-3 0 -110 -5q-2 2 -2 8q0 19 7 19q12 0 36 6.5t28 15.5q15 34 26 96l71 370q11 55 11 92q0 11 -21.5 19t-34.5 8q-2 0 -2 5q0 14 8 22q12 -1 47.5 -3.5t60.5 -2.5q24 0 61.5 3t44.5 3v-3q0 -24 -7 -24q-8 0 -33.5 -8t-28.5 -15q-13 -28 -26 -93z" />
    <glyph glyph-name="iogonek" unicode="&#x12f;" horiz-adv-x="273" 
d="M84 -139q0 -32 31 -32q21 0 40 9.5t30.5 19t12.5 9.5q5 -1 1 -14t-7 -16q-60 -67 -111 -67q-22 0 -36.5 14.5t-14.5 35.5q0 35 31 90t60 87q-46 6 -46 70q0 29 7 61l36 180q3 21 3 28q0 41 -28 41q-10 0 -35 -37l-24 -36q-1 0 -3 3.5t-5 9t-3 9.5q9 26 43 67.5t67 41.5
q57 0 57 -72q0 -17 -9 -66.5t-20.5 -108.5t-14.5 -80q-2 -18 -2 -19q0 -37 22 -37q9 0 24.5 18t27.5 36.5t13 18.5t3 -3.5t4.5 -9t2.5 -9.5q-15 -38 -58 -83q-99 -103 -99 -159zM191 646q15 0 25.5 -12t10.5 -28q0 -24 -15.5 -42t-38.5 -18q-16 0 -25 12.5t-9 30.5
q0 23 15 40t37 17z" />
    <glyph glyph-name="Idotaccent" unicode="&#x130;" horiz-adv-x="263" 
d="M237 778q4 21 20.5 35.5t36.5 14.5q19 0 29.5 -14.5t6.5 -35.5t-20 -35.5t-36 -14.5q-19 0 -30 14.5t-7 35.5zM272 515l-71 -376q-11 -55 -11 -90q0 -8 13.5 -14.5t26.5 -8.5l14 -2q2 0 2 -4q0 -11 -6 -23q-92 5 -104 5q-2 0 -110 -5q-2 2 -2 8q0 19 7 19q12 0 36 6.5
t28 15.5q15 34 26 96l71 370q11 55 11 92q0 11 -21.5 19t-34.5 8q-2 0 -2 5q0 14 8 22q12 -1 47.5 -3.5t60.5 -2.5q24 0 61.5 3t44.5 3v-3q0 -24 -7 -24q-8 0 -33.5 -8t-28.5 -15q-13 -28 -26 -93z" />
    <glyph glyph-name="dotlessi" unicode="&#x131;" horiz-adv-x="216" 
d="M165 363q0 -25 -23 -143.5t-23 -130.5q0 -37 22 -37q9 0 24.5 18t27.5 36.5t13 18.5t3 -3.5t4.5 -9t2.5 -9.5q-9 -26 -43 -67.5t-67 -41.5q-56 0 -56 73q0 29 7 61l36 180q3 21 3 28q0 41 -28 41q-10 0 -34 -37l-25 -36q-1 0 -3 3.5t-5 9t-3 9.5q9 26 43 67.5t67 41.5
q57 0 57 -72z" />
    <glyph glyph-name="IJ" unicode="&#x132;" horiz-adv-x="521" 
d="M402 109l75 403q11 64 11 92q0 11 -25 19t-38 8q-2 0 -2 5q0 14 8 22q12 -1 47.5 -3.5t60.5 -2.5q24 0 61.5 3t44.5 3v-3q0 -24 -7 -24q-8 0 -30 -8t-25 -15q-16 -37 -26 -93l-75 -399q-14 -76 -39.5 -137.5t-54 -100t-61 -64.5t-60.5 -36.5t-54 -10.5q-6 7 -6 18l1 6
q82 26 124 98t70 220zM296 515l-71 -376q-11 -55 -11 -90q0 -8 13.5 -14.5t26.5 -8.5l14 -2q2 0 2 -4q0 -11 -6 -23q-92 5 -104 5q-2 0 -110 -5q-2 2 -2 8q0 19 7 19q12 0 36 6.5t28 15.5q15 34 26 96l71 370q11 55 11 92q0 11 -21.5 19t-34.5 8q-2 0 -2 5q0 14 8 22
q12 -1 47.5 -3.5t60.5 -2.5q24 0 61.5 3t44.5 3v-3q0 -24 -7 -24q-8 0 -33.5 -8t-28.5 -15q-13 -28 -26 -93z" />
    <glyph glyph-name="ij" unicode="&#x133;" horiz-adv-x="453" 
d="M226 435q16 0 25 -14.5t9 -37.5q0 -21 -6 -53l-44 -224q-3 -12 -3 -25q0 -25 10 -25q6 0 14.5 5.5t17 13.5t15.5 15.5t13 13.5l6 7q2 0 7.5 -9.5t5.5 -13.5q-13 -22 -54 -58t-72 -36q-16 0 -25 14.5t-9 37.5q0 16 7 53l41 209q5 31 5 40q0 25 -10 25q-4 0 -11 -4.5
t-14.5 -11.5t-13.5 -13t-11 -12l-5 -6q-2 0 -7.5 9.5t-5.5 13.5q12 20 50.5 53t64.5 33zM255 646q15 0 25.5 -12t10.5 -28q0 -24 -15.5 -42t-38.5 -18q-16 0 -25 12.5t-9 30.5q0 23 15 40t37 17zM453 435q16 0 25 -14.5t9 -37.5q0 -20 -6 -53l-55 -285q-21 -108 -66 -169
q-28 -38 -68 -68.5t-71 -42.5q-9 7 -9 20q50 29 88 91.5t54 145.5l57 286q5 36 5 40q0 25 -10 25q-4 0 -11 -4.5t-14.5 -11.5t-13.5 -13t-11 -12l-5 -6q-2 0 -7.5 9.5t-5.5 13.5q12 20 50.5 53t64.5 33zM482 646q15 0 25.5 -12t10.5 -28q0 -24 -15.5 -42t-38.5 -18
q-16 0 -25 12.5t-9 30.5q0 23 15 40t37 17z" />
    <glyph glyph-name="Jcircumflex" unicode="&#x134;" horiz-adv-x="254" 
d="M382 728q-19 0 -99 58q-30 -18 -72 -38t-51 -20q-11 0 -6 20q4 4 15.5 12t29.5 20.5t32 23.5q34 24 55 46q9 8 13 8q8 0 11 -8q18 -32 32 -48q11 -12 25 -25.5t22 -20.5t8 -8q-5 -20 -15 -20zM115 109l75 403q11 64 11 92q0 11 -25 19t-38 8q-2 0 -2 5q0 14 8 22
q12 -1 47.5 -3.5t60.5 -2.5q24 0 61.5 3t44.5 3v-3q0 -24 -7 -24q-8 0 -30 -8t-25 -15q-16 -37 -26 -93l-75 -399q-14 -76 -39.5 -137.5t-54 -100t-61 -64.5t-60.5 -36.5t-54 -10.5q-6 7 -6 18l1 6q82 26 124 98t70 220z" />
    <glyph glyph-name="jcircumflex" unicode="&#x135;" horiz-adv-x="315" 
d="M337 496q-17 0 -86 58q-26 -18 -62.5 -38t-44.5 -20q-5 0 -6 7.5t0 12.5l62 51q37 30 54 51q9 9 11 9q3 0 9 -9q24 -39 28 -44q9 -12 21.5 -26.5t19.5 -22.5t7 -9q-5 -20 -13 -20zM206 435q57 0 57 -72q0 -33 -57 -318q-21 -108 -66 -169q-28 -38 -68 -68.5t-71 -42.5
q-9 9 -9 20q0 1 9 7q56 42 86 94.5t47 135.5l57 286q3 21 3 28q0 41 -28 41q-10 0 -34 -37l-25 -36q-1 0 -3 3.5t-5 9t-3 9.5q9 26 43 67.5t67 41.5z" />
    <glyph glyph-name="Kcommaaccent" unicode="&#x136;" horiz-adv-x="642" 
d="M253 -108q0 23 27.5 39t58.5 16q13 -10 13 -41q0 -37 -32 -79t-62 -58q-2 -2 -8 -2q-18 0 -18 7q0 2 11 8.5t23.5 20.5t16.5 32q3 16 -13.5 30.5t-16.5 26.5zM272 515l-71 -376q-11 -55 -11 -90q0 -8 13.5 -14.5t26.5 -8.5l14 -2q2 0 2 -4q0 -11 -6 -23q-92 5 -104 5
q-2 0 -110 -5q-2 2 -2 8q0 19 7 19q12 0 36 6.5t28 15.5q15 34 26 96l71 370q11 55 11 92q0 11 -21.5 19t-34.5 8q-2 0 -2 5q0 14 8 22q12 -1 47.5 -3.5t60.5 -2.5q24 0 61.5 3t44.5 3v-3q0 -24 -7 -24q-8 0 -33.5 -8t-28.5 -15q-13 -28 -26 -93zM237 326q46 28 123.5 101.5
t147.5 150.5q1 1 7 7.5t10.5 11.5t8.5 11.5t4 9.5q0 9 -17.5 13t-30.5 4q-3 0 -3 6q0 9 5 17q12 -1 31.5 -2.5t35.5 -2.5t31 -1q24 0 62.5 3t44.5 3q0 -23 -6 -23q-70 -8 -106 -44l-244 -244q-5 -5 -5 -12q0 -8 6 -16l204 -247q17 -21 54 -32.5t51 -11.5q2 0 2 -6
q0 -11 -5 -21q-51 -3 -75 -3q-32 0 -59.5 10t-39 19t-17.5 17q-199 253 -220 282z" />
    <glyph glyph-name="kcommaaccent" unicode="&#x137;" horiz-adv-x="485" 
d="M218 -110q0 23 27.5 39t58.5 16q13 -10 13 -41q0 -37 -32 -79t-62 -58q-2 -2 -8 -2q-18 0 -18 7q0 2 11 8.5t23.5 20.5t16.5 32q3 16 -13.5 30.5t-16.5 26.5zM384 435q30 0 52.5 -19.5t22.5 -48.5q0 -65 -57.5 -107t-147.5 -57q60 -90 91.5 -119t53.5 -29q18 0 34.5 15
t24.5 29q3 0 9.5 -8t6.5 -12q-5 -17 -37 -50t-61 -33q-13 0 -25.5 4t-25 13t-23 17t-23 24t-20.5 25.5t-20.5 29.5l-17.5 28t-17 29t-15 25l-37 -191q-18 -5 -33 -5q-13 0 -33 5l109 559q9 41 9 53q0 19 -61 19q-3 0 -3 6q0 12 8 20q65 6 126 28q6 -3 6 -19q0 -12 -13 -75
l-52 -269l11 13q11 13 26.5 28.5t36 32.5t46 28t49.5 11zM348 388q-32 0 -87.5 -67t-55.5 -89q0 -2 2 -2q4 0 10.5 1t25 4.5t36 8.5t38 14.5t35.5 21t25.5 28.5t10.5 37q0 43 -40 43z" />
    <glyph glyph-name="kgreenlandic" unicode="&#x138;" horiz-adv-x="447" 
d="M150 321q1 0 11 11.5t25.5 28.5t34.5 34t42.5 28.5t45.5 11.5q34 0 58.5 -23.5t24.5 -57.5q0 -35 -15 -61.5t-44.5 -43t-62.5 -26.5t-79 -18q64 -95 95.5 -122.5t59.5 -27.5q9 0 18.5 6.5t14.5 12.5t12 16.5t7 11.5q1 1 4 1q12 0 14 -12q-7 -24 -35 -57.5t-59 -33.5
q-22 0 -44.5 11.5t-45.5 37t-37.5 43.5t-39 53.5t-31.5 45.5l-1 2q-1 0 -1 -2l-37 -191q-18 -5 -33 -5q-13 0 -33 5l61 310q9 40 9 43q0 24 -48 24q-6 0 -6 3q0 6 4 13.5t6 7.5q15 0 34 4t35.5 9.5t31 11t22.5 9.5l9 4q5 0 5 -16q-19 -32 -30 -87l-4 -9q-3 -6 2 -6zM140 230
q7 1 19.5 2.5t43.5 9.5t55 18t43.5 29.5t19.5 43.5t-10 39.5t-30 15.5q-32 0 -87.5 -67t-55.5 -89q0 -2 2 -2z" />
    <glyph glyph-name="Lacute" unicode="&#x139;" horiz-adv-x="498" 
d="M248 711q-13 0 -13 10q0 6 38 38.5t61 47.5q6 2 17 2q27 0 42.5 -7.5t15.5 -16.5q0 -17 -71 -45.5t-90 -28.5zM202 139q-10 -58 -10 -74q0 -15 8.5 -18t53.5 -3h45q87 0 121 17q16 8 37.5 35.5t40.5 65.5q3 6 15 6q17 0 21 -6q-70 -130 -82 -166q-52 0 -164 3t-152 3
l-111 -5q-1 1 -1 8q0 24 7 24q13 0 37 6t28 14q14 29 26 93l71 370q11 55 11 92q0 11 -21.5 19t-34.5 8q-2 0 -2 5q0 14 8 22q12 -1 47.5 -3.5t60.5 -2.5q24 0 61.5 3t44.5 3v-3q0 -24 -7 -24q-8 0 -33.5 -8t-28.5 -15q-13 -28 -26 -93z" />
    <glyph glyph-name="lacute" unicode="&#x13a;" horiz-adv-x="248" 
d="M185 711q-13 0 -13 10q0 6 38 38.5t61 47.5q6 2 17 2q27 0 42.5 -7.5t15.5 -16.5q0 -17 -71 -45.5t-90 -28.5zM93 99l94 485q3 15 3 28q0 19 -61 19q-3 0 -3 6q0 12 8 20q68 6 128 28q6 -3 6 -19q0 -12 -13 -75l-95 -485q-3 -12 -3 -25q0 -25 10 -25q6 0 14.5 5.5
t17.5 13.5t16 15.5t12.5 14l5.5 6.5q3 0 8 -9.5t5 -13.5q-13 -22 -54 -58t-72 -36q-15 0 -24.5 14.5t-9.5 37.5q0 17 7 53z" />
    <glyph glyph-name="Lcommaaccent" unicode="&#x13b;" horiz-adv-x="498" 
d="M191 -109q0 23 27.5 39t58.5 16q13 -10 13 -41q0 -37 -32 -79t-62 -58q-2 -2 -8 -2q-18 0 -18 7q0 2 11 8.5t23.5 20.5t16.5 32q3 16 -13.5 30.5t-16.5 26.5zM202 139q-10 -58 -10 -74q0 -15 8.5 -18t53.5 -3h45q87 0 121 17q16 8 37.5 35.5t40.5 65.5q3 6 15 6
q17 0 21 -6q-70 -130 -82 -166q-52 0 -164 3t-152 3l-111 -5q-1 1 -1 8q0 24 7 24q13 0 37 6t28 14q14 29 26 93l71 370q11 55 11 92q0 11 -21.5 19t-34.5 8q-2 0 -2 5q0 14 8 22q12 -1 47.5 -3.5t60.5 -2.5q24 0 61.5 3t44.5 3v-3q0 -24 -7 -24q-8 0 -33.5 -8t-28.5 -15
q-13 -28 -26 -93z" />
    <glyph glyph-name="lcommaaccent" unicode="&#x13c;" horiz-adv-x="248" 
d="M76 -108q0 23 27.5 39t58.5 16q13 -10 13 -41q0 -37 -32 -79t-62 -58q-2 -2 -8 -2q-18 0 -18 7q0 2 11 8.5t23.5 20.5t16.5 32q3 16 -13.5 30.5t-16.5 26.5zM93 99l94 485q3 15 3 28q0 19 -61 19q-3 0 -3 6q0 12 8 20q68 6 128 28q6 -3 6 -19q0 -12 -13 -75l-95 -485
q-3 -12 -3 -25q0 -25 10 -25q6 0 14.5 5.5t17.5 13.5t16 15.5t12.5 14l5.5 6.5q3 0 8 -9.5t5 -13.5q-13 -22 -54 -58t-72 -36q-15 0 -24.5 14.5t-9.5 37.5q0 17 7 53z" />
    <glyph glyph-name="Lcaron" unicode="&#x13d;" horiz-adv-x="498" 
d="M555 634q0 28 21.5 44t52.5 16q5 -9 5 -28q0 -14 -3 -34q-6 -31 -39 -71.5t-55 -52.5q-1 -1 -7 -1q-4 0 -7 4t-3 8l11 9q12 9 23.5 26.5t11.5 38.5q0 5 -5.5 18t-5.5 23zM202 139q-10 -58 -10 -74q0 -15 8.5 -18t53.5 -3h45q87 0 121 17q16 8 37.5 35.5t40.5 65.5
q3 6 15 6q17 0 21 -6q-70 -130 -82 -166q-52 0 -164 3t-152 3l-111 -5q-1 1 -1 8q0 24 7 24q13 0 37 6t28 14q14 29 26 93l71 370q11 55 11 92q0 11 -21.5 19t-34.5 8q-2 0 -2 5q0 14 8 22q12 -1 47.5 -3.5t60.5 -2.5q24 0 61.5 3t44.5 3v-3q0 -24 -7 -24q-8 0 -33.5 -8
t-28.5 -15q-13 -28 -26 -93z" />
    <glyph glyph-name="lcaron" unicode="&#x13e;" horiz-adv-x="248" 
d="M341 634q0 28 21.5 44t52.5 16q5 -9 5 -28q0 -14 -3 -34q-6 -31 -39 -71.5t-55 -52.5q-1 -1 -7 -1q-4 0 -7 4t-3 8l11 9q12 9 23.5 26.5t11.5 38.5q0 5 -5.5 18t-5.5 23zM93 99l94 485q3 15 3 28q0 19 -61 19q-3 0 -3 6q0 12 8 20q68 6 128 28q6 -3 6 -19q0 -12 -13 -75
l-95 -485q-3 -12 -3 -25q0 -25 10 -25q6 0 14.5 5.5t17.5 13.5t16 15.5t12.5 14l5.5 6.5q3 0 8 -9.5t5 -13.5q-13 -22 -54 -58t-72 -36q-15 0 -24.5 14.5t-9.5 37.5q0 17 7 53z" />
    <glyph glyph-name="Ldot" unicode="&#x13f;" horiz-adv-x="498" 
d="M402 333q4 21 20.5 35.5t36.5 14.5q19 0 29.5 -14.5t6.5 -35.5t-20 -35.5t-36 -14.5q-19 0 -30 14.5t-7 35.5zM202 139q-10 -58 -10 -74q0 -15 8.5 -18t53.5 -3h45q87 0 121 17q16 8 37.5 35.5t40.5 65.5q3 6 15 6q17 0 21 -6q-70 -130 -82 -166q-52 0 -164 3t-152 3
l-111 -5q-1 1 -1 8q0 24 7 24q13 0 37 6t28 14q14 29 26 93l71 370q11 55 11 92q0 11 -21.5 19t-34.5 8q-2 0 -2 5q0 14 8 22q12 -1 47.5 -3.5t60.5 -2.5q24 0 61.5 3t44.5 3v-3q0 -24 -7 -24q-8 0 -33.5 -8t-28.5 -15q-13 -28 -26 -93z" />
    <glyph glyph-name="ldot" unicode="&#x140;" horiz-adv-x="354" 
d="M265 299q4 21 20.5 35.5t36.5 14.5q19 0 29.5 -14.5t6.5 -35.5t-20 -35.5t-36 -14.5q-19 0 -30 14.5t-7 35.5zM93 99l94 485q3 15 3 28q0 19 -61 19q-3 0 -3 6q0 12 8 20q68 6 128 28q6 -3 6 -19q0 -12 -13 -75l-95 -485q-3 -12 -3 -25q0 -25 10 -25q6 0 14.5 5.5
t17.5 13.5t16 15.5t12.5 14l5.5 6.5q3 0 8 -9.5t5 -13.5q-13 -22 -54 -58t-72 -36q-15 0 -24.5 14.5t-9.5 37.5q0 17 7 53z" />
    <glyph glyph-name="Lslash" unicode="&#x141;" horiz-adv-x="570" 
d="M222 521q12 71 11 91q-1 8 -23.5 14.5t-34.5 6.5q-3 0 -1 13q2 11 7 16q11 -1 48 -3.5t62 -2.5q18 0 36 1t39 2.5t34 2.5q0 -10 -1 -15q-2 -14 -6 -14q-9 0 -35 -7t-29 -14q-14 -32 -26 -93l-39 -199l199 127q4 -5 8.5 -17t1.5 -14l-217 -136l-27 -138q-9 -49 -8 -88
q1 -10 61 -10h45q86 0 120 17q16 8 38 35.5t40 65.5q3 6 14 6q18 0 22 -6q-7 -13 -22 -41.5t-24.5 -46t-20 -40.5t-15.5 -38q-48 0 -150.5 3t-165.5 3l-113 -3q-3 3 0 16q2 13 6 13q13 0 37 6t31 15q10 13 25 94l15 77l-64 -42q-16 24 -10 29l81 53z" />
    <glyph glyph-name="lslash" unicode="&#x142;" horiz-adv-x="249" 
d="M90 260q-14 21 -7 28l68 47l42 214q7 40 7 64q-1 16 -41 16h-7q-5 0 -3 11q0 2 2.5 9t5.5 7q27 3 50 8t36.5 10t23 9.5t14.5 7.5l5 3h1q8 0 8 -16q-15 -32 -26 -87l-39 -203l51 35q13 -22 8 -27l-67 -46l-41 -215q-12 -65 -11 -89q0 -7 19 -13.5t28 -6.5q3 -1 1.5 -12.5
t-4.5 -16.5q-85 5 -91 5t-96 -5l6 29q10 0 31.5 6.5t24.5 13.5q9 22 19 70l36 181z" />
    <glyph glyph-name="Nacute" unicode="&#x143;" horiz-adv-x="663" 
d="M474 711q-13 0 -13 10q0 6 38 38.5t61 47.5q6 2 17 2q27 0 42.5 -7.5t15.5 -16.5q0 -17 -71 -45.5t-90 -28.5zM257 654q18 0 94 4q15 -59 73 -196.5t119 -258.5q7 20 11 41l51 269q13 65 13 92q0 12 -27.5 19t-42.5 7q-2 0 -2 7q0 15 7 20q103 -5 105 -5q14 0 109 5
q0 -27 -6 -27q-10 0 -42.5 -7.5t-35.5 -14.5q-13 -32 -25 -93l-75 -380q-6 -31 -14 -80t-10 -60q-4 -4 -10 -4q-14 0 -26 23q-1 2 -246 566l-89 -440q-10 -49 -10 -89q0 -8 16 -15t32 -10l17 -3q2 0 2 -5q0 -12 -5 -22q-92 5 -104 5q-2 0 -110 -5q-2 2 -2 8q0 19 7 19
q12 0 42.5 8t34.5 16q11 22 27 96l77 372q9 44 9 90q0 12 -26 18.5t-42 6.5q-2 0 -2 7q0 15 7 20q78 -4 99 -4z" />
    <glyph glyph-name="nacute" unicode="&#x144;" horiz-adv-x="492" 
d="M346 496q-2 0 -4.5 4t-2.5 8q0 7 42.5 55t72.5 71q8 5 26 5q39 0 39 -24q0 -22 -80.5 -70.5t-92.5 -48.5zM200 435q16 0 25 -14.5t9 -37.5q0 -22 -6 -53l-18 -92q10 18 43.5 62t82 89.5t78.5 45.5q50 0 50 -66q0 -45 -14 -109l-33 -154q-3 -12 -3 -25q0 -25 10 -25
q6 0 14.5 5.5t17 13.5t15.5 15.5t13 13.5l6 7q2 0 7.5 -9.5t5.5 -13.5q-13 -22 -54 -58t-72 -36q-16 0 -25 14.5t-9 37.5q0 16 7 53l35 165q7 33 7 54q0 43 -19 43q-33 0 -102.5 -90.5t-89.5 -192.5l-17 -78q-13 -4 -31 -4t-34 4l59 308q5 36 5 40q0 25 -10 25
q-4 0 -11 -4.5t-14.5 -11.5t-13.5 -13t-11 -12l-5 -6q-2 0 -7.5 9.5t-5.5 13.5q12 20 50.5 53t64.5 33z" />
    <glyph glyph-name="Ncommaaccent" unicode="&#x145;" horiz-adv-x="663" 
d="M279 -108q0 23 27.5 39t58.5 16q13 -10 13 -41q0 -37 -32 -79t-62 -58q-2 -2 -8 -2q-18 0 -18 7q0 2 11 8.5t23.5 20.5t16.5 32q3 16 -13.5 30.5t-16.5 26.5zM257 654q18 0 94 4q15 -59 73 -196.5t119 -258.5q7 20 11 41l51 269q13 65 13 92q0 12 -27.5 19t-42.5 7
q-2 0 -2 7q0 15 7 20q103 -5 105 -5q14 0 109 5q0 -27 -6 -27q-10 0 -42.5 -7.5t-35.5 -14.5q-13 -32 -25 -93l-75 -380q-6 -31 -14 -80t-10 -60q-4 -4 -10 -4q-14 0 -26 23q-1 2 -246 566l-89 -440q-10 -49 -10 -89q0 -8 16 -15t32 -10l17 -3q2 0 2 -5q0 -12 -5 -22
q-92 5 -104 5q-2 0 -110 -5q-2 2 -2 8q0 19 7 19q12 0 42.5 8t34.5 16q11 22 27 96l77 372q9 44 9 90q0 12 -26 18.5t-42 6.5q-2 0 -2 7q0 15 7 20q78 -4 99 -4z" />
    <glyph glyph-name="ncommaaccent" unicode="&#x146;" horiz-adv-x="492" 
d="M212 -108q0 23 27.5 39t58.5 16q13 -10 13 -41q0 -37 -32 -79t-62 -58q-2 -2 -8 -2q-18 0 -18 7q0 2 11 8.5t23.5 20.5t16.5 32q3 16 -13.5 30.5t-16.5 26.5zM200 435q16 0 25 -14.5t9 -37.5q0 -22 -6 -53l-18 -92q10 18 43.5 62t82 89.5t78.5 45.5q50 0 50 -66
q0 -45 -14 -109l-33 -154q-3 -12 -3 -25q0 -25 10 -25q6 0 14.5 5.5t17 13.5t15.5 15.5t13 13.5l6 7q2 0 7.5 -9.5t5.5 -13.5q-13 -22 -54 -58t-72 -36q-16 0 -25 14.5t-9 37.5q0 16 7 53l35 165q7 33 7 54q0 43 -19 43q-33 0 -102.5 -90.5t-89.5 -192.5l-17 -78
q-13 -4 -31 -4t-34 4l59 308q5 36 5 40q0 25 -10 25q-4 0 -11 -4.5t-14.5 -11.5t-13.5 -13t-11 -12l-5 -6q-2 0 -7.5 9.5t-5.5 13.5q12 20 50.5 53t64.5 33z" />
    <glyph glyph-name="Ncaron" unicode="&#x147;" horiz-adv-x="663" 
d="M490 800q91 58 109 58q9 0 4 -20q-1 -1 -10.5 -8t-26 -20.5t-31.5 -25.5q-26 -23 -48 -48q-6 -8 -11 -8q-4 0 -8 8q-9 19 -30 46q-11 14 -27 33t-19 23q5 20 13 20t37 -20t48 -38zM257 654q18 0 94 4q15 -59 73 -196.5t119 -258.5q7 20 11 41l51 269q13 65 13 92
q0 12 -27.5 19t-42.5 7q-2 0 -2 7q0 15 7 20q103 -5 105 -5q14 0 109 5q0 -27 -6 -27q-10 0 -42.5 -7.5t-35.5 -14.5q-13 -32 -25 -93l-75 -380q-6 -31 -14 -80t-10 -60q-4 -4 -10 -4q-14 0 -26 23q-1 2 -246 566l-89 -440q-10 -49 -10 -89q0 -8 16 -15t32 -10l17 -3
q2 0 2 -5q0 -12 -5 -22q-92 5 -104 5q-2 0 -110 -5q-2 2 -2 8q0 19 7 19q12 0 42.5 8t34.5 16q11 22 27 96l77 372q9 44 9 90q0 12 -26 18.5t-42 6.5q-2 0 -2 7q0 15 7 20q78 -4 99 -4z" />
    <glyph glyph-name="ncaron" unicode="&#x148;" horiz-adv-x="492" 
d="M337 578q83 66 99 66q8 0 3 -23q-1 -1 -10 -9t-24 -23l-29 -29q-10 -12 -44 -55q-6 -9 -10 -9t-7 9q-10 27 -24 52q-9 17 -22.5 38.5t-15.5 25.5q5 23 13 23q7 0 31 -22.5t40 -43.5zM200 435q16 0 25 -14.5t9 -37.5q0 -22 -6 -53l-18 -92q10 18 43.5 62t82 89.5
t78.5 45.5q50 0 50 -66q0 -45 -14 -109l-33 -154q-3 -12 -3 -25q0 -25 10 -25q6 0 14.5 5.5t17 13.5t15.5 15.5t13 13.5l6 7q2 0 7.5 -9.5t5.5 -13.5q-13 -22 -54 -58t-72 -36q-16 0 -25 14.5t-9 37.5q0 16 7 53l35 165q7 33 7 54q0 43 -19 43q-33 0 -102.5 -90.5
t-89.5 -192.5l-17 -78q-13 -4 -31 -4t-34 4l59 308q5 36 5 40q0 25 -10 25q-4 0 -11 -4.5t-14.5 -11.5t-13.5 -13t-11 -12l-5 -6q-2 0 -7.5 9.5t-5.5 13.5q12 20 50.5 53t64.5 33z" />
    <glyph glyph-name="napostrophe" unicode="&#x149;" horiz-adv-x="624" 
d="M280 435q16 0 25 -14.5t9 -37.5q0 -22 -6 -53l-18 -92q10 18 43.5 62t82 89.5t78.5 45.5q50 0 50 -66q0 -45 -14 -109l-33 -154q-3 -12 -3 -25q0 -25 10 -25q6 0 14.5 5.5t17 13.5t15.5 15.5t13 13.5l6 7q2 0 7.5 -9.5t5.5 -13.5q-13 -22 -54 -58t-72 -36q-16 0 -25 14.5
t-9 37.5q0 16 7 53l35 165q7 33 7 54q0 43 -19 43q-33 0 -102.5 -90.5t-89.5 -192.5l-17 -78q-13 -4 -31 -4t-34 4l59 308q5 36 5 40q0 25 -10 25q-4 0 -11 -4.5t-14.5 -11.5t-13.5 -13t-11 -12l-5 -6q-2 0 -7.5 9.5t-5.5 13.5q12 20 50.5 53t64.5 33zM122 592q0 28 21.5 44
t52.5 16q5 -9 5 -28q0 -14 -3 -34q-6 -31 -39 -71.5t-55 -52.5q-1 -1 -7 -1q-4 0 -7 4t-3 8l11 9q12 9 23.5 26.5t11.5 38.5q0 5 -5.5 18t-5.5 23z" />
    <glyph glyph-name="Eng" unicode="&#x14a;" horiz-adv-x="682" 
d="M553 80q-12 -64 -43.5 -119.5t-67 -89.5t-69 -59t-55.5 -35l-23 -10q-3 0 -8 5.5t-5 10.5l2 13q16 10 38 27t56 49t64.5 79t45.5 98l-231 532l-89 -440q-10 -49 -10 -89q0 -8 16 -15t32 -10l17 -3q2 0 2 -5q0 -12 -5 -22q-92 5 -104 5q-2 0 -110 -5q-2 2 -2 8q0 19 7 19
q12 0 42.5 8t34.5 16q11 22 27 96l77 372q9 44 9 90q0 12 -26 18.5t-42 6.5q-2 1 -2 6t2 12t5 9q78 -4 99 -4q18 0 94 4q15 -59 73 -196.5t119 -258.5q7 20 11 41l51 269q13 65 13 92q0 12 -27.5 19t-42.5 7q-2 0 -2 7q0 15 7 20q103 -5 105 -5q14 0 109 5q0 -27 -6 -27
q-10 0 -42.5 -7.5t-35.5 -14.5q-13 -32 -25 -93z" />
    <glyph glyph-name="eng" unicode="&#x14b;" horiz-adv-x="508" 
d="M337 435q38 0 59 -32.5t21 -78.5q0 -39 -10 -91l-37 -188q-21 -110 -65 -169q-28 -38 -68 -68.5t-71 -42.5q-9 9 -9 20q0 1 9 7q56 42 86 94.5t47 135.5q49 239 49 290q0 27 -8.5 38t-28.5 11q-29 0 -88.5 -87t-75.5 -169l-21 -105q-17 -5 -32 -5q-14 0 -34 5l62 321
q1 4 1 15q0 41 -27 41q-10 0 -35 -37l-25 -36q-1 0 -3 3.5t-4.5 9t-2.5 9.5q9 26 43 67.5t67 41.5q56 0 56 -73q0 -30 -17 -109v-2q1 -1 2 -1l5 10q6 10 16 26.5t22.5 36t27.5 39.5t30 36.5t30.5 26.5t28.5 10z" />
    <glyph glyph-name="Omacron" unicode="&#x14c;" horiz-adv-x="624" 
d="M321 737q0 5 6.5 22t14.5 17h232q5 0 4 -7q-3 -13 -13 -34q-1 -3 -3.5 -4.5t-3.5 -2.5h-2h-230l-5 2q-1 3 0 7zM409 625q-108 0 -183 -111.5t-75 -246.5q0 -102 44.5 -168t126.5 -66q104 0 180 113.5t76 248.5q0 100 -44 165t-125 65zM432 667q101 0 169.5 -75.5
t68.5 -182.5q0 -108 -51.5 -205t-138.5 -155.5t-184 -58.5q-107 0 -171.5 76.5t-64.5 192.5q0 104 55 199.5t141 152t176 56.5z" />
    <glyph glyph-name="omacron" unicode="&#x14d;" horiz-adv-x="412" 
d="M193 505q0 4 6.5 20.5t12.5 16.5h193q5 0 4 -7q-2 -9 -12 -32l-8 -7h-192l-4 2q-1 3 0 7zM276 394q-50 0 -91 -78.5t-41 -157.5q0 -58 18.5 -90t46.5 -32q50 0 88.5 78.5t38.5 158.5q0 59 -16 90t-44 31zM288 435q59 0 91.5 -41t32.5 -113q0 -103 -72.5 -194.5
t-148.5 -91.5q-60 0 -91.5 39t-31.5 111q0 104 72 197t148 93z" />
    <glyph glyph-name="Obreve" unicode="&#x14e;" horiz-adv-x="624" 
d="M453 776q30 0 55 15.5t37 42.5q0 2 5 2t10 -4t4 -7l-1 -3q-1 -3 -1 -4q-13 -36 -47.5 -63t-70.5 -27q-37 0 -60.5 26.5t-22.5 64.5v6q1 3 8 7t11 4t4 -2q1 -27 20 -42.5t49 -15.5zM409 625q-108 0 -183 -111.5t-75 -246.5q0 -102 44.5 -168t126.5 -66q104 0 180 113.5
t76 248.5q0 100 -44 165t-125 65zM432 667q101 0 169.5 -75.5t68.5 -182.5q0 -108 -51.5 -205t-138.5 -155.5t-184 -58.5q-107 0 -171.5 76.5t-64.5 192.5q0 104 55 199.5t141 152t176 56.5z" />
    <glyph glyph-name="obreve" unicode="&#x14f;" horiz-adv-x="412" 
d="M305 542q29 0 55 20t40 52q0 3 4 3q5 0 10 -4.5t4 -8.5l-1 -4q-1 -3 -1 -4q-15 -41 -49 -70.5t-71 -29.5t-60 29t-21 72v4l1 3q1 4 7.5 8.5t11.5 4.5q3 0 3 -3q1 -32 19.5 -52t47.5 -20zM276 394q-50 0 -91 -78.5t-41 -157.5q0 -58 18.5 -90t46.5 -32q50 0 88.5 78.5
t38.5 158.5q0 59 -16 90t-44 31zM288 435q59 0 91.5 -41t32.5 -113q0 -103 -72.5 -194.5t-148.5 -91.5q-60 0 -91.5 39t-31.5 111q0 104 72 197t148 93z" />
    <glyph glyph-name="Ohungarumlaut" unicode="&#x150;" horiz-adv-x="624" 
d="M484 741q1 7 52.5 52t80.5 65q6 3 17 3q24 0 34.5 -9.5t8.5 -20.5q-5 -23 -87 -63t-100 -40q-9 0 -6 13zM344 741q1 7 53 52t81 65q6 3 17 3q24 0 34 -9.5t8 -20.5q-5 -23 -86.5 -63t-99.5 -40q-10 0 -7 13zM409 625q-108 0 -183 -111.5t-75 -246.5q0 -102 44.5 -168
t126.5 -66q104 0 180 113.5t76 248.5q0 100 -44 165t-125 65zM432 667q101 0 169.5 -75.5t68.5 -182.5q0 -108 -51.5 -205t-138.5 -155.5t-184 -58.5q-107 0 -171.5 76.5t-64.5 192.5q0 104 55 199.5t141 152t176 56.5z" />
    <glyph glyph-name="ohungarumlaut" unicode="&#x151;" horiz-adv-x="412" 
d="M350 496q-2 0 -4.5 4t-2.5 8q0 7 42.5 55t72.5 71q8 5 26 5q39 0 39 -24q0 -22 -80.5 -70.5t-92.5 -48.5zM222 496q-2 0 -4.5 4t-2.5 8q0 7 42.5 55t72.5 71q8 5 26 5q39 0 39 -24q0 -22 -80.5 -70.5t-92.5 -48.5zM276 394q-50 0 -91 -78.5t-41 -157.5q0 -58 18.5 -90
t46.5 -32q50 0 88.5 78.5t38.5 158.5q0 59 -16 90t-44 31zM288 435q59 0 91.5 -41t32.5 -113q0 -103 -72.5 -194.5t-148.5 -91.5q-60 0 -91.5 39t-31.5 111q0 104 72 197t148 93z" />
    <glyph glyph-name="OE" unicode="&#x152;" horiz-adv-x="935" 
d="M529 3q-76 0 -107 -2q-22 -1 -56 -4t-58.5 -5t-39.5 -2q-107 0 -171.5 76.5t-64.5 192.5q0 104 55 199.5t141 152t176 56.5q38 0 130 -5.5t121 -5.5q41 0 141 4t152 4q-1 -14 -1 -39q0 -17 1 -49t1 -48q-5 -5 -18 -5q-12 0 -12 7q-3 56 -26 71t-73 15h-54q-71 0 -76 -13
q-11 -30 -18 -67l-32 -175q0 -3 2.5 -4.5t8.5 -2l12 -1t14 -0.5h45q66 0 82 9.5t39 61.5q3 7 14 7q12 0 15 -5l-37 -192q-6 -4 -14 -4q-13 0 -14 8q-1 27 -4 40.5t-4.5 16t-6.5 6.5q-10 8 -97 8q-66 0 -68 -9l-29 -148q-11 -53 -11 -87q0 -15 8 -18t53 -3h45q87 0 121 17
q16 8 37.5 35.5t40.5 65.5q3 6 15 6q17 0 21 -6q-70 -130 -82 -166q-53 0 -165 3.5t-152 3.5zM381 625q-108 0 -183 -111.5t-75 -246.5q0 -102 44.5 -168t126.5 -66q64 0 102 10t78 47q7 6 13.5 16t12.5 25.5t11 28.5t10.5 35t9 35.5t9 39t7.5 36t7 36t6 30.5q0 2 4 22
t5 25.5t4 24.5t3.5 27.5t2 25t0 26t-3 22t-5.5 22t-10 17.5q-6 7 -13 13.5t-17 10.5t-19 7t-22 5t-21.5 3t-23.5 1.5t-21.5 0.5h-22h-19.5z" />
    <glyph glyph-name="oe" unicode="&#x153;" horiz-adv-x="587" 
d="M232 396q-51 0 -90.5 -74.5t-39.5 -151.5q0 -135 65 -135q47 0 86 75.5t39 155.5q0 27 -1.5 45t-7 40t-18.5 33.5t-33 11.5zM492 396q-44 0 -87 -68t-43 -104q0 -6 7 -6q35 0 89.5 43.5t54.5 90.5q0 44 -21 44zM512 435q70 0 70 -79q0 -39 -43 -81t-95.5 -67t-84.5 -25
q-4 0 -4 -9q0 -118 76 -118q20 0 42 17t36 34t15 17t3 -3.5t4.5 -9t2.5 -9.5q-8 -24 -50 -65t-82 -41q-33 0 -62 22t-45 61q-68 -84 -154 -84q-56 0 -85 48t-29 115q0 102 69.5 189.5t154.5 87.5q77 0 105 -90q73 90 156 90z" />
    <glyph glyph-name="Racute" unicode="&#x154;" horiz-adv-x="593" 
d="M286 711q-13 0 -13 10q0 6 38 38.5t61 47.5q6 2 17 2q27 0 42.5 -7.5t15.5 -16.5q0 -17 -71 -45.5t-90 -28.5zM389 658q28 0 57 -6.5t57.5 -21t46.5 -42.5t18 -66q0 -31 -13.5 -61t-32 -50.5t-43 -39t-41.5 -28t-31 -16.5q-9 -3 -5 -12q19 -66 49 -136t53 -105
q5 -8 10 -14.5t10.5 -11t10 -8t10.5 -5.5t9 -3.5t9.5 -2t8.5 -0.5h9h9q7 -19 1 -28q-25 -5 -58 -5q-66 0 -109 65t-98 236q-5 14 -44 14q-32 0 -41 -2.5t-11 -14.5l-29 -155q-11 -55 -11 -90q0 -8 13.5 -14.5t26.5 -8.5l14 -2q2 0 2 -4q0 -11 -6 -23q-93 5 -104 5
q-3 0 -110 -5q-2 2 -2 8q0 19 7 19q12 0 36 6.5t28 15.5q11 27 26 96l82 414q5 26 5 50q0 12 -20 18.5t-33 6.5q-2 0 -2 7q0 15 7 20q43 -3 104 -3q28 0 62.5 1.5t62.5 1.5zM373 621q-51 0 -64.5 -3t-15.5 -16l-48 -233v-2q0 -15 47 -15q46 0 88 17.5t72.5 59t30.5 98.5
q0 94 -110 94z" />
    <glyph glyph-name="racute" unicode="&#x155;" horiz-adv-x="372" 
d="M273 496q-2 0 -4.5 4t-2.5 8q0 7 42.5 55t72.5 71q8 5 26 5q39 0 39 -24q0 -22 -80.5 -70.5t-92.5 -48.5zM207 435q16 0 25 -14.5t9 -37.5q0 -22 -6 -53l-16 -84q25 59 74.5 124t83.5 65t55 -32q0 -67 -37 -67q-8 0 -19 12.5t-23 12.5q-29 0 -86.5 -87t-72.5 -169
l-19 -105q-17 -3 -33 -3q-19 0 -37 3l60 308q5 36 5 40q0 25 -10 25q-4 0 -11 -4.5t-14.5 -11.5t-13.5 -13t-11 -12l-5 -6q-2 0 -7.5 9.5t-5.5 13.5q12 20 50.5 53t64.5 33z" />
    <glyph glyph-name="Rcommaaccent" unicode="&#x156;" horiz-adv-x="593" 
d="M259 -108q0 23 27.5 39t58.5 16q13 -10 13 -41q0 -37 -32 -79t-62 -58q-2 -2 -8 -2q-18 0 -18 7q0 2 11 8.5t23.5 20.5t16.5 32q3 16 -13.5 30.5t-16.5 26.5zM389 658q28 0 57 -6.5t57.5 -21t46.5 -42.5t18 -66q0 -31 -13.5 -61t-32 -50.5t-43 -39t-41.5 -28t-31 -16.5
q-9 -3 -5 -12q19 -66 49 -136t53 -105q5 -8 10 -14.5t10.5 -11t10 -8t10.5 -5.5t9 -3.5t9.5 -2t8.5 -0.5h9h9q7 -19 1 -28q-25 -5 -58 -5q-66 0 -109 65t-98 236q-5 14 -44 14q-32 0 -41 -2.5t-11 -14.5l-29 -155q-11 -55 -11 -90q0 -8 13.5 -14.5t26.5 -8.5l14 -2q2 0 2 -4
q0 -11 -6 -23q-93 5 -104 5q-3 0 -110 -5q-2 2 -2 8q0 19 7 19q12 0 36 6.5t28 15.5q11 27 26 96l82 414q5 26 5 50q0 12 -20 18.5t-33 6.5q-2 0 -2 7q0 15 7 20q43 -3 104 -3q28 0 62.5 1.5t62.5 1.5zM373 621q-51 0 -64.5 -3t-15.5 -16l-48 -233v-2q0 -15 47 -15
q46 0 88 17.5t72.5 59t30.5 98.5q0 94 -110 94z" />
    <glyph glyph-name="rcommaaccent" unicode="&#x157;" horiz-adv-x="372" 
d="M87 -108q0 23 27.5 39t58.5 16q13 -10 13 -41q0 -37 -32 -79t-62 -58q-2 -2 -8 -2q-18 0 -18 7q0 2 11 8.5t23.5 20.5t16.5 32q3 16 -13.5 30.5t-16.5 26.5zM207 435q16 0 25 -14.5t9 -37.5q0 -22 -6 -53l-16 -84q25 59 74.5 124t83.5 65t55 -32q0 -67 -37 -67
q-8 0 -19 12.5t-23 12.5q-29 0 -86.5 -87t-72.5 -169l-19 -105q-17 -3 -33 -3q-19 0 -37 3l60 308q5 36 5 40q0 25 -10 25q-4 0 -11 -4.5t-14.5 -11.5t-13.5 -13t-11 -12l-5 -6q-2 0 -7.5 9.5t-5.5 13.5q12 20 50.5 53t64.5 33z" />
    <glyph glyph-name="Rcaron" unicode="&#x158;" horiz-adv-x="593" 
d="M353 800q91 58 109 58q9 0 4 -20q-1 -1 -10.5 -8t-26 -20.5t-31.5 -25.5q-26 -23 -48 -48q-6 -8 -11 -8q-4 0 -8 8q-9 19 -30 46q-11 14 -27 33t-19 23q5 20 13 20t37 -20t48 -38zM389 658q28 0 57 -6.5t57.5 -21t46.5 -42.5t18 -66q0 -31 -13.5 -61t-32 -50.5t-43 -39
t-41.5 -28t-31 -16.5q-9 -3 -5 -12q19 -66 49 -136t53 -105q5 -8 10 -14.5t10.5 -11t10 -8t10.5 -5.5t9 -3.5t9.5 -2t8.5 -0.5h9h9q7 -19 1 -28q-25 -5 -58 -5q-66 0 -109 65t-98 236q-5 14 -44 14q-32 0 -41 -2.5t-11 -14.5l-29 -155q-11 -55 -11 -90q0 -8 13.5 -14.5
t26.5 -8.5l14 -2q2 0 2 -4q0 -11 -6 -23q-93 5 -104 5q-3 0 -110 -5q-2 2 -2 8q0 19 7 19q12 0 36 6.5t28 15.5q11 27 26 96l82 414q5 26 5 50q0 12 -20 18.5t-33 6.5q-2 0 -2 7q0 15 7 20q43 -3 104 -3q28 0 62.5 1.5t62.5 1.5zM373 621q-51 0 -64.5 -3t-15.5 -16l-48 -233
v-2q0 -15 47 -15q46 0 88 17.5t72.5 59t30.5 98.5q0 94 -110 94z" />
    <glyph glyph-name="rcaron" unicode="&#x159;" horiz-adv-x="372" 
d="M288 578q83 66 99 66q8 0 3 -23q-1 -1 -10 -9t-24 -23l-29 -29q-10 -12 -44 -55q-6 -9 -10 -9t-7 9q-10 27 -24 52q-9 17 -22.5 38.5t-15.5 25.5q5 23 13 23q7 0 31 -22.5t40 -43.5zM207 435q16 0 25 -14.5t9 -37.5q0 -22 -6 -53l-16 -84q25 59 74.5 124t83.5 65t55 -32
q0 -67 -37 -67q-8 0 -19 12.5t-23 12.5q-29 0 -86.5 -87t-72.5 -169l-19 -105q-17 -3 -33 -3q-19 0 -37 3l60 308q5 36 5 40q0 25 -10 25q-4 0 -11 -4.5t-14.5 -11.5t-13.5 -13t-11 -12l-5 -6q-2 0 -7.5 9.5t-5.5 13.5q12 20 50.5 53t64.5 33z" />
    <glyph glyph-name="Sacute" unicode="&#x15a;" horiz-adv-x="435" 
d="M353 711q-13 0 -13 10q0 6 38 38.5t61 47.5q6 2 17 2q27 0 42.5 -7.5t15.5 -16.5q0 -17 -71 -45.5t-90 -28.5zM355 172q0 30 -24 58.5t-58 52t-68.5 48t-58.5 57.5t-24 70q0 90 65.5 149t158.5 59q26 0 67 -11t62 -13q-7 -55 -13 -111q-3 -29 -4.5 -34t-4.5 -5
q-15 0 -23 6q-2 1 -2 12q0 47 -30.5 80t-70.5 33q-57 0 -92 -34.5t-35 -86.5q0 -53 49 -92q19 -15 65 -47t66.5 -49t40.5 -48.5t20 -66.5q0 -31 -15 -66t-43 -66.5t-74 -52t-101 -20.5q-54 0 -159 24q4 64 4 81t-1 46t-1 31q0 7 19 7q9 0 19 -8q0 -21 4.5 -42t17 -45
t40 -38.5t66.5 -14.5q53 0 95.5 36.5t42.5 100.5z" />
    <glyph glyph-name="sacute" unicode="&#x15b;" horiz-adv-x="320" 
d="M220 499q-2 0 -4.5 4t-2.5 8q0 7 42.5 55t72.5 71q8 5 26 5q39 0 39 -24q0 -22 -80.5 -70.5t-92.5 -48.5zM261 438q57 0 90 -38q5 -12 5 -21q0 -18 -9.5 -31t-24.5 -13q-14 0 -25 14.5t-27.5 29.5t-43.5 15q-21 0 -33 -14t-12 -32q0 -26 19.5 -55.5t42.5 -52.5t42.5 -56
t19.5 -67q0 -55 -40 -89t-103 -34q-57 0 -90 38q-5 8 -5 19q0 18 9.5 32t24.5 14q14 0 25 -14.5t27.5 -29.5t43.5 -15q22 0 35.5 14.5t13.5 31.5q0 26 -19.5 55.5t-42.5 52.5t-42.5 56t-19.5 67q0 42 40 82.5t99 40.5z" />
    <glyph glyph-name="Scircumflex" unicode="&#x15c;" horiz-adv-x="435" 
d="M451 728q-19 0 -99 58q-30 -18 -72 -38t-51 -20q-11 0 -6 20q4 4 15.5 12t29.5 20.5t32 23.5q34 24 55 46q9 8 13 8q8 0 11 -8q18 -32 32 -48q11 -12 25 -25.5t22 -20.5t8 -8q-5 -20 -15 -20zM355 172q0 30 -24 58.5t-58 52t-68.5 48t-58.5 57.5t-24 70q0 90 65.5 149
t158.5 59q26 0 67 -11t62 -13q-7 -55 -13 -111q-3 -29 -4.5 -34t-4.5 -5q-15 0 -23 6q-2 1 -2 12q0 47 -30.5 80t-70.5 33q-57 0 -92 -34.5t-35 -86.5q0 -53 49 -92q19 -15 65 -47t66.5 -49t40.5 -48.5t20 -66.5q0 -31 -15 -66t-43 -66.5t-74 -52t-101 -20.5q-54 0 -159 24
q4 64 4 81t-1 46t-1 31q0 7 19 7q9 0 19 -8q0 -21 4.5 -42t17 -45t40 -38.5t66.5 -14.5q53 0 95.5 36.5t42.5 100.5z" />
    <glyph glyph-name="scircumflex" unicode="&#x15d;" horiz-adv-x="320" 
d="M355 499q-17 0 -86 58q-26 -18 -62.5 -38t-44.5 -20q-5 0 -6 7.5t0 12.5l62 51q37 30 54 51q9 9 11 9q3 0 9 -9q24 -39 28 -44q9 -12 21.5 -26.5t19.5 -22.5t7 -9q-5 -20 -13 -20zM261 438q57 0 90 -38q5 -12 5 -21q0 -18 -9.5 -31t-24.5 -13q-14 0 -25 14.5t-27.5 29.5
t-43.5 15q-21 0 -33 -14t-12 -32q0 -26 19.5 -55.5t42.5 -52.5t42.5 -56t19.5 -67q0 -55 -40 -89t-103 -34q-57 0 -90 38q-5 8 -5 19q0 18 9.5 32t24.5 14q14 0 25 -14.5t27.5 -29.5t43.5 -15q22 0 35.5 14.5t13.5 31.5q0 26 -19.5 55.5t-42.5 52.5t-42.5 56t-19.5 67
q0 42 40 82.5t99 40.5z" />
    <glyph glyph-name="Scedilla" unicode="&#x15e;" horiz-adv-x="435" 
d="M202 -27h28q21 0 31.5 -17t5.5 -41q-8 -40 -42.5 -64.5t-78.5 -24.5q-23 0 -35 10v17q2 6 7.5 11t10.5 5q6 0 17 -7.5t21 -7.5q22 0 37 11.5t18 27.5q3 19 -5.5 29.5t-20.5 10.5t-31 -8q-2 0 -6 6t-2 9q2 2 21 26t26 34h23zM355 172q0 30 -24 58.5t-58 52t-68.5 48
t-58.5 57.5t-24 70q0 90 65.5 149t158.5 59q26 0 67 -11t62 -13q-7 -55 -13 -111q-3 -29 -4.5 -34t-4.5 -5q-15 0 -23 6q-2 1 -2 12q0 47 -30.5 80t-70.5 33q-57 0 -92 -34.5t-35 -86.5q0 -53 49 -92q19 -15 65 -47t66.5 -49t40.5 -48.5t20 -66.5q0 -31 -15 -66t-43 -66.5
t-74 -52t-101 -20.5q-54 0 -159 24q4 64 4 81t-1 46t-1 31q0 7 19 7q9 0 19 -8q0 -21 4.5 -42t17 -45t40 -38.5t66.5 -14.5q53 0 95.5 36.5t42.5 100.5z" />
    <glyph glyph-name="scedilla" unicode="&#x15f;" horiz-adv-x="320" 
d="M162 -1h19l-20 -23h22q15 0 24 -11t9 -27q0 -31 -28.5 -59t-75.5 -28q-18 0 -29 9v9q0 10 5.5 14.5t9.5 4.5q5 0 14.5 -6.5t17.5 -6.5q20 0 34 11.5t14 29.5q0 13 -7 19.5t-17 6.5q-7 0 -25 -7q-2 0 -4.5 4t-2.5 7q0 2 4.5 7.5t15 18.5t20.5 27zM261 438q57 0 90 -38
q5 -12 5 -21q0 -18 -9.5 -31t-24.5 -13q-14 0 -25 14.5t-27.5 29.5t-43.5 15q-21 0 -33 -14t-12 -32q0 -26 19.5 -55.5t42.5 -52.5t42.5 -56t19.5 -67q0 -55 -40 -89t-103 -34q-57 0 -90 38q-5 8 -5 19q0 18 9.5 32t24.5 14q14 0 25 -14.5t27.5 -29.5t43.5 -15
q22 0 35.5 14.5t13.5 31.5q0 26 -19.5 55.5t-42.5 52.5t-42.5 56t-19.5 67q0 42 40 82.5t99 40.5z" />
    <glyph glyph-name="Scaron" unicode="&#x160;" horiz-adv-x="435" 
d="M369 800q91 58 109 58q9 0 4 -20q-1 -1 -10.5 -8t-26 -20.5t-31.5 -25.5q-26 -23 -48 -48q-6 -8 -11 -8q-4 0 -8 8q-9 19 -30 46q-11 14 -27 33t-19 23q5 20 13 20t37 -20t48 -38zM355 172q0 30 -24 58.5t-58 52t-68.5 48t-58.5 57.5t-24 70q0 90 65.5 149t158.5 59
q26 0 67 -11t62 -13q-7 -55 -13 -111q-3 -29 -4.5 -34t-4.5 -5q-15 0 -23 6q-2 1 -2 12q0 47 -30.5 80t-70.5 33q-57 0 -92 -34.5t-35 -86.5q0 -53 49 -92q19 -15 65 -47t66.5 -49t40.5 -48.5t20 -66.5q0 -31 -15 -66t-43 -66.5t-74 -52t-101 -20.5q-54 0 -159 24q4 64 4 81
t-1 46t-1 31q0 7 19 7q9 0 19 -8q0 -21 4.5 -42t17 -45t40 -38.5t66.5 -14.5q53 0 95.5 36.5t42.5 100.5z" />
    <glyph glyph-name="scaron" unicode="&#x161;" horiz-adv-x="320" 
d="M283 581q83 66 99 66q8 0 3 -23q-1 -1 -10 -9t-24 -23l-29 -29q-10 -12 -44 -55q-6 -9 -10 -9t-7 9q-10 27 -24 52q-9 17 -22.5 38.5t-15.5 25.5q5 23 13 23q7 0 31 -22.5t40 -43.5zM261 438q57 0 90 -38q5 -12 5 -21q0 -18 -9.5 -31t-24.5 -13q-14 0 -25 14.5
t-27.5 29.5t-43.5 15q-21 0 -33 -14t-12 -32q0 -26 19.5 -55.5t42.5 -52.5t42.5 -56t19.5 -67q0 -55 -40 -89t-103 -34q-57 0 -90 38q-5 8 -5 19q0 18 9.5 32t24.5 14q14 0 25 -14.5t27.5 -29.5t43.5 -15q22 0 35.5 14.5t13.5 31.5q0 26 -19.5 55.5t-42.5 52.5t-42.5 56
t-19.5 67q0 42 40 82.5t99 40.5z" />
    <glyph glyph-name="Tcommaaccent" unicode="&#x162;" horiz-adv-x="601" 
d="M285 142l69 355q13 69 13 97q0 7 -2.5 10.5t-25.5 7t-71 3.5q-53 0 -75 -16.5t-47 -72.5q-2 -5 -10 -5q-13 0 -20 7l44 143q38 -11 63 -11q39 0 101 -3t101 -3t103 3t103 3q22 0 66 11l-10 -143q-9 -7 -23 -7q-9 0 -9 5q0 54 -19.5 71.5t-66.5 17.5q-99 0 -106 -15
q-14 -30 -28 -100l-70 -361q-11 -55 -11 -90q0 -8 13.5 -14.5t26.5 -8.5l14 -2q2 0 2 -4q0 -11 -6 -23q-92 5 -104 5q-2 0 -110 -5q-2 2 -2 8q0 19 7 19q12 0 36 6.5t28 15.5q15 34 26 96zM231 -108q0 23 27.5 39t58.5 16q13 -10 13 -41q0 -37 -32 -79t-62 -58q-2 -2 -8 -2
q-18 0 -18 7q0 2 11 8.5t23.5 20.5t16.5 32q3 16 -13.5 30.5t-16.5 26.5z" />
    <glyph glyph-name="tcommaaccent" unicode="&#x163;" horiz-adv-x="262" 
d="M197 542q3 10 49 10q12 0 18 -1l-25 -131h91q5 0 5 -13q0 -12 -9 -29h-95l-53 -272q-3 -12 -3 -25q0 -25 10 -25q6 0 14.5 5.5t17 13.5t15.5 15.5t13 13.5l6 7q2 0 7.5 -9.5t5.5 -13.5q-13 -22 -54 -58t-72 -36q-16 0 -25 14.5t-9 37.5q0 16 7 53l54 279h-71q-3 0 -3 11
q0 13 12 31h70zM105 -108q0 23 27.5 39t58.5 16q13 -10 13 -41q0 -37 -32 -79t-62 -58q-2 -2 -8 -2q-18 0 -18 7q0 2 11 8.5t23.5 20.5t16.5 32q3 16 -13.5 30.5t-16.5 26.5z" />
    <glyph glyph-name="Tcaron" unicode="&#x164;" horiz-adv-x="601" 
d="M454 804q91 58 109 58q9 0 4 -20q-1 -1 -10.5 -8t-26 -20.5t-31.5 -25.5q-26 -23 -48 -48q-6 -8 -11 -8q-4 0 -8 8q-9 19 -30 46q-11 14 -27 33t-19 23q5 20 13 20t37 -20t48 -38zM285 142l69 355q13 69 13 97q0 7 -2.5 10.5t-25.5 7t-71 3.5q-53 0 -75 -16.5t-47 -72.5
q-2 -5 -10 -5q-13 0 -20 7l44 143q38 -11 63 -11q39 0 101 -3t101 -3t103 3t103 3q22 0 66 11l-10 -143q-9 -7 -23 -7q-9 0 -9 5q0 54 -19.5 71.5t-66.5 17.5q-99 0 -106 -15q-14 -30 -28 -100l-70 -361q-11 -55 -11 -90q0 -8 13.5 -14.5t26.5 -8.5l14 -2q2 0 2 -4
q0 -11 -6 -23q-92 5 -104 5q-2 0 -110 -5q-2 2 -2 8q0 19 7 19q12 0 36 6.5t28 15.5q15 34 26 96z" />
    <glyph glyph-name="tcaron" unicode="&#x165;" horiz-adv-x="262" 
d="M372 634q0 28 21.5 44t52.5 16q5 -9 5 -28q0 -14 -3 -34q-6 -31 -39 -71.5t-55 -52.5q-1 -1 -7 -1q-4 0 -7 4t-3 8l11 9q12 9 23.5 26.5t11.5 38.5q0 5 -5.5 18t-5.5 23zM197 542q3 10 49 10q12 0 18 -1l-25 -131h91q5 0 5 -13q0 -12 -9 -29h-95l-53 -272q-3 -12 -3 -25
q0 -25 10 -25q6 0 14.5 5.5t17 13.5t15.5 15.5t13 13.5l6 7q2 0 7.5 -9.5t5.5 -13.5q-13 -22 -54 -58t-72 -36q-16 0 -25 14.5t-9 37.5q0 16 7 53l54 279h-71q-3 0 -3 11q0 13 12 31h70z" />
    <glyph glyph-name="Tbar" unicode="&#x166;" horiz-adv-x="650" 
d="M232 348h320q6 0 4 -10q-2 -12 -12 -30h-320q-6 0 -3 13q3 16 11 27zM392 139q-11 -58 -10 -93q1 -7 24 -13.5t32 -6.5q2 0 0 -15q-2 -11 -4 -14q-92 5 -107 5q-5 0 -113 -5q-2 4 0 15q2 14 6 14q12 0 36.5 6t29.5 14q15 34 24 89l70 362q18 88 12 103q-4 15 -98 15
q-53 0 -75 -16.5t-46 -72.5q-3 -5 -10 -5q-16 0 -21 7l45 143q39 -11 62 -11q36 0 99.5 -2t103.5 -2t105.5 2t100.5 2q22 0 66 11l-10 -143q-7 -7 -24 -7q-8 0 -8 5q-2 56 -18 72.5t-69 16.5q-99 0 -105 -15q-16 -34 -28 -100z" />
    <glyph glyph-name="tbar" unicode="&#x167;" horiz-adv-x="305" 
d="M85 315h228q6 0 4 -10q-2 -12 -12 -30h-228q-6 0 -3 13q3 16 11 27zM198 542q3 10 49 10q12 0 18 -1l-25 -131h90q5 0 5 -13q0 -15 -10 -33h-94l-51 -268q-1 -5 -1 -17q0 -37 22 -37q10 0 25 18t27 36.5t13 18.5t3 -3.5t4.5 -9t2.5 -9.5q-9 -26 -42.5 -67.5t-67.5 -41.5
q-56 0 -56 73q0 31 6 61l49 246h-72q-3 0 -3 11q0 15 13 35h71z" />
    <glyph glyph-name="Utilde" unicode="&#x168;" horiz-adv-x="631" 
d="M293 737q-7 0 -3 17q3 16 23 38q39 40 80 40q31 0 75 -26.5t75 -26.5q11 0 27.5 11t28.5 22t13 11q7 0 3 -17q-3 -16 -23 -39q-36 -39 -78 -39q-32 0 -75.5 26.5t-75.5 26.5q-15 0 -42 -22t-28 -22zM173 512q11 57 11 92q0 11 -21.5 19t-34.5 8q-2 0 -2 5q0 14 8 22
q12 -1 47.5 -3.5t60.5 -2.5q24 0 61.5 3t44.5 3v-3q0 -24 -7 -24q-8 0 -33.5 -8t-28.5 -15q-13 -28 -26 -93l-41 -217q-8 -44 -8 -85q0 -77 33 -120.5t98 -43.5q163 0 205 225l44 238q12 70 12 90q0 12 -29 20.5t-46 8.5q-2 0 -2 6q0 16 7 21q12 -1 48 -3.5t60 -2.5
q19 0 36.5 1t37.5 2.5t33 2.5q0 -27 -7 -27q-8 0 -39 -8t-36 -15q-8 -10 -27 -98l-45 -234q-31 -159 -96 -217.5t-187 -58.5q-87 0 -135.5 53t-48.5 153q0 37 14 106z" />
    <glyph glyph-name="utilde" unicode="&#x169;" horiz-adv-x="472" 
d="M251 600q28 0 66 -26.5t66 -26.5q10 0 24 11t24.5 22t11.5 11q4 0 4 -9q0 -23 -26.5 -54.5t-63.5 -31.5q-28 0 -66.5 26.5t-66.5 26.5q-14 0 -37 -22t-24 -22q-5 0 -5 6q0 25 28.5 57t64.5 32zM190 435q16 0 25 -14.5t9 -37.5q0 -27 -6 -53l-35 -165q-7 -29 -7 -54
q0 -43 19 -43q14 0 40 23.5t54.5 61t54 91.5t35.5 107l17 78q13 4 31 4t34 -4l-62 -323q-3 -12 -3 -25q0 -25 10 -25q6 0 14.5 5.5t17 13.5t15.5 15.5t13 13.5l6 7q2 0 7.5 -9.5t5.5 -13.5q-13 -22 -54 -58t-72 -36q-16 0 -25 14.5t-9 37.5q0 16 7 53l18 92q-10 -19 -41 -62
t-78 -89t-77 -46q-50 0 -50 66q0 46 14 109l30 139q5 36 5 40q0 25 -10 25q-4 0 -11 -4.5t-14.5 -11.5t-13.5 -13t-11 -12l-5 -6q-2 0 -7.5 9.5t-5.5 13.5q12 20 50.5 53t64.5 33z" />
    <glyph glyph-name="Umacron" unicode="&#x16a;" horiz-adv-x="631" 
d="M319 737q0 5 6.5 22t14.5 17h232q5 0 4 -7q-3 -13 -13 -34q-1 -3 -3.5 -4.5t-3.5 -2.5h-2h-230l-5 2q-1 3 0 7zM173 512q11 57 11 92q0 11 -21.5 19t-34.5 8q-2 0 -2 5q0 14 8 22q12 -1 47.5 -3.5t60.5 -2.5q24 0 61.5 3t44.5 3v-3q0 -24 -7 -24q-8 0 -33.5 -8t-28.5 -15
q-13 -28 -26 -93l-41 -217q-8 -44 -8 -85q0 -77 33 -120.5t98 -43.5q163 0 205 225l44 238q12 70 12 90q0 12 -29 20.5t-46 8.5q-2 0 -2 6q0 16 7 21q12 -1 48 -3.5t60 -2.5q19 0 36.5 1t37.5 2.5t33 2.5q0 -27 -7 -27q-8 0 -39 -8t-36 -15q-8 -10 -27 -98l-45 -234
q-31 -159 -96 -217.5t-187 -58.5q-87 0 -135.5 53t-48.5 153q0 37 14 106z" />
    <glyph glyph-name="umacron" unicode="&#x16b;" horiz-adv-x="472" 
d="M186 505q0 4 6.5 20.5t12.5 16.5h193q5 0 4 -7q-2 -9 -12 -32l-8 -7h-192l-4 2q-1 3 0 7zM190 435q16 0 25 -14.5t9 -37.5q0 -27 -6 -53l-35 -165q-7 -29 -7 -54q0 -43 19 -43q14 0 40 23.5t54.5 61t54 91.5t35.5 107l17 78q13 4 31 4t34 -4l-62 -323q-3 -12 -3 -25
q0 -25 10 -25q6 0 14.5 5.5t17 13.5t15.5 15.5t13 13.5l6 7q2 0 7.5 -9.5t5.5 -13.5q-13 -22 -54 -58t-72 -36q-16 0 -25 14.5t-9 37.5q0 16 7 53l18 92q-10 -19 -41 -62t-78 -89t-77 -46q-50 0 -50 66q0 46 14 109l30 139q5 36 5 40q0 25 -10 25q-4 0 -11 -4.5t-14.5 -11.5
t-13.5 -13t-11 -12l-5 -6q-2 0 -7.5 9.5t-5.5 13.5q12 20 50.5 53t64.5 33z" />
    <glyph glyph-name="Ubreve" unicode="&#x16c;" horiz-adv-x="631" 
d="M452 776q30 0 55 15.5t37 42.5q0 2 5 2t10 -4t4 -7l-1 -3q-1 -3 -1 -4q-13 -36 -47.5 -63t-70.5 -27q-37 0 -60.5 26.5t-22.5 64.5v6q1 3 8 7t11 4t4 -2q1 -27 20 -42.5t49 -15.5zM173 512q11 57 11 92q0 11 -21.5 19t-34.5 8q-2 0 -2 5q0 14 8 22q12 -1 47.5 -3.5
t60.5 -2.5q24 0 61.5 3t44.5 3v-3q0 -24 -7 -24q-8 0 -33.5 -8t-28.5 -15q-13 -28 -26 -93l-41 -217q-8 -44 -8 -85q0 -77 33 -120.5t98 -43.5q163 0 205 225l44 238q12 70 12 90q0 12 -29 20.5t-46 8.5q-2 0 -2 6q0 16 7 21q12 -1 48 -3.5t60 -2.5q19 0 36.5 1t37.5 2.5
t33 2.5q0 -27 -7 -27q-8 0 -39 -8t-36 -15q-8 -10 -27 -98l-45 -234q-31 -159 -96 -217.5t-187 -58.5q-87 0 -135.5 53t-48.5 153q0 37 14 106z" />
    <glyph glyph-name="ubreve" unicode="&#x16d;" horiz-adv-x="472" 
d="M274 542q29 0 55 20t40 52q0 3 4 3q5 0 10 -4.5t4 -8.5l-1 -4q-1 -3 -1 -4q-15 -41 -49 -70.5t-71 -29.5t-60 29t-21 72v4l1 3q1 4 7.5 8.5t11.5 4.5q3 0 3 -3q1 -32 19.5 -52t47.5 -20zM190 435q16 0 25 -14.5t9 -37.5q0 -27 -6 -53l-35 -165q-7 -29 -7 -54
q0 -43 19 -43q14 0 40 23.5t54.5 61t54 91.5t35.5 107l17 78q13 4 31 4t34 -4l-62 -323q-3 -12 -3 -25q0 -25 10 -25q6 0 14.5 5.5t17 13.5t15.5 15.5t13 13.5l6 7q2 0 7.5 -9.5t5.5 -13.5q-13 -22 -54 -58t-72 -36q-16 0 -25 14.5t-9 37.5q0 16 7 53l18 92q-10 -19 -41 -62
t-78 -89t-77 -46q-50 0 -50 66q0 46 14 109l30 139q5 36 5 40q0 25 -10 25q-4 0 -11 -4.5t-14.5 -11.5t-13.5 -13t-11 -12l-5 -6q-2 0 -7.5 9.5t-5.5 13.5q12 20 50.5 53t64.5 33z" />
    <glyph glyph-name="Uring" unicode="&#x16e;" horiz-adv-x="631" 
d="M409 818q-4 -23 8 -39.5t33 -16.5t38.5 16.5t22.5 39.5t-6.5 39t-32.5 16t-40 -16t-23 -39zM378 818q7 37 37 63t64 26t52.5 -26t10.5 -63t-36.5 -63.5t-61.5 -26.5q-34 0 -53.5 26.5t-12.5 63.5zM173 512q11 57 11 92q0 11 -21.5 19t-34.5 8q-2 0 -2 5q0 14 8 22
q12 -1 47.5 -3.5t60.5 -2.5q24 0 61.5 3t44.5 3v-3q0 -24 -7 -24q-8 0 -33.5 -8t-28.5 -15q-13 -28 -26 -93l-41 -217q-8 -44 -8 -85q0 -77 33 -120.5t98 -43.5q163 0 205 225l44 238q12 70 12 90q0 12 -29 20.5t-46 8.5q-2 0 -2 6q0 16 7 21q12 -1 48 -3.5t60 -2.5
q19 0 36.5 1t37.5 2.5t33 2.5q0 -27 -7 -27q-8 0 -39 -8t-36 -15q-8 -10 -27 -98l-45 -234q-31 -159 -96 -217.5t-187 -58.5q-87 0 -135.5 53t-48.5 153q0 37 14 106z" />
    <glyph glyph-name="uring" unicode="&#x16f;" horiz-adv-x="472" 
d="M232 586q-4 -23 7.5 -39.5t32.5 -16.5t39.5 16.5t22.5 39.5t-7.5 39t-32.5 16t-39.5 -16t-22.5 -39zM201 586q7 37 36.5 63t63.5 26t52.5 -26t10.5 -63t-36.5 -63.5t-61.5 -26.5q-34 0 -53 26.5t-12 63.5zM190 435q16 0 25 -14.5t9 -37.5q0 -27 -6 -53l-35 -165
q-7 -29 -7 -54q0 -43 19 -43q14 0 40 23.5t54.5 61t54 91.5t35.5 107l17 78q13 4 31 4t34 -4l-62 -323q-3 -12 -3 -25q0 -25 10 -25q6 0 14.5 5.5t17 13.5t15.5 15.5t13 13.5l6 7q2 0 7.5 -9.5t5.5 -13.5q-13 -22 -54 -58t-72 -36q-16 0 -25 14.5t-9 37.5q0 16 7 53l18 92
q-10 -19 -41 -62t-78 -89t-77 -46q-50 0 -50 66q0 46 14 109l30 139q5 36 5 40q0 25 -10 25q-4 0 -11 -4.5t-14.5 -11.5t-13.5 -13t-11 -12l-5 -6q-2 0 -7.5 9.5t-5.5 13.5q12 20 50.5 53t64.5 33z" />
    <glyph glyph-name="Uhungarumlaut" unicode="&#x170;" horiz-adv-x="631" 
d="M506 741q1 7 52.5 52t80.5 65q6 3 17 3q24 0 34.5 -9.5t8.5 -20.5q-5 -23 -87 -63t-100 -40q-9 0 -6 13zM366 741q1 7 53 52t81 65q6 3 17 3q24 0 34 -9.5t8 -20.5q-5 -23 -86.5 -63t-99.5 -40q-10 0 -7 13zM173 512q11 57 11 92q0 11 -21.5 19t-34.5 8q-2 0 -2 5
q0 14 8 22q12 -1 47.5 -3.5t60.5 -2.5q24 0 61.5 3t44.5 3v-3q0 -24 -7 -24q-8 0 -33.5 -8t-28.5 -15q-13 -28 -26 -93l-41 -217q-8 -44 -8 -85q0 -77 33 -120.5t98 -43.5q163 0 205 225l44 238q12 70 12 90q0 12 -29 20.5t-46 8.5q-2 0 -2 6q0 16 7 21q12 -1 48 -3.5
t60 -2.5q19 0 36.5 1t37.5 2.5t33 2.5q0 -27 -7 -27q-8 0 -39 -8t-36 -15q-8 -10 -27 -98l-45 -234q-31 -159 -96 -217.5t-187 -58.5q-87 0 -135.5 53t-48.5 153q0 37 14 106z" />
    <glyph glyph-name="uhungarumlaut" unicode="&#x171;" horiz-adv-x="472" 
d="M315 496q-2 0 -4.5 4t-2.5 8q0 7 42.5 55t72.5 71q8 5 26 5q39 0 39 -24q0 -22 -80.5 -70.5t-92.5 -48.5zM187 496q-2 0 -4.5 4t-2.5 8q0 7 42.5 55t72.5 71q8 5 26 5q39 0 39 -24q0 -22 -80.5 -70.5t-92.5 -48.5zM190 435q16 0 25 -14.5t9 -37.5q0 -27 -6 -53l-35 -165
q-7 -29 -7 -54q0 -43 19 -43q14 0 40 23.5t54.5 61t54 91.5t35.5 107l17 78q13 4 31 4t34 -4l-62 -323q-3 -12 -3 -25q0 -25 10 -25q6 0 14.5 5.5t17 13.5t15.5 15.5t13 13.5l6 7q2 0 7.5 -9.5t5.5 -13.5q-13 -22 -54 -58t-72 -36q-16 0 -25 14.5t-9 37.5q0 16 7 53l18 92
q-10 -19 -41 -62t-78 -89t-77 -46q-50 0 -50 66q0 46 14 109l30 139q5 36 5 40q0 25 -10 25q-4 0 -11 -4.5t-14.5 -11.5t-13.5 -13t-11 -12l-5 -6q-2 0 -7.5 9.5t-5.5 13.5q12 20 50.5 53t64.5 33z" />
    <glyph glyph-name="Uogonek" unicode="&#x172;" horiz-adv-x="674" 
d="M228 -139q0 -32 31 -32q21 0 40 9.5t30.5 19t12.5 9.5q5 -1 1 -14t-7 -16q-60 -67 -111 -67q-22 0 -36.5 17t-14.5 38q0 37 41 91.5t87 87.5q-38 -4 -66 -4q-87 0 -135.5 53t-48.5 153q0 37 14 106l39 200q11 57 11 92q0 11 -21.5 19t-34.5 8q-2 0 -2 5q0 14 8 22
q12 -1 47.5 -3.5t60.5 -2.5q24 0 61.5 3t44.5 3v-3q0 -24 -7 -24q-8 0 -33.5 -8t-28.5 -15q-13 -28 -26 -93l-41 -217q-8 -44 -8 -85q0 -77 33 -120.5t98 -43.5q163 0 205 225l44 238q12 70 12 90q0 12 -29 20.5t-46 8.5q-2 0 -2 6q0 16 7 21q12 -1 48 -3.5t60 -2.5
q19 0 36.5 1t37.5 2.5t33 2.5q0 -27 -7 -27q-8 0 -39 -8t-36 -15q-8 -10 -27 -98l-45 -234q-33 -173 -114 -234q-45 -34 -64 -49t-52 -43.5t-47 -49.5t-14 -39z" />
    <glyph glyph-name="uogonek" unicode="&#x173;" horiz-adv-x="497" 
d="M187 68q29 0 85.5 87t72.5 169l21 105q17 5 32 5q14 0 34 -5l-62 -321q-1 -4 -1 -15q0 -41 27 -41q10 0 35 36l25 37q1 0 3 -3.5t4.5 -9t2.5 -9.5q-16 -41 -57 -82q-11 -11 -33.5 -32.5t-34.5 -34t-26.5 -30.5t-21.5 -33t-7 -30q0 -32 31 -32q21 0 40 9.5t30.5 19
t12.5 9.5q5 -1 1 -14t-7 -16q-60 -67 -111 -67q-22 0 -36.5 14.5t-14.5 35.5q0 35 33 84.5t75 91.5q-40 10 -40 71q0 32 15 101q0 2 -1 2t-1 -1q-26 -59 -69.5 -117t-82.5 -58q-45 0 -61 30t-16 81q0 39 10 91l25 127q1 5 1 17q0 37 -22 37q-9 0 -24.5 -18.5t-27.5 -36.5
t-13 -18t-3 3.5t-4.5 9t-2.5 9.5q9 26 43 67.5t67 41.5q56 0 56 -73q0 -17 -18 -114.5t-18 -130.5q0 -49 34 -49z" />
    <glyph glyph-name="Wcircumflex" unicode="&#x174;" horiz-adv-x="973" 
d="M749 728q-19 0 -99 58q-30 -18 -72 -38t-51 -20q-11 0 -6 20q4 4 15.5 12t29.5 20.5t32 23.5q34 24 55 46q9 8 13 8q8 0 11 -8q18 -32 32 -48q11 -12 25 -25.5t22 -20.5t8 -8q-5 -20 -15 -20zM218 652q18 0 36 1t38.5 2.5t33.5 2.5v-3q0 -24 -7 -24q-24 0 -38 -11
t-14 -26q0 -9 7 -37l127 -445l121 183l-74 265q-8 28 -19 46q-6 10 -22.5 17.5t-26.5 7.5q-2 0 -2 5q0 16 8 22q13 -1 47 -3.5t59 -2.5q24 0 57 2.5t43 3.5v-3q0 -7 -2.5 -15.5t-5.5 -8.5q-24 0 -37.5 -11t-13.5 -26q0 -13 6 -37l45 -161l85 138q25 41 25 59
q0 19 -17.5 28.5t-28.5 9.5q-2 0 -2 5q0 17 7 22q87 -6 95 -6q28 0 59.5 3t40.5 3q0 -27 -7 -27q-16 0 -40.5 -12t-32.5 -21q-19 -21 -70 -100l-100 -154l68 -238l243 428q25 44 25 59q0 19 -17.5 28.5t-28.5 9.5q-2 0 -2 5q0 17 7 22q87 -6 95 -6q28 0 59.5 3t40.5 3
q0 -27 -7 -27q-16 0 -40.5 -12t-32.5 -21q-33 -38 -70 -100l-281 -479q-19 -32 -43 -32q-6 0 -8 5l-70 253l-146 -226q-21 -32 -42 -32q-5 0 -8 5l-142 518q-17 60 -35 96q-5 10 -21.5 17.5t-26.5 7.5q-2 0 -2 5q0 17 7 22q15 -1 44.5 -3.5t53.5 -2.5z" />
    <glyph glyph-name="wcircumflex" unicode="&#x175;" horiz-adv-x="632" 
d="M464 496q-17 0 -86 58q-26 -18 -62.5 -38t-44.5 -20q-5 0 -6 7.5t0 12.5l62 51q37 30 54 51q9 9 11 9q3 0 9 -9q24 -39 28 -44q9 -12 21.5 -26.5t19.5 -22.5t7 -9q-5 -20 -13 -20zM194 435q16 0 25 -14.5t9 -37.5q0 -21 -6 -53l-30 -153q-8 -48 -8 -63q0 -28 9 -40
t32 -12q22 0 51.5 26t56.5 66q24 197 33 231q13 50 40 50q38 0 38 -47q0 -65 -41 -177q-7 -50 -7 -64q0 -48 8.5 -66.5t32.5 -18.5q30 0 67.5 44.5t63 103t25.5 99.5q0 21 -14.5 45t-14.5 36q0 18 12 31.5t29 13.5q19 0 32 -8q14 -26 14 -58q0 -63 -27 -131.5t-66 -119.5
t-83 -84.5t-76 -33.5q-35 0 -54.5 24.5t-19.5 66.5q-79 -91 -138 -91q-34 0 -54 24.5t-20 63.5q0 28 4 44l34 176q6 21 6 40q0 25 -10 25q-4 0 -11 -4.5t-14.5 -11.5t-13.5 -13t-11 -12l-5 -6q-2 0 -7.5 9.5t-5.5 13.5q12 20 50.5 53t64.5 33z" />
    <glyph glyph-name="Ycircumflex" unicode="&#x176;" horiz-adv-x="593" 
d="M554 728q-19 0 -99 58q-30 -18 -72 -38t-51 -20q-11 0 -6 20q4 4 15.5 12t29.5 20.5t32 23.5q34 24 55 46q9 8 13 8q8 0 11 -8q18 -32 32 -48q11 -12 25 -25.5t22 -20.5t8 -8q-5 -20 -15 -20zM244 652q10 0 124 6v-5q0 -22 -7 -22q-15 0 -39 -10.5t-24 -31.5q0 -10 4 -22
l69 -212q13 17 45.5 59t50 65.5t39.5 53.5t32 46t10 21q-1 13 -21.5 22t-40.5 9q-2 0 -2 6q0 16 7 21q8 0 40 -3t52 -3q5 0 119 6q1 -2 1 -5q0 -22 -7 -22q-10 0 -39.5 -9.5t-41.5 -21.5t-120.5 -158.5t-110.5 -156.5l-28 -146q-11 -55 -11 -90q0 -8 13.5 -14.5t27.5 -8.5
l13 -2q2 0 2 -4q0 -11 -6 -23q-93 5 -104 5q-3 0 -111 -5q-1 1 -1 7q0 20 7 20q11 0 35 7t29 15q12 21 25 90l26 142q1 4 -20 70.5t-43 131.5l-21 65q-15 46 -39 64q-10 7 -29 14.5t-27 7.5q-2 0 -2 5q0 17 7 22q12 -1 51 -3.5t66 -2.5z" />
    <glyph glyph-name="ycircumflex" unicode="&#x177;" horiz-adv-x="479" 
d="M423 496q-17 0 -86 58q-26 -18 -62.5 -38t-44.5 -20q-5 0 -6 7.5t0 12.5l62 51q37 30 54 51q9 9 11 9q3 0 9 -9q24 -39 28 -44q9 -12 21.5 -26.5t19.5 -22.5t7 -9q-5 -20 -13 -20zM216 435q30 0 49.5 -51t26.5 -133.5t9 -129t2 -93.5q39 48 78 122.5t39 134.5
q0 59 -25 107q13 43 50 43q44 0 44 -79q0 -110 -86 -252.5t-194.5 -239.5t-175.5 -97q-26 0 -43 12t-17 29q0 32 23 44q22 -13 67 -13q83 0 144 89q23 34 23 134q0 49 -2.5 97.5t-9 99.5t-19 82.5t-29.5 31.5q-9 0 -27 -17t-28 -30q-2 0 -7.5 9.5t-5.5 13.5q6 15 47.5 50.5
t66.5 35.5z" />
    <glyph glyph-name="Ydieresis" unicode="&#x178;" horiz-adv-x="593" 
d="M476 778q4 21 20 35.5t36 14.5q19 0 30 -14.5t7 -35.5t-20 -35.5t-36 -14.5q-19 0 -30 14.5t-7 35.5zM308 778q4 21 20 35.5t36 14.5q19 0 30 -14.5t7 -35.5t-20.5 -35.5t-36.5 -14.5q-19 0 -29.5 14.5t-6.5 35.5zM244 652q10 0 124 6v-5q0 -22 -7 -22q-15 0 -39 -10.5
t-24 -31.5q0 -10 4 -22l69 -212q13 17 45.5 59t50 65.5t39.5 53.5t32 46t10 21q-1 13 -21.5 22t-40.5 9q-2 0 -2 6q0 16 7 21q8 0 40 -3t52 -3q5 0 119 6q1 -2 1 -5q0 -22 -7 -22q-10 0 -39.5 -9.5t-41.5 -21.5t-120.5 -158.5t-110.5 -156.5l-28 -146q-11 -55 -11 -90
q0 -8 13.5 -14.5t27.5 -8.5l13 -2q2 0 2 -4q0 -11 -6 -23q-93 5 -104 5q-3 0 -111 -5q-1 1 -1 7q0 20 7 20q11 0 35 7t29 15q12 21 25 90l26 142q1 4 -20 70.5t-43 131.5l-21 65q-15 46 -39 64q-10 7 -29 14.5t-27 7.5q-2 0 -2 5q0 17 7 22q12 -1 51 -3.5t66 -2.5z" />
    <glyph glyph-name="Zacute" unicode="&#x179;" horiz-adv-x="546" 
d="M368 711q-13 0 -13 10q0 6 38 38.5t61 47.5q6 2 17 2q27 0 42.5 -7.5t15.5 -16.5q0 -17 -71 -45.5t-90 -28.5zM323 656q46 -1 108 -1q34 0 58 1t37 2t41.5 3.5t54.5 4.5q2 -1 3 -15.5t0 -17.5q-1 -4 -115 -143t-228 -276l-113 -138q-8 -9 -8 -17t10 -8h210q16 0 30.5 2
t25.5 7.5t20 9.5t17 13t13 14t11 15.5t7.5 14t6.5 14t5 11.5q3 8 27 8q10 0 14 -6q-35 -86 -57 -154h-461q-4 7 -4 17q0 16 8 26l466 565h-43h-37.5h-41.5t-38 -0.5t-29 -0.5h-12q-64 -1 -92 -27t-60 -96q-3 -4 -10 -4q-18 0 -27 9q13 35 56 176q9 -3 70 -6t77 -3z" />
    <glyph glyph-name="zacute" unicode="&#x17a;" horiz-adv-x="404" 
d="M250 496q-2 0 -4.5 4t-2.5 8q0 7 42.5 55t72.5 71q8 5 26 5q39 0 39 -24q0 -22 -80.5 -70.5t-92.5 -48.5zM205 435q10 0 64 -12.5t87 -12.5q14 0 33 12.5t33 12.5q12 0 12 -25q0 -6 -75 -88.5t-149 -162.5l-75 -80q0 -1 7 3.5t17 9.5t17 5q28 0 70 -18t56 -18q8 0 16.5 6
t16 15.5t13.5 18t11 18t6 10.5q4 5 8.5 -3t5.5 -16q-8 -26 -39 -68t-61 -42q-10 0 -64 13t-87 13q-14 0 -33 -13t-33 -13q-12 0 -12 26q0 7 74.5 89t149.5 162l74 80l-6 -5q-7 -4 -17 -9t-17 -5q-28 0 -70 18t-56 18q-8 0 -16.5 -6t-16 -15.5t-13 -18.5t-10.5 -18t-6 -10
q-5 -5 -9 3t-5 17q8 26 38.5 67.5t60.5 41.5z" />
    <glyph glyph-name="Zdotaccent" unicode="&#x17b;" horiz-adv-x="546" 
d="M373 778q4 21 20.5 35.5t36.5 14.5q19 0 29.5 -14.5t6.5 -35.5t-20 -35.5t-36 -14.5q-19 0 -30 14.5t-7 35.5zM323 656q46 -1 108 -1q34 0 58 1t37 2t41.5 3.5t54.5 4.5q2 -1 3 -15.5t0 -17.5q-1 -4 -115 -143t-228 -276l-113 -138q-8 -9 -8 -17t10 -8h210q16 0 30.5 2
t25.5 7.5t20 9.5t17 13t13 14t11 15.5t7.5 14t6.5 14t5 11.5q3 8 27 8q10 0 14 -6q-35 -86 -57 -154h-461q-4 7 -4 17q0 16 8 26l466 565h-43h-37.5h-41.5t-38 -0.5t-29 -0.5h-12q-64 -1 -92 -27t-60 -96q-3 -4 -10 -4q-18 0 -27 9q13 35 56 176q9 -3 70 -6t77 -3z" />
    <glyph glyph-name="zdotaccent" unicode="&#x17c;" horiz-adv-x="404" 
d="M286 596q4 21 20.5 35.5t36.5 14.5q19 0 29.5 -14.5t6.5 -35.5t-20 -35.5t-36 -14.5q-19 0 -30 14.5t-7 35.5zM205 435q10 0 64 -12.5t87 -12.5q14 0 33 12.5t33 12.5q12 0 12 -25q0 -6 -75 -88.5t-149 -162.5l-75 -80q0 -1 7 3.5t17 9.5t17 5q28 0 70 -18t56 -18
q8 0 16.5 6t16 15.5t13.5 18t11 18t6 10.5q4 5 8.5 -3t5.5 -16q-8 -26 -39 -68t-61 -42q-10 0 -64 13t-87 13q-14 0 -33 -13t-33 -13q-12 0 -12 26q0 7 74.5 89t149.5 162l74 80l-6 -5q-7 -4 -17 -9t-17 -5q-28 0 -70 18t-56 18q-8 0 -16.5 -6t-16 -15.5t-13 -18.5
t-10.5 -18t-6 -10q-5 -5 -9 3t-5 17q8 26 38.5 67.5t60.5 41.5z" />
    <glyph glyph-name="Zcaron" unicode="&#x17d;" horiz-adv-x="546" 
d="M432 800q91 58 109 58q9 0 4 -20q-1 -1 -10.5 -8t-26 -20.5t-31.5 -25.5q-26 -23 -48 -48q-6 -8 -11 -8q-4 0 -8 8q-9 19 -30 46q-11 14 -27 33t-19 23q5 20 13 20t37 -20t48 -38zM323 656q46 -1 108 -1q34 0 58 1t37 2t41.5 3.5t54.5 4.5q2 -1 3 -15.5t0 -17.5
q-1 -4 -115 -143t-228 -276l-113 -138q-8 -9 -8 -17t10 -8h210q16 0 30.5 2t25.5 7.5t20 9.5t17 13t13 14t11 15.5t7.5 14t6.5 14t5 11.5q3 8 27 8q10 0 14 -6q-35 -86 -57 -154h-461q-4 7 -4 17q0 16 8 26l466 565h-43h-37.5h-41.5t-38 -0.5t-29 -0.5h-12q-64 -1 -92 -27
t-60 -96q-3 -4 -10 -4q-18 0 -27 9q13 35 56 176q9 -3 70 -6t77 -3z" />
    <glyph glyph-name="zcaron" unicode="&#x17e;" horiz-adv-x="404" 
d="M314 578q83 66 99 66q8 0 3 -23q-1 -1 -10 -9t-24 -23l-29 -29q-10 -12 -44 -55q-6 -9 -10 -9t-7 9q-10 27 -24 52q-9 17 -22.5 38.5t-15.5 25.5q5 23 13 23q7 0 31 -22.5t40 -43.5zM205 435q10 0 64 -12.5t87 -12.5q14 0 33 12.5t33 12.5q12 0 12 -25q0 -6 -75 -88.5
t-149 -162.5l-75 -80q0 -1 7 3.5t17 9.5t17 5q28 0 70 -18t56 -18q8 0 16.5 6t16 15.5t13.5 18t11 18t6 10.5q4 5 8.5 -3t5.5 -16q-8 -26 -39 -68t-61 -42q-10 0 -64 13t-87 13q-14 0 -33 -13t-33 -13q-12 0 -12 26q0 7 74.5 89t149.5 162l74 80l-6 -5q-7 -4 -17 -9t-17 -5
q-28 0 -70 18t-56 18q-8 0 -16.5 -6t-16 -15.5t-13 -18.5t-10.5 -18t-6 -10q-5 -5 -9 3t-5 17q8 26 38.5 67.5t60.5 41.5z" />
    <glyph glyph-name="Scommaaccent" unicode="&#x218;" horiz-adv-x="435" 
d="M137 -108q0 23 27.5 39t58.5 16q13 -10 13 -41q0 -37 -32 -79t-62 -58q-2 -2 -8 -2q-18 0 -18 7q0 2 11 8.5t23.5 20.5t16.5 32q3 16 -13.5 30.5t-16.5 26.5zM355 172q0 30 -24 58.5t-58 52t-68.5 48t-58.5 57.5t-24 70q0 90 65.5 149t158.5 59q26 0 67 -11t62 -13
q-7 -55 -13 -111q-3 -29 -4.5 -34t-4.5 -5q-15 0 -23 6q-2 1 -2 12q0 47 -30.5 80t-70.5 33q-57 0 -92 -34.5t-35 -86.5q0 -53 49 -92q19 -15 65 -47t66.5 -49t40.5 -48.5t20 -66.5q0 -31 -15 -66t-43 -66.5t-74 -52t-101 -20.5q-54 0 -159 24q4 64 4 81t-1 46t-1 31
q0 7 19 7q9 0 19 -8q0 -21 4.5 -42t17 -45t40 -38.5t66.5 -14.5q53 0 95.5 36.5t42.5 100.5z" />
    <glyph glyph-name="scommaaccent" unicode="&#x219;" horiz-adv-x="320" 
d="M92 -108q0 23 27.5 39t58.5 16q13 -10 13 -41q0 -37 -32 -79t-62 -58q-2 -2 -8 -2q-18 0 -18 7q0 2 11 8.5t23.5 20.5t16.5 32q3 16 -13.5 30.5t-16.5 26.5zM261 438q57 0 90 -38q5 -12 5 -21q0 -18 -9.5 -31t-24.5 -13q-14 0 -25 14.5t-27.5 29.5t-43.5 15
q-21 0 -33 -14t-12 -32q0 -26 19.5 -55.5t42.5 -52.5t42.5 -56t19.5 -67q0 -55 -40 -89t-103 -34q-57 0 -90 38q-5 8 -5 19q0 18 9.5 32t24.5 14q14 0 25 -14.5t27.5 -29.5t43.5 -15q22 0 35.5 14.5t13.5 31.5q0 26 -19.5 55.5t-42.5 52.5t-42.5 56t-19.5 67q0 42 40 82.5
t99 40.5z" />
    <glyph glyph-name="uni021A" unicode="&#x21a;" horiz-adv-x="601" 
d="M231 -108q0 23 27.5 39t58.5 16q13 -10 13 -41q0 -37 -32 -79t-62 -58q-2 -2 -8 -2q-18 0 -18 7q0 2 11 8.5t23.5 20.5t16.5 32q3 16 -13.5 30.5t-16.5 26.5zM285 142l69 355q13 69 13 97q0 7 -2.5 10.5t-25.5 7t-71 3.5q-53 0 -75 -16.5t-47 -72.5q-2 -5 -10 -5
q-13 0 -20 7l44 143q38 -11 63 -11q39 0 101 -3t101 -3t103 3t103 3q22 0 66 11l-10 -143q-9 -7 -23 -7q-9 0 -9 5q0 54 -19.5 71.5t-66.5 17.5q-99 0 -106 -15q-14 -30 -28 -100l-70 -361q-11 -55 -11 -90q0 -8 13.5 -14.5t26.5 -8.5l14 -2q2 0 2 -4q0 -11 -6 -23
q-92 5 -104 5q-2 0 -110 -5q-2 2 -2 8q0 19 7 19q12 0 36 6.5t28 15.5q15 34 26 96z" />
    <glyph glyph-name="uni021B" unicode="&#x21b;" horiz-adv-x="262" 
d="M105 -108q0 23 27.5 39t58.5 16q13 -10 13 -41q0 -37 -32 -79t-62 -58q-2 -2 -8 -2q-18 0 -18 7q0 2 11 8.5t23.5 20.5t16.5 32q3 16 -13.5 30.5t-16.5 26.5zM197 542q3 10 49 10q12 0 18 -1l-25 -131h91q5 0 5 -13q0 -12 -9 -29h-95l-53 -272q-3 -12 -3 -25
q0 -25 10 -25q6 0 14.5 5.5t17 13.5t15.5 15.5t13 13.5l6 7q2 0 7.5 -9.5t5.5 -13.5q-13 -22 -54 -58t-72 -36q-16 0 -25 14.5t-9 37.5q0 16 7 53l54 279h-71q-3 0 -3 11q0 13 12 31h70z" />
    <glyph glyph-name="uni0237" unicode="&#x237;" horiz-adv-x="315" 
d="M206 435q57 0 57 -72q0 -33 -57 -318q-21 -108 -66 -169q-28 -38 -68 -68.5t-71 -42.5q-9 9 -9 20q0 1 9 7q56 42 86 94.5t47 135.5l57 286q3 21 3 28q0 41 -28 41q-10 0 -34 -37l-25 -36q-1 0 -3 3.5t-5 9t-3 9.5q9 26 43 67.5t67 41.5z" />
    <glyph glyph-name="uni02BB" unicode="&#x2bb;" horiz-adv-x="460" 
d="M670 513q0 -23 -27.5 -39t-58.5 -16q-13 10 -13 41q0 37 32 79t62 58q2 2 8 2q18 0 18 -7q0 -2 -11 -8.5t-23.5 -20.5t-16.5 -32q-3 -16 13.5 -30.5t16.5 -26.5z" />
    <glyph glyph-name="afii57929" unicode="&#x2bc;" horiz-adv-x="460" 
d="M622 592q0 28 21.5 44t52.5 16q5 -9 5 -28q0 -14 -3 -34q-6 -31 -39 -71.5t-55 -52.5q-1 -1 -7 -1q-4 0 -7 4t-3 8l11 9q12 9 23.5 26.5t11.5 38.5q0 5 -5.5 18t-5.5 23z" />
    <glyph glyph-name="uni02C0" unicode="&#x2c0;" horiz-adv-x="460" 
d="M690 655q24 0 34.5 -14t5.5 -37q-8 -43 -60 -66q-25 -11 -27 -25q-2 -9 4 -19q-1 -4 -7.5 -9t-10.5 -5q-29 12 -25 33q5 23 50 44q32 14 36 37q2 13 -2.5 22.5t-16.5 9.5q-30 0 -37 -36q-4 -20 -32 -20q-5 0 -9.5 2.5t-3.5 6.5q5 26 38 51t63 25z" />
    <glyph glyph-name="circumflex" unicode="&#x2c6;" horiz-adv-x="460" 
d="M897 706q-17 0 -86 58q-26 -18 -62.5 -38t-44.5 -20q-5 0 -6 7.5t0 12.5l62 51q37 30 54 51q9 9 11 9q3 0 9 -9q24 -39 28 -44q9 -12 21.5 -26.5t19.5 -22.5t7 -9q-5 -20 -13 -20z" />
    <glyph glyph-name="caron" unicode="&#x2c7;" horiz-adv-x="460" 
d="M737 575q83 66 99 66q8 0 3 -23q-1 -1 -10 -9t-24 -23l-29 -29q-10 -12 -44 -55q-6 -9 -10 -9t-7 9q-10 27 -24 52q-9 17 -22.5 38.5t-15.5 25.5q5 23 13 23q7 0 31 -22.5t40 -43.5z" />
    <glyph glyph-name="breve" unicode="&#x2d8;" horiz-adv-x="460" 
d="M686 566q29 0 55 20t40 52q0 3 4 3q5 0 10 -4.5t4 -8.5l-1 -4q-1 -3 -1 -4q-15 -41 -49 -70.5t-71 -29.5t-60 29t-21 72v4l1 3q1 4 7.5 8.5t11.5 4.5q3 0 3 -3q1 -32 19.5 -52t47.5 -20z" />
    <glyph glyph-name="dotaccent" unicode="&#x2d9;" horiz-adv-x="460" 
d="M632 545q4 21 20.5 35.5t36.5 14.5q19 0 29.5 -14.5t6.5 -35.5t-20 -35.5t-36 -14.5q-19 0 -30 14.5t-7 35.5z" />
    <glyph glyph-name="ring" unicode="&#x2da;" horiz-adv-x="460" 
d="M642 592q-4 -23 7.5 -39.5t32.5 -16.5t39.5 16.5t22.5 39.5t-7.5 39t-32.5 16t-39.5 -16t-22.5 -39zM611 592q7 37 36.5 63t63.5 26t52.5 -26t10.5 -63t-36.5 -63.5t-61.5 -26.5q-34 0 -53 26.5t-12 63.5z" />
    <glyph glyph-name="ogonek" unicode="&#x2db;" horiz-adv-x="460" 
d="M625 42q29 0 28 -10q0 -3 -4 -7q-3 -2 -44 -29t-70 -55t-34 -57q-1 -8 -1 -17.5t8 -17.5t23 -8q21 0 40 9.5t30.5 19t12.5 9.5q5 0 2 -13q-2 -11 -8 -17q-60 -67 -111 -67q-35 0 -45.5 25t-5.5 52q9 45 82 114t97 69z" />
    <glyph glyph-name="tilde" unicode="&#x2dc;" horiz-adv-x="460" 
d="M722 818q28 0 66 -26.5t66 -26.5q10 0 24 11t24.5 22t11.5 11q4 0 4 -9q0 -23 -26.5 -54.5t-63.5 -31.5q-28 0 -66.5 26.5t-66.5 26.5q-14 0 -37 -22t-24 -22q-5 0 -5 6q0 25 28.5 57t64.5 32z" />
    <glyph glyph-name="hungarumlaut" unicode="&#x2dd;" horiz-adv-x="460" 
d="M714 541q-2 0 -4.5 4t-2.5 8q0 7 42.5 55t72.5 71q8 5 26 5q39 0 39 -24q0 -22 -80.5 -70.5t-92.5 -48.5zM586 541q-2 0 -4.5 4t-2.5 8q0 7 42.5 55t72.5 71q8 5 26 5q39 0 39 -24q0 -22 -80.5 -70.5t-92.5 -48.5z" />
    <glyph glyph-name="gravecomb" unicode="&#x300;" horiz-adv-x="228" 
d="M329 541q-16 0 -90 47.5t-74 68.5q0 15 16.5 21.5t32.5 6.5q15 0 20 -5q2 -2 15.5 -16t28 -29.5t29.5 -32.5t25 -29t10 -14q0 -6 -4.5 -12t-8.5 -6z" />
    <glyph glyph-name="acutecomb" unicode="&#x301;" horiz-adv-x="216" 
d="M164 541q-2 0 -4.5 4t-2.5 8q0 7 42.5 55t72.5 71q8 5 26 5q39 0 39 -24q0 -22 -80.5 -70.5t-92.5 -48.5z" />
    <glyph glyph-name="uni0302" unicode="&#x302;" horiz-adv-x="390" 
d="M437 706q-17 0 -86 58q-26 -18 -62.5 -38t-44.5 -20q-5 0 -6 7.5t0 12.5l62 51q37 30 54 51q9 9 11 9q3 0 9 -9q24 -39 28 -44q9 -12 21.5 -26.5t19.5 -22.5t7 -9q-5 -20 -13 -20z" />
    <glyph glyph-name="tildecomb" unicode="&#x303;" horiz-adv-x="270" 
d="M262 818q28 0 66 -26.5t66 -26.5q10 0 24 11t24.5 22t11.5 11q4 0 4 -9q0 -23 -26.5 -54.5t-63.5 -31.5q-28 0 -66.5 26.5t-66.5 26.5q-14 0 -37 -22t-24 -22q-5 0 -5 6q0 25 28.5 57t64.5 32z" />
    <glyph glyph-name="uni0304" unicode="&#x304;" horiz-adv-x="353" 
d="M181 559q0 4 6.5 20.5t12.5 16.5h193q5 0 4 -7q-2 -9 -12 -32l-8 -7h-192l-4 2q-1 3 0 7z" />
    <glyph glyph-name="uni0305" unicode="&#x305;" horiz-adv-x="526" 
d="M132 749q0 5 8.5 29t14.5 24h542q5 0 3 -9q-4 -23 -16 -47q-1 -3 -3.5 -4.5t-4.5 -1.5l-1 -1h-539z" />
    <glyph glyph-name="uni0306" unicode="&#x306;" horiz-adv-x="233" 
d="M226 566q29 0 55 20t40 52q0 3 4 3q5 0 10 -4.5t4 -8.5l-1 -4q-1 -3 -1 -4q-15 -41 -49 -70.5t-71 -29.5t-60 29t-21 72v4l1 3q1 4 7.5 8.5t11.5 4.5q3 0 3 -3q1 -32 19.5 -52t47.5 -20z" />
    <glyph glyph-name="uni0307" unicode="&#x307;" horiz-adv-x="240" 
d="M172 545q4 21 20.5 35.5t36.5 14.5q19 0 29.5 -14.5t6.5 -35.5t-20 -35.5t-36 -14.5q-19 0 -30 14.5t-7 35.5z" />
    <glyph glyph-name="uni0308" unicode="&#x308;" horiz-adv-x="308" 
d="M352 563q17 0 27 -14t6 -33t-19.5 -32t-32.5 -13t-28 13.5t-7 32.5t20.5 32.5t33.5 13.5zM181 563q17 0 27.5 -14t6.5 -33t-19.5 -32t-32.5 -13t-28 13.5t-7 32.5t20 32.5t33 13.5z" />
    <glyph glyph-name="hookabovecomb" unicode="&#x309;" horiz-adv-x="166" 
d="M230 655q24 0 34.5 -14t5.5 -37q-8 -43 -60 -66q-25 -11 -27 -25q-2 -9 4 -19q-1 -4 -7.5 -9t-10.5 -5q-29 12 -25 33q5 23 50 44q32 14 36 37q2 13 -2.5 22.5t-16.5 9.5q-30 0 -37 -36q-4 -20 -32 -20q-5 0 -9.5 2.5t-3.5 6.5q5 26 38 51t63 25z" />
    <glyph glyph-name="uni030A" unicode="&#x30a;" horiz-adv-x="225" 
d="M182 592q-4 -23 7.5 -39.5t32.5 -16.5t39.5 16.5t22.5 39.5t-7.5 39t-32.5 16t-39.5 -16t-22.5 -39zM151 592q7 37 36.5 63t63.5 26t52.5 -26t10.5 -63t-36.5 -63.5t-61.5 -26.5q-34 0 -53 26.5t-12 63.5z" />
    <glyph glyph-name="uni030B" unicode="&#x30b;" horiz-adv-x="282" 
d="M254 541q-2 0 -4.5 4t-2.5 8q0 7 42.5 55t72.5 71q8 5 26 5q39 0 39 -24q0 -22 -80.5 -70.5t-92.5 -48.5zM126 541q-2 0 -4.5 4t-2.5 8q0 7 42.5 55t72.5 71q8 5 26 5q39 0 39 -24q0 -22 -80.5 -70.5t-92.5 -48.5z" />
    <glyph glyph-name="uni030C" unicode="&#x30c;" horiz-adv-x="389" 
d="M277 575q83 66 99 66q8 0 3 -23q-1 -1 -10 -9t-24 -23l-29 -29q-10 -12 -44 -55q-6 -9 -10 -9t-7 9q-10 27 -24 52q-9 17 -22.5 38.5t-15.5 25.5q5 23 13 23q7 0 31 -22.5t40 -43.5z" />
    <glyph glyph-name="uni0312" unicode="&#x312;" horiz-adv-x="147" 
d="M210 513q0 -23 -27.5 -39t-58.5 -16q-13 10 -13 41q0 37 32 79t62 58q2 2 8 2q18 0 18 -7q0 -2 -11 -8.5t-23.5 -20.5t-16.5 -32q-3 -16 13.5 -30.5t16.5 -26.5z" />
    <glyph glyph-name="uni0315" unicode="&#x315;" horiz-adv-x="147" 
d="M162 592q0 28 21.5 44t52.5 16q5 -9 5 -28q0 -14 -3 -34q-6 -31 -39 -71.5t-55 -52.5q-1 -1 -7 -1q-4 0 -7 4t-3 8l11 9q12 9 23.5 26.5t11.5 38.5q0 5 -5.5 18t-5.5 23z" />
    <glyph glyph-name="dotbelowcomb" unicode="&#x323;" horiz-adv-x="240" 
d="M70 -82q4 21 20 35.5t36 14.5q19 0 30 -14.5t7 -35.5t-20.5 -35.5t-36.5 -14.5q-19 0 -29.5 14.5t-6.5 35.5z" />
    <glyph glyph-name="uni0326" unicode="&#x326;" horiz-adv-x="147" 
d="M18 -68q0 23 27.5 39t58.5 16q13 -10 13 -41q0 -37 -32 -79t-62 -58q-2 -2 -8 -2q-18 0 -18 7q0 2 11 8.5t23.5 20.5t16.5 32q3 16 -13.5 30.5t-16.5 26.5z" />
    <glyph glyph-name="uni0327" unicode="&#x327;" horiz-adv-x="405" 
d="M196 -27h23q18 0 27 -14.5t5 -34.5q-7 -34 -36 -55t-66 -21q-19 0 -30 9v14q1 5 5.5 9.5t9.5 4.5t14.5 -6.5t17.5 -6.5q19 0 32 10t15 23q3 16 -4 25t-18 9q-9 0 -26 -7q-2 0 -5.5 5t-1.5 8q5 7 20 25.5t20 25.5h19z" />
    <glyph glyph-name="uni0328" unicode="&#x328;" horiz-adv-x="203" 
d="M165 42q29 0 28 -10q0 -3 -4 -7q-3 -2 -44 -29t-70 -55t-34 -57q-1 -8 -1 -17.5t8 -17.5t23 -8q21 0 40 9.5t30.5 19t12.5 9.5q5 0 2 -13q-2 -11 -8 -17q-60 -67 -111 -67q-35 0 -45.5 25t-5.5 52q9 45 82 114t97 69z" />
    <glyph glyph-name="mu" unicode="&#x3bc;" horiz-adv-x="428" 
d="M154 437q9 0 27 -14t16 -23q-6 -35 -54 -154l-9 -23q-14 -59 -11.5 -109t25.5 -50q75 0 162 158l54 203q2 12 15 12q9 0 27 -14t16 -23q-5 -31 -55 -154l-9 -23q-34 -156 21 -156q29 0 59 30q3 0 7 -10q2 -6 0 -11q-16 -33 -45.5 -56.5t-57.5 -23.5q-30 1 -36 35.5
t-1 96.5q-84 -137 -167 -137q-6 0 -11.5 1.5t-9.5 5.5l-7 7t-5.5 10t-4 11t-3 13t-2 12.5t-1.5 13t-1 11.5q0 -1 -8 -42t-13 -77t-2.5 -81.5t17.5 -69.5q-1 -10 -15.5 -18.5t-28.5 -8.5q-8 0 -16 8t-15.5 29t-7.5 51q0 75 83 337q3 14 9.5 53t6.5 41q10 45 24 119
q15 20 27 20z" />
    <glyph glyph-name="uni2010" unicode="&#x2010;" horiz-adv-x="290" 
d="M87 261l227 12q6 0 6 -12q0 -11 -8 -30.5t-15 -20.5l-226 -11q-5 0 -5 15q0 10 7 28t14 19z" />
    <glyph glyph-name="uni2011" unicode="&#x2011;" horiz-adv-x="290" 
d="M87 261l227 12q6 0 6 -12q0 -11 -8 -30.5t-15 -20.5l-226 -11q-5 0 -5 15q0 10 7 28t14 19z" />
    <glyph glyph-name="figuredash" unicode="&#x2012;" horiz-adv-x="440" 
d="M456 262q6 0 6 -13q0 -11 -7 -27.5t-15 -21.5h-370q-6 0 -6 13q0 11 7 27.5t15 21.5h370z" />
    <glyph glyph-name="endash" unicode="&#x2013;" horiz-adv-x="486" 
d="M502 262q6 0 6 -13q0 -11 -7 -27.5t-15 -21.5h-416q-6 0 -6 13q0 11 7 27.5t15 21.5h416z" />
    <glyph glyph-name="emdash" unicode="&#x2014;" horiz-adv-x="724" 
d="M738 262q6 0 6 -13q0 -11 -7 -27.5t-15 -21.5h-652q-6 0 -6 13q0 11 7 27.5t15 21.5h652z" />
    <glyph glyph-name="afii00208" unicode="&#x2015;" horiz-adv-x="1004" 
d="M1008 262q6 0 6 -13q0 -11 -7 -27.5t-15 -21.5h-922q-6 0 -6 13q0 11 7 27.5t15 21.5h922z" />
    <glyph glyph-name="quoteleft" unicode="&#x2018;" horiz-adv-x="148" 
d="M122 555q8 42 40 79.5t58.5 54.5t33.5 17q11 0 14 -18q-28 -16 -48.5 -37.5t-26.5 -33.5t-8 -20q-2 -13 13 -35.5t12 -36.5q-4 -18 -25 -30.5t-44 -12.5q-9 0 -18 3q-10 23 -1 70z" />
    <glyph glyph-name="quoteright" unicode="&#x2019;" horiz-adv-x="148" 
d="M260 635q-8 -42 -40 -79.5t-58 -54.5t-33 -17q-12 0 -15 18q28 16 48.5 37.5t27 34t8.5 19.5q2 13 -12.5 35.5t-11.5 36.5q4 18 24.5 30.5t43.5 12.5q9 0 18 -3q10 -21 0 -70z" />
    <glyph glyph-name="quotesinglbase" unicode="&#x201a;" horiz-adv-x="148" 
d="M147 53q-8 -42 -40 -79.5t-58 -54t-33 -16.5q-12 0 -15 17q28 16 48.5 37.5t27 34t8.5 19.5q2 13 -13 35.5t-12 36.5q4 18 25 30.5t44 12.5q9 0 18 -3q10 -21 0 -70z" />
    <glyph glyph-name="quotedblleft" unicode="&#x201c;" horiz-adv-x="286" 
d="M256 555q8 42 40 79.5t58 54.5t33 17q12 0 15 -18q-28 -16 -48.5 -37.5t-27 -34t-8.5 -19.5q-2 -13 13 -35.5t12 -36.5q-4 -18 -24.5 -30.5t-43.5 -12.5q-10 0 -19 3q-10 21 0 70zM122 555q8 42 40 79.5t58.5 54.5t33.5 17q11 0 14 -18q-28 -16 -48.5 -37.5t-26.5 -33.5
t-8 -20q-2 -13 13 -35.5t12 -36.5q-4 -18 -25 -30.5t-44 -12.5q-9 0 -18 3q-10 23 -1 70z" />
    <glyph glyph-name="quotedblright" unicode="&#x201d;" horiz-adv-x="287" 
d="M394 635q-8 -42 -40 -79.5t-58.5 -54.5t-33.5 -17q-11 0 -14 18q28 16 48.5 37.5t26.5 33.5t8 20q2 13 -12.5 35.5t-11.5 36.5q4 18 24.5 30.5t43.5 12.5q9 0 18 -3q10 -23 1 -70zM260 635q-8 -42 -40 -79.5t-58 -54.5t-33 -17q-12 0 -15 18q28 16 48.5 37.5t27 34
t8.5 19.5q2 13 -12.5 35.5t-11.5 36.5q4 18 24.5 30.5t43.5 12.5q9 0 18 -3q10 -21 0 -70z" />
    <glyph glyph-name="quotedblbase" unicode="&#x201e;" horiz-adv-x="286" 
d="M280 51q-8 -42 -40 -79.5t-58 -54t-33 -16.5q-12 0 -15 17q28 16 48.5 37.5t26.5 33.5t8 20q2 13 -12.5 35.5t-11.5 36.5q4 18 25 30.5t44 12.5q9 0 18 -3q10 -21 0 -70zM147 53q-8 -42 -40 -79.5t-58 -54t-33 -16.5q-12 0 -15 17q28 16 48.5 37.5t27 34t8.5 19.5
q2 13 -13 35.5t-12 36.5q4 18 25 30.5t44 12.5q9 0 18 -3q10 -21 0 -70z" />
    <glyph glyph-name="dagger" unicode="&#x2020;" horiz-adv-x="278" 
d="M170 371q-8 0 -17 -47.5t-56 -333.5q-11 5 -31 5q-18 0 -33 -5q67 303 80 371q2 10 -5 10h-14q-2 0 -99 -5q10 32 12 61q95 -5 97 -5h14q7 0 11 17.5t17 112.5q7 47 11 77q22 -4 31 -4t33 4q-47 -192 -47 -198q-1 -9 6 -9h13q3 0 100 5q-9 -33 -12 -61q-95 5 -98 5h-13z
" />
    <glyph glyph-name="daggerdbl" unicode="&#x2021;" horiz-adv-x="307" 
d="M-12 191q8 25 12 62l111 -5q7 0 11 15t20 107q2 9 -6 9h-13q-1 0 -99 -5q10 32 12 61q14 -1 32.5 -2t33 -2t30.5 -1h14q7 0 11 17t13 82q8 59 14 100q22 -4 31 -4t33 4q-44 -186 -45 -190q0 -9 6 -9h13q2 0 99 5q-5 -17 -12 -61q-14 1 -33 2t-33.5 2t-30.5 1h-13
q-6 0 -8 -8q-3 -8 -17 -79q-1 -7 -3 -15.5t-3 -12.5t-1.5 -8.5t1 -6t5.5 -1.5l113 5q-9 -34 -12 -62l-111 6q-6 -1 -8.5 -10.5t-8.5 -52.5q-11 -76 -22 -144q-11 5 -31 5q-18 0 -33 -5q17 78 37 157q12 47 8 49q-1 1 -4 1z" />
    <glyph glyph-name="bullet" unicode="&#x2022;" horiz-adv-x="376" 
d="M138 263q8 44 44 76t77 32t64 -32t15 -76t-44 -76t-77 -32t-64 32t-15 76z" />
    <glyph glyph-name="onedotenleader" unicode="&#x2024;" horiz-adv-x="638" 
d="M277 32q0 28 19.5 49t44.5 21q19 0 31.5 -12.5t12.5 -32.5q0 -27 -20.5 -49t-45.5 -22q-19 0 -30.5 13t-11.5 33z" />
    <glyph glyph-name="ellipsis" unicode="&#x2026;" horiz-adv-x="648" 
d="M517 32q0 28 20 49t45 21q19 0 31.5 -12.5t12.5 -32.5q0 -27 -21 -49t-46 -22q-19 0 -30.5 13t-11.5 33zM282 32q0 28 19.5 49t44.5 21q19 0 31.5 -12.5t12.5 -32.5q0 -27 -20.5 -49t-45.5 -22q-19 0 -30.5 13t-11.5 33zM45 32q0 28 19.5 49t44.5 21q19 0 31.5 -12.5
t12.5 -32.5q0 -27 -20.5 -49t-45.5 -22q-19 0 -30.5 13t-11.5 33z" />
    <glyph glyph-name="perthousand" unicode="&#x2030;" horiz-adv-x="878" 
d="M755 300q-45 0 -77 -53t-32 -115q0 -45 16 -78.5t49 -33.5q45 0 73.5 55t28.5 120q0 42 -13.5 73.5t-44.5 31.5zM765 327q55 0 84 -38.5t29 -93.5q0 -75 -54 -139t-125 -64q-54 0 -85 38.5t-31 92.5q0 76 54 140t128 64zM-3 -12q-12 0 -15 11l596 653q11 11 22 11
q22 0 27 -13l-596 -650q-12 -12 -34 -12zM438 300q-45 0 -77 -53t-32 -115q0 -45 16 -78.5t49 -33.5q45 0 73.5 55t28.5 120q0 42 -13.5 73.5t-44.5 31.5zM448 327q55 0 84 -38.5t29 -93.5q0 -75 -54 -139t-125 -64q-54 0 -85 38.5t-31 92.5q0 76 54 140t128 64zM226 646
q-45 0 -77 -53t-32 -115q0 -45 16 -78.5t49 -33.5q45 0 73.5 55t28.5 120q0 42 -13.5 73.5t-44.5 31.5zM236 673q55 0 84 -38.5t29 -93.5q0 -75 -54 -139t-125 -64q-54 0 -85 38.5t-31 92.5q0 76 54 140t128 64z" />
    <glyph glyph-name="minute" unicode="&#x2032;" horiz-adv-x="141" 
d="M117 699q20 0 20 -17q0 -39 -94 -180q-5 -8 -12 -8q-11 0 -9 12q0 1 3 12.5t7 29.5t9.5 38.5t11.5 42.5t11 37q3 9 21.5 21t31.5 12z" />
    <glyph glyph-name="second" unicode="&#x2033;" horiz-adv-x="261" 
d="M238 699q19 0 19 -17q0 -40 -93 -180q-5 -8 -12 -8q-12 0 -10 12q0 1 3 12.5t7.5 29.5t10 38.5t12 42.5t11.5 37q3 9 21 21t31 12zM117 699q20 0 20 -17q0 -39 -94 -180q-5 -8 -12 -8q-11 0 -9 12q0 1 3 12.5t7 29.5t9.5 38.5t11.5 42.5t11 37q3 9 21.5 21t31.5 12z" />
    <glyph glyph-name="uni2038" unicode="&#x2038;" horiz-adv-x="375" 
d="M280 -36q-9 0 -36.5 27.5t-47.5 55.5q-27 -27 -66.5 -55t-48.5 -28q-6 0 -6 13q0 6 17.5 18.5t48 40.5t54.5 64q5 10 11 10q8 0 10 -4.5t9 -23.5t21 -41q5 -9 17 -23t21.5 -24.5t9.5 -11.5q-1 -4 -5.5 -11t-8.5 -7z" />
    <glyph glyph-name="guilsinglleft" unicode="&#x2039;" horiz-adv-x="298" 
d="M321 423q19 -6 19 -16q0 -3 -1 -5.5t-4.5 -6l-7 -7t-10 -9.5t-12.5 -11t-16.5 -13.5t-19.5 -16.5q-15 -13 -55.5 -50.5t-43.5 -40.5l63 -90q9 -13 18 -24t13 -16.5t7.5 -10t4.5 -7t1 -5.5q0 -5 -3.5 -9t-6 -5.5t-9.5 -3.5l-6 -3q-2 3 -15 18.5t-53 54.5t-93 81
q-4 3 -4 10q0 18 13 31q61 35 117 74.5t77.5 57.5t26.5 23z" />
    <glyph glyph-name="guilsinglright" unicode="&#x203a;" horiz-adv-x="298" 
d="M76 73q-18 6 -18 15q0 3 1 6t4 6.5l6 7t9.5 9t12.5 10.5t16 13.5t19 16.5l99 90q-5 7 -29.5 43t-34.5 48q-44 57 -44 62q0 12 26 23q2 -4 17.5 -23t55.5 -58t87 -74q5 -8 5 -16q0 -20 -12 -25q-159 -97 -220 -154z" />
    <glyph glyph-name="uni203E" unicode="&#x203e;" horiz-adv-x="526" 
d="M689 801q6 0 6 -13q0 -11 -7 -27.5t-15 -21.5h-539q-6 0 -6 13q0 11 7 27.5t15 21.5h539z" />
    <glyph glyph-name="Euro" unicode="&#x20ac;" horiz-adv-x="614" 
d="M485 32q-57 -36 -171 -36q-109 0 -175.5 72t-71.5 172h-55q-5 0 -5 10q0 9 5.5 21t11.5 16h45q3 31 14 66h-49q-5 0 -5 10q0 9 5.5 21t11.5 16h55q46 99 132.5 166t190.5 67q64 0 201 -43q-17 -108 -19 -117q-3 -14 -22 -14q-9 0 -11 2q0 14 -1 25.5t-9.5 33t-23 36
t-46 26t-74.5 11.5q-67 0 -132.5 -54t-101.5 -139h196q4 0 4 -10q0 -9 -5.5 -21t-11.5 -16h-200q-10 -37 -13 -66h204q4 0 4 -10q0 -9 -5.5 -21t-11.5 -16h-193q2 -90 47 -146.5t133 -56.5q46 0 84 10.5t60.5 25.5t38.5 30.5t25 26t12 10.5q4 0 11.5 -8.5t7.5 -14.5
q-25 -45 -87 -85z" />
    <glyph glyph-name="arrowleft" unicode="&#x2190;" horiz-adv-x="672" 
d="M183 335l-64 -57h535q6 0 6 -13q0 -11 -7 -27.5t-15 -21.5h-529q24 -37 41 -59q7 -10 14.5 -19t11 -14t7.5 -10t5.5 -7t3 -4.5t1.5 -4v-4.5q0 -11 -24 -21q-2 3 -15 18.5t-53 54.5t-93 81q-4 3 -4 10q0 18 13 31q61 35 117 74.5t77.5 57.5t26.5 23q21 -7 18 -19v-3
t-1 -2.5t-2.5 -3l-4.5 -4.5t-6.5 -5.5t-9.5 -7.5t-12.5 -10.5t-16 -14.5t-20.5 -18z" />
    <glyph glyph-name="arrowup" unicode="&#x2191;" horiz-adv-x="315" 
d="M152 556l-66 -57q-70 -60 -73 -61q-5 0 -8 4.5t-4 11t-1 7.5q3 1 21.5 19.5t64.5 69.5t98 117q4 7 14 7q17 0 24 -8q21 -58 47.5 -110t40 -72.5t16.5 -23.5q-10 -23 -22 -23h-3.5t-3 1t-2.5 2t-3 4l-4 6t-6 8.5t-8.5 11.5t-11 15.5t-14.5 19.5l-38 50l-111 -576
q-2 -7 -13 -7q-12 0 -26.5 4.5t-18.5 10.5z" />
    <glyph glyph-name="arrowright" unicode="&#x2192;" horiz-adv-x="676" 
d="M549 217h-536q-6 0 -6 13q0 11 7 27.5t15 21.5h534l-43 60q-16 22 -33 42q-10 12 -10 19v4q1 6 6 9.5t11.5 6.5t7.5 3q2 -4 14.5 -19.5t52.5 -54.5t93 -81q4 -3 4 -9q0 -20 -12 -32q-61 -35 -117 -74.5t-78.5 -57.5t-26.5 -22q-20 7 -17 18q0 6 25 28q28 24 51 45z" />
    <glyph glyph-name="arrowdown" unicode="&#x2193;" horiz-adv-x="313" 
d="M105 90l112 577q1 6 13 6q29 0 44 -15l-110 -569l66 57q15 13 27.5 25t18 17.5l10 10t7 6t4.5 2t6 0.5t6.5 -3t3 -6.5t1 -8t1.5 -5.5q-3 -1 -21.5 -19.5t-64.5 -69.5t-98 -117q-4 -7 -14 -7q-16 0 -24 9q-21 58 -47.5 110t-39.5 72t-16 23q10 23 21 23h3t2.5 -1t2.5 -2
t3.5 -4t4.5 -6t6 -8.5t8.5 -12t11.5 -16t15 -20.5z" />
    <glyph glyph-name="partialdiff" unicode="&#x2202;" horiz-adv-x="403" 
d="M201 330q-45 0 -83.5 -52.5t-38.5 -128.5q0 -113 75 -113q40 0 75.5 42t52 87.5t16.5 72.5q0 40 -27 66t-70 26zM318 339q16 0 16 91q0 107 -50 139q-38 23 -73 23q-49 0 -103 -40q0 1 -2 3.5t-3 5.5t0 7q1 5 5.5 12t16.5 17t28.5 18t44 13.5t61.5 5.5q52 0 94 -65
t42 -155q0 -43 -7 -92.5t-26.5 -108t-48.5 -105t-78.5 -77.5t-111.5 -31q-56 0 -86 37.5t-30 94.5q0 51 23 103t73.5 92t117.5 40q21 0 44 -7t38 -14z" />
    <glyph glyph-name="summation" unicode="&#x2211;" horiz-adv-x="551" 
d="M414 616q-90 1 -116 1q-60 0 -64 -10l127 -249q3 -21 -7 -31q-3 -3 -25 -24.5t-41.5 -40t-48 -47t-51 -51.5t-43.5 -46t-32.5 -39t-11.5 -22q0 -10 68 -10q16 0 50 0.5t49 0.5q118 0 154 18q35 17 72 96q3 6 14 6q19 0 23 -6q-6 -12 -28 -52.5t-35 -67t-20 -46.5
q-52 0 -180 3t-169 3l-111 -5q-1 1 -1 8t2.5 16.5t4.5 9.5q16 0 45 32l239 254q3 5 1 10q-29 74 -127 265q-7 13 -20.5 24t-21.5 11q-2 0 -2 6t2 13.5t6 11.5q46 -2 108 -2q41 0 162 4t173 4q-1 -16 -1 -47q0 -15 0.5 -44.5t0.5 -44.5q-5 -5 -17 -5t-12 7q-3 58 -33 77
q-16 9 -83 9z" />
    <glyph glyph-name="minus" unicode="&#x2212;" horiz-adv-x="495" 
d="M21 228q13 46 22 46h425q5 0 5 -5q0 -7 -17 -45q-1 -3 -2.5 -4.5t-3.5 -1.5h-1h-424l-1 0.5t-2 3t-1 6.5z" />
    </font>
</defs>
</svg>
